<svg width="98" height="25" viewBox="0 0 98 25" fill="none" xmlns="http://www.w3.org/2000/svg">
<path d="M0.710938 19.8555L2.47461 16.9844C3.04883 17.4401 3.5957 17.8138 4.11523 18.1055C4.63477 18.388 5.14518 18.5977 5.64648 18.7344C6.1569 18.862 6.67188 18.9258 7.19141 18.9258C7.82031 18.9258 8.36263 18.8392 8.81836 18.666C9.27409 18.4837 9.625 18.2331 9.87109 17.9141C10.1263 17.5859 10.2539 17.1986 10.2539 16.752C10.2539 16.2415 10.0944 15.8132 9.77539 15.4668C9.45638 15.1204 9.04167 14.8197 8.53125 14.5645C8.02083 14.3092 7.47852 14.0586 6.9043 13.8125C6.30273 13.5664 5.70117 13.2975 5.09961 13.0059C4.49805 12.7142 3.94661 12.3724 3.44531 11.9805C2.94401 11.5885 2.54297 11.1055 2.24219 10.5312C1.94141 9.95703 1.79102 9.26432 1.79102 8.45312C1.79102 7.08594 2.22396 5.96484 3.08984 5.08984C3.95573 4.20573 5.09049 3.6543 6.49414 3.43555L6.42578 0.851562H8.91406L8.83203 3.35352C9.57031 3.41732 10.3223 3.55859 11.0879 3.77734C11.8626 3.99609 12.6283 4.29688 13.3848 4.67969L11.9219 7.70117C11.3477 7.35482 10.7279 7.08138 10.0625 6.88086C9.39714 6.68034 8.77279 6.58008 8.18945 6.58008C7.42383 6.58008 6.80404 6.75781 6.33008 7.11328C5.85612 7.46875 5.61914 7.93359 5.61914 8.50781C5.61914 8.97266 5.77409 9.3737 6.08398 9.71094C6.39388 10.0391 6.80404 10.3353 7.31445 10.5996C7.82487 10.8548 8.3763 11.1146 8.96875 11.3789C9.5612 11.6341 10.1536 11.9121 10.7461 12.2129C11.3477 12.5137 11.8991 12.8737 12.4004 13.293C12.9108 13.7031 13.3164 14.1953 13.6172 14.7695C13.9271 15.3346 14.082 16.0182 14.082 16.8203C14.082 17.7409 13.8633 18.5658 13.4258 19.2949C12.9974 20.0241 12.3913 20.6302 11.6074 21.1133C10.8236 21.5872 9.89844 21.9017 8.83203 22.0566L8.91406 24.6406H6.42578L6.49414 22.1387C5.45508 22.0658 4.44336 21.8333 3.45898 21.4414C2.47461 21.0495 1.55859 20.5208 0.710938 19.8555ZM24.459 23H20.248V6.62109L16.8164 7.87891L15.5039 4.5293L21.1094 2.49219H24.459V23ZM41.6582 23H28.5879V20.5254C30.2012 19.0853 31.5547 17.8138 32.6484 16.7109C33.7513 15.6081 34.6309 14.6237 35.2871 13.7578C35.9434 12.8919 36.4173 12.099 36.709 11.3789C37.0007 10.6497 37.1465 9.94336 37.1465 9.25977C37.1465 8.55794 37.0143 7.94271 36.75 7.41406C36.4948 6.88542 36.1302 6.47526 35.6562 6.18359C35.1914 5.89193 34.6491 5.74609 34.0293 5.74609C33.3184 5.74609 32.6302 5.95117 31.9648 6.36133C31.2995 6.76237 30.7344 7.31836 30.2695 8.0293L28.1367 5.34961C28.9388 4.31055 29.9323 3.50846 31.1172 2.94336C32.3112 2.36914 33.5508 2.08203 34.8359 2.08203C36.0573 2.08203 37.1693 2.3418 38.1719 2.86133C39.1745 3.38086 39.972 4.11914 40.5645 5.07617C41.1569 6.0332 41.4531 7.16341 41.4531 8.4668C41.4531 9.37826 41.2936 10.2988 40.9746 11.2285C40.6647 12.1491 40.209 13.0651 39.6074 13.9766C39.015 14.888 38.2858 15.7949 37.4199 16.6973C36.5632 17.5905 35.5833 18.4655 34.4805 19.3223H41.6582V23ZM44.1602 20.8809L46.334 17.4629C46.6895 18.1465 47.2227 18.6979 47.9336 19.1172C48.6445 19.5273 49.4147 19.7324 50.2441 19.7324C50.9642 19.7324 51.6022 19.5775 52.1582 19.2676C52.7142 18.9577 53.1471 18.5293 53.457 17.9824C53.776 17.4264 53.9355 16.793 53.9355 16.082C53.9355 15.362 53.776 14.7285 53.457 14.1816C53.1471 13.6348 52.7096 13.2064 52.1445 12.8965C51.5794 12.5866 50.9368 12.4316 50.2168 12.4316C49.6699 12.4316 49.1549 12.5273 48.6719 12.7188C48.1888 12.9102 47.7559 13.1882 47.373 13.5527L45.3359 12.3633L46.2383 2.49219H57.0254V6.16992H50.0938L49.6426 10.5039C50.2533 10.3307 50.9004 10.2441 51.584 10.2441C52.86 10.2441 53.9993 10.5176 55.002 11.0645C56.0046 11.6113 56.793 12.3587 57.3672 13.3066C57.9505 14.2546 58.2422 15.3438 58.2422 16.5742C58.2422 17.8867 57.9095 19.0579 57.2441 20.0879C56.5879 21.1178 55.6855 21.929 54.5371 22.5215C53.3978 23.1139 52.0898 23.4102 50.6133 23.4102C49.3828 23.4102 48.2025 23.1914 47.0723 22.7539C45.9512 22.3073 44.9805 21.6829 44.1602 20.8809ZM62.5078 23.2734C61.9609 23.2734 61.5143 23.1048 61.168 22.7676C60.8307 22.4212 60.6621 21.9701 60.6621 21.4141C60.6621 20.8581 60.8307 20.4115 61.168 20.0742C61.5143 19.7279 61.9609 19.5547 62.5078 19.5547C63.0638 19.5547 63.515 19.7279 63.8613 20.0742C64.2077 20.4115 64.3809 20.8581 64.3809 21.4141C64.3809 21.9701 64.2077 22.4212 63.8613 22.7676C63.515 23.1048 63.0638 23.2734 62.5078 23.2734ZM73.4863 23.4102C71.9551 23.4102 70.6289 22.9954 69.5078 22.166C68.3867 21.3275 67.5163 20.1152 66.8965 18.5293C66.2858 16.9342 65.9805 15.002 65.9805 12.7324C65.9805 10.472 66.2858 8.54883 66.8965 6.96289C67.5163 5.37695 68.3867 4.16927 69.5078 3.33984C70.6289 2.5013 71.9551 2.08203 73.4863 2.08203C75.0267 2.08203 76.3574 2.5013 77.4785 3.33984C78.5996 4.16927 79.4655 5.37695 80.0762 6.96289C80.696 8.54883 81.0059 10.472 81.0059 12.7324C81.0059 15.002 80.7005 16.9342 80.0898 18.5293C79.4792 20.1152 78.6087 21.3275 77.4785 22.166C76.3574 22.9954 75.0267 23.4102 73.4863 23.4102ZM73.4863 19.7324C74.5072 19.7324 75.2956 19.1217 75.8516 17.9004C76.4167 16.679 76.6992 14.9609 76.6992 12.7461C76.6992 10.5221 76.4167 8.80404 75.8516 7.5918C75.2956 6.37044 74.5072 5.75977 73.4863 5.75977C72.4837 5.75977 71.6999 6.37044 71.1348 7.5918C70.5697 8.80404 70.2871 10.5221 70.2871 12.7461C70.2871 14.9609 70.5697 16.679 71.1348 17.9004C71.6999 19.1217 72.4837 19.7324 73.4863 19.7324ZM90.4395 23.4102C88.9082 23.4102 87.582 22.9954 86.4609 22.166C85.3398 21.3275 84.4694 20.1152 83.8496 18.5293C83.2389 16.9342 82.9336 15.002 82.9336 12.7324C82.9336 10.472 83.2389 8.54883 83.8496 6.96289C84.4694 5.37695 85.3398 4.16927 86.4609 3.33984C87.582 2.5013 88.9082 2.08203 90.4395 2.08203C91.9798 2.08203 93.3105 2.5013 94.4316 3.33984C95.5527 4.16927 96.4186 5.37695 97.0293 6.96289C97.6491 8.54883 97.959 10.472 97.959 12.7324C97.959 15.002 97.6536 16.9342 97.043 18.5293C96.4323 20.1152 95.5618 21.3275 94.4316 22.166C93.3105 22.9954 91.9798 23.4102 90.4395 23.4102ZM90.4395 19.7324C91.4603 19.7324 92.2487 19.1217 92.8047 17.9004C93.3698 16.679 93.6523 14.9609 93.6523 12.7461C93.6523 10.5221 93.3698 8.80404 92.8047 7.5918C92.2487 6.37044 91.4603 5.75977 90.4395 5.75977C89.4368 5.75977 88.653 6.37044 88.0879 7.5918C87.5228 8.80404 87.2402 10.5221 87.2402 12.7461C87.2402 14.9609 87.5228 16.679 88.0879 17.9004C88.653 19.1217 89.4368 19.7324 90.4395 19.7324Z" fill="#1D2026"/>
</svg>
