<svg width="44" height="12" viewBox="0 0 44 12" fill="none" xmlns="http://www.w3.org/2000/svg">
<path d="M1.68457 11H0.32959L4.84131 0.0136719H6.24023L10.7446 11H9.38965L8.1958 8.03369H2.87842L1.68457 11ZM3.33252 6.89111H7.7417L5.53711 1.40527L3.33252 6.89111ZM13.2788 11H12.2095V0.0136719H13.4106V4.66455C13.7524 4.30811 14.1577 4.02979 14.6265 3.82959C15.0952 3.62939 15.6055 3.5293 16.1572 3.5293C16.8799 3.5293 17.5244 3.69531 18.0908 4.02734C18.6572 4.35938 19.104 4.81348 19.4312 5.38965C19.7632 5.96094 19.9292 6.61035 19.9292 7.33789C19.9292 8.06055 19.7632 8.70996 19.4312 9.28613C19.104 9.8623 18.6572 10.3164 18.0908 10.6484C17.5244 10.9805 16.8799 11.1465 16.1572 11.1465C15.5811 11.1465 15.0513 11.0391 14.5679 10.8242C14.0894 10.6045 13.6792 10.3066 13.3374 9.93066L13.2788 11ZM16.0547 10.0625C16.5576 10.0625 17.0068 9.94531 17.4023 9.71094C17.8027 9.47168 18.1177 9.14697 18.3472 8.73682C18.5815 8.32666 18.6987 7.86279 18.6987 7.34521C18.6987 6.82275 18.5815 6.35645 18.3472 5.94629C18.1177 5.53125 17.8027 5.2041 17.4023 4.96484C17.0068 4.72559 16.5576 4.60596 16.0547 4.60596C15.5762 4.60596 15.1416 4.71582 14.751 4.93555C14.3652 5.15527 14.0527 5.45557 13.8135 5.83643C13.5791 6.21729 13.4448 6.64941 13.4106 7.13281V7.53564C13.4448 8.01904 13.5791 8.45117 13.8135 8.83203C14.0479 9.21289 14.3579 9.51318 14.7437 9.73291C15.1343 9.95264 15.5713 10.0625 16.0547 10.0625ZM24.8657 11.1465C24.1382 11.1465 23.4839 10.9805 22.9028 10.6484C22.3218 10.3164 21.8628 9.86475 21.5259 9.29346C21.1938 8.71729 21.0278 8.06543 21.0278 7.33789C21.0278 6.61523 21.1938 5.96826 21.5259 5.39697C21.8628 4.8208 22.3218 4.3667 22.9028 4.03467C23.4839 3.69775 24.1382 3.5293 24.8657 3.5293C25.5933 3.5293 26.2451 3.69775 26.8213 4.03467C27.3975 4.3667 27.8516 4.8208 28.1836 5.39697C28.5156 5.96826 28.6816 6.61523 28.6816 7.33789C28.6816 8.06543 28.5156 8.71729 28.1836 9.29346C27.8516 9.86475 27.3975 10.3164 26.8213 10.6484C26.2451 10.9805 25.5933 11.1465 24.8657 11.1465ZM24.8584 10.0625C25.3516 10.0625 25.7935 9.94287 26.1841 9.70361C26.5747 9.46436 26.8823 9.13965 27.1069 8.72949C27.3364 8.31934 27.4512 7.85303 27.4512 7.33057C27.4512 6.81787 27.3364 6.35645 27.1069 5.94629C26.8823 5.53613 26.5747 5.21143 26.1841 4.97217C25.7935 4.73291 25.3516 4.61328 24.8584 4.61328C24.3652 4.61328 23.9209 4.73291 23.5254 4.97217C23.1348 5.21143 22.8247 5.53613 22.5952 5.94629C22.3706 6.35645 22.2583 6.81787 22.2583 7.33057C22.2583 7.85303 22.3706 8.31934 22.5952 8.72949C22.8247 9.13965 23.1348 9.46436 23.5254 9.70361C23.9209 9.94287 24.3652 10.0625 24.8584 10.0625ZM37.0825 11H36.0278L35.9839 9.81348C35.7153 10.2432 35.3613 10.5728 34.9219 10.8022C34.4873 11.0317 33.9722 11.1465 33.3765 11.1465C32.4048 11.1465 31.6357 10.8535 31.0693 10.2676C30.5078 9.67676 30.2271 8.87109 30.2271 7.85059V3.67578H31.4282V7.7627C31.4282 8.45605 31.6235 9.01025 32.0142 9.42529C32.4097 9.84033 32.9346 10.0479 33.5889 10.0479C34.2725 10.0479 34.8242 9.82324 35.2441 9.37402C35.6689 8.9248 35.8813 8.33887 35.8813 7.61621V3.67578H37.0825V11ZM43.6011 10.8242C43.1177 11.0391 42.6465 11.1465 42.1875 11.1465C41.748 11.1465 41.3623 11.0513 41.0303 10.8608C40.6982 10.6655 40.4395 10.3945 40.2539 10.0479C40.0684 9.69629 39.9756 9.28857 39.9756 8.82471V4.75244H38.6938V3.67578H40.0342V1.84473H41.1768V3.67578H43.3667V4.75244H41.1768V8.60498C41.1768 9.04443 41.2939 9.39844 41.5283 9.66699C41.7676 9.93555 42.0801 10.0698 42.4658 10.0698C42.7783 10.0698 43.0908 9.97705 43.4033 9.7915L43.6011 10.8242Z" fill="#69707D"/>
</svg>
