<svg width="86" height="11" viewBox="0 0 86 11" fill="none" xmlns="http://www.w3.org/2000/svg">
<path d="M2.71094 12H0.1875L4.85938 0.28125H7.39844L12.0625 12H9.53906L8.57812 9.48438H3.67188L2.71094 12ZM4.46094 7.375H7.79688L6.125 3.03125L4.46094 7.375ZM21.25 12H19.2812L19.1641 10.9375C18.8307 11.3125 18.4297 11.6094 17.9609 11.8281C17.4974 12.0469 16.9896 12.1562 16.4375 12.1562C15.724 12.1562 15.0859 11.9818 14.5234 11.6328C13.9661 11.2786 13.526 10.7943 13.2031 10.1797C12.8802 9.5651 12.7188 8.86979 12.7188 8.09375C12.7188 7.3125 12.8802 6.61719 13.2031 6.00781C13.526 5.39323 13.9661 4.91146 14.5234 4.5625C15.0859 4.20833 15.724 4.03125 16.4375 4.03125C16.9479 4.03125 17.4219 4.125 17.8594 4.3125C18.3021 4.49479 18.6849 4.75 19.0078 5.07812V0.28125H21.25V12ZM17.0156 10.1484C17.3854 10.1484 17.7188 10.0651 18.0156 9.89844C18.3177 9.73177 18.5573 9.50521 18.7344 9.21875C18.9167 8.92708 19.0078 8.59635 19.0078 8.22656V7.94531C19.0078 7.57552 18.9167 7.2474 18.7344 6.96094C18.5573 6.67448 18.3177 6.45052 18.0156 6.28906C17.7188 6.1224 17.3854 6.03906 17.0156 6.03906C16.6354 6.03906 16.2943 6.1276 15.9922 6.30469C15.6901 6.48177 15.4505 6.72656 15.2734 7.03906C15.1016 7.34635 15.0156 7.69792 15.0156 8.09375C15.0156 8.48438 15.1016 8.83594 15.2734 9.14844C15.4505 9.45573 15.6901 9.70052 15.9922 9.88281C16.2943 10.0599 16.6354 10.1484 17.0156 10.1484ZM31.2031 12H29.2344L29.1172 10.9375C28.7839 11.3125 28.3828 11.6094 27.9141 11.8281C27.4505 12.0469 26.9427 12.1562 26.3906 12.1562C25.6771 12.1562 25.0391 11.9818 24.4766 11.6328C23.9193 11.2786 23.4792 10.7943 23.1562 10.1797C22.8333 9.5651 22.6719 8.86979 22.6719 8.09375C22.6719 7.3125 22.8333 6.61719 23.1562 6.00781C23.4792 5.39323 23.9193 4.91146 24.4766 4.5625C25.0391 4.20833 25.6771 4.03125 26.3906 4.03125C26.901 4.03125 27.375 4.125 27.8125 4.3125C28.2552 4.49479 28.638 4.75 28.9609 5.07812V0.28125H31.2031V12ZM26.9688 10.1484C27.3385 10.1484 27.6719 10.0651 27.9688 9.89844C28.2708 9.73177 28.5104 9.50521 28.6875 9.21875C28.8698 8.92708 28.9609 8.59635 28.9609 8.22656V7.94531C28.9609 7.57552 28.8698 7.2474 28.6875 6.96094C28.5104 6.67448 28.2708 6.45052 27.9688 6.28906C27.6719 6.1224 27.3385 6.03906 26.9688 6.03906C26.5885 6.03906 26.2474 6.1276 25.9453 6.30469C25.6432 6.48177 25.4036 6.72656 25.2266 7.03906C25.0547 7.34635 24.9688 7.69792 24.9688 8.09375C24.9688 8.48438 25.0547 8.83594 25.2266 9.14844C25.4036 9.45573 25.6432 9.70052 25.9453 9.88281C26.2474 10.0599 26.5885 10.1484 26.9688 10.1484ZM42.1953 11.7969C41.5964 12.0365 41.0156 12.1562 40.4531 12.1562C39.8698 12.1562 39.3542 12.0339 38.9062 11.7891C38.4635 11.5391 38.1172 11.1927 37.8672 10.75C37.6172 10.3021 37.4922 9.78646 37.4922 9.20312V6.1875H36.125V4.1875H37.6094V2.23438H39.7344V4.1875H41.8984V6.1875H39.7344V8.79688C39.7344 9.22396 39.8516 9.55729 40.0859 9.79688C40.3203 10.0312 40.612 10.1484 40.9609 10.1484C41.2786 10.1484 41.5885 10.0495 41.8906 9.85156L42.1953 11.7969ZM47.2109 12.1562C46.4089 12.1562 45.6901 11.9818 45.0547 11.6328C44.4193 11.2786 43.9193 10.7969 43.5547 10.1875C43.1953 9.57292 43.0156 8.875 43.0156 8.09375C43.0156 7.31771 43.1953 6.625 43.5547 6.01562C43.9193 5.40104 44.4193 4.91667 45.0547 4.5625C45.6901 4.20833 46.4089 4.03125 47.2109 4.03125C48.013 4.03125 48.7266 4.20833 49.3516 4.5625C49.9818 4.91667 50.4766 5.40104 50.8359 6.01562C51.2005 6.625 51.3828 7.31771 51.3828 8.09375C51.3828 8.875 51.2005 9.57292 50.8359 10.1875C50.4766 10.7969 49.9818 11.2786 49.3516 11.6328C48.7266 11.9818 48.013 12.1562 47.2109 12.1562ZM47.2031 10.1484C47.5625 10.1484 47.8828 10.0599 48.1641 9.88281C48.4505 9.70052 48.6745 9.45573 48.8359 9.14844C49.0026 8.83594 49.0859 8.47917 49.0859 8.07812C49.0859 7.69271 49.0026 7.34635 48.8359 7.03906C48.6745 6.73177 48.4505 6.48958 48.1641 6.3125C47.8828 6.13021 47.5625 6.03906 47.2031 6.03906C46.8385 6.03906 46.513 6.13021 46.2266 6.3125C45.9453 6.48958 45.7214 6.73177 45.5547 7.03906C45.3932 7.34635 45.3125 7.69271 45.3125 8.07812C45.3125 8.47917 45.3932 8.83594 45.5547 9.14844C45.7214 9.45573 45.9453 9.70052 46.2266 9.88281C46.513 10.0599 46.8385 10.1484 47.2031 10.1484ZM63.3594 10.7578C62.9792 11.1953 62.513 11.5391 61.9609 11.7891C61.4089 12.0339 60.8021 12.1562 60.1406 12.1562C59.3385 12.1562 58.6198 11.9818 57.9844 11.6328C57.3542 11.2786 56.8568 10.7943 56.4922 10.1797C56.1328 9.5651 55.9531 8.86979 55.9531 8.09375C55.9531 7.3125 56.1328 6.61719 56.4922 6.00781C56.8568 5.39323 57.3542 4.91146 57.9844 4.5625C58.6198 4.20833 59.3385 4.03125 60.1406 4.03125C60.7969 4.03125 61.401 4.15365 61.9531 4.39844C62.5052 4.64323 62.9714 4.98177 63.3516 5.41406L62.0312 6.79688C61.8281 6.5625 61.5703 6.38021 61.2578 6.25C60.9505 6.11458 60.6276 6.04688 60.2891 6.04688C59.8984 6.04688 59.5495 6.13542 59.2422 6.3125C58.9349 6.48438 58.6927 6.72396 58.5156 7.03125C58.3385 7.33333 58.25 7.68229 58.25 8.07812C58.25 8.47917 58.3385 8.83594 58.5156 9.14844C58.6927 9.46094 58.9349 9.70573 59.2422 9.88281C59.5495 10.0547 59.8984 10.1406 60.2891 10.1406C60.6276 10.1406 60.9531 10.0755 61.2656 9.94531C61.5781 9.8099 61.8333 9.625 62.0312 9.39062L63.3594 10.7578ZM71.7031 12H69.75L69.6328 11.0703C69.3464 11.4141 68.9922 11.6823 68.5703 11.875C68.1484 12.0625 67.6849 12.1562 67.1797 12.1562C66.6328 12.1562 66.1458 12.0521 65.7188 11.8438C65.2917 11.6302 64.9557 11.3385 64.7109 10.9688C64.4661 10.5938 64.3438 10.1693 64.3438 9.69531C64.3438 9.19531 64.4766 8.75521 64.7422 8.375C65.0078 7.99479 65.3724 7.69792 65.8359 7.48438C66.3047 7.26562 66.8359 7.15625 67.4297 7.15625C67.7786 7.15625 68.1276 7.19531 68.4766 7.27344C68.8307 7.35156 69.1589 7.46094 69.4609 7.60156V7.39844C69.4609 7.08594 69.3724 6.81771 69.1953 6.59375C69.0234 6.36458 68.7839 6.1875 68.4766 6.0625C68.1745 5.9375 67.8359 5.875 67.4609 5.875C67.1016 5.875 66.7448 5.93229 66.3906 6.04688C66.0417 6.16146 65.7188 6.33333 65.4219 6.5625L64.8125 4.85156C65.3385 4.58073 65.8698 4.3776 66.4062 4.24219C66.9479 4.10156 67.4714 4.03125 67.9766 4.03125C68.737 4.03125 69.3958 4.18229 69.9531 4.48438C70.5104 4.78125 70.9401 5.20312 71.2422 5.75C71.5495 6.29167 71.7031 6.9349 71.7031 7.67969V12ZM67.6719 10.4297C67.9688 10.4297 68.2526 10.3646 68.5234 10.2344C68.7943 10.1042 69.013 9.92708 69.1797 9.70312C69.3516 9.47917 69.4427 9.23177 69.4531 8.96094V8.90625C69.224 8.75 68.9688 8.63021 68.6875 8.54688C68.4115 8.45833 68.1302 8.41406 67.8438 8.41406C67.4167 8.41406 67.0677 8.50781 66.7969 8.69531C66.526 8.88281 66.3906 9.125 66.3906 9.42188C66.3906 9.61458 66.4453 9.78906 66.5547 9.94531C66.6693 10.0964 66.8229 10.2161 67.0156 10.3047C67.2083 10.388 67.4271 10.4297 67.6719 10.4297ZM75.6953 12H73.4531V4.1875H75.4062L75.4844 5.53906C75.7448 5.0651 76.099 4.69531 76.5469 4.42969C76.9948 4.16406 77.5078 4.03125 78.0859 4.03125C78.2526 4.03125 78.4193 4.04427 78.5859 4.07031C78.7578 4.09115 78.9323 4.125 79.1094 4.17188L78.8281 6.1875C78.4844 6.08854 78.1589 6.03906 77.8516 6.03906C77.4193 6.03906 77.0391 6.13802 76.7109 6.33594C76.388 6.52865 76.138 6.79948 75.9609 7.14844C75.7839 7.49219 75.6953 7.89583 75.6953 8.35938V12ZM85.6016 11.7969C85.0026 12.0365 84.4219 12.1562 83.8594 12.1562C83.276 12.1562 82.7604 12.0339 82.3125 11.7891C81.8698 11.5391 81.5234 11.1927 81.2734 10.75C81.0234 10.3021 80.8984 9.78646 80.8984 9.20312V6.1875H79.5312V4.1875H81.0156V2.23438H83.1406V4.1875H85.3047V6.1875H83.1406V8.79688C83.1406 9.22396 83.2578 9.55729 83.4922 9.79688C83.7266 10.0312 84.0182 10.1484 84.3672 10.1484C84.6849 10.1484 84.9948 10.0495 85.2969 9.85156L85.6016 11.7969Z" fill="white"/>
</svg>
