<svg width="76" height="13" viewBox="0 0 76 13" fill="none" xmlns="http://www.w3.org/2000/svg">
<path d="M10.4224 10.5938C9.91943 11.1016 9.31885 11.4995 8.62061 11.7876C7.92236 12.0757 7.16064 12.2197 6.33545 12.2197C5.51025 12.2197 4.74854 12.0781 4.05029 11.7949C3.35693 11.5117 2.75391 11.1138 2.24121 10.6011C1.72852 10.0835 1.33057 9.47803 1.04736 8.78467C0.76416 8.08643 0.622559 7.32715 0.622559 6.50684C0.622559 5.68164 0.76416 4.92236 1.04736 4.229C1.33057 3.53076 1.72852 2.92529 2.24121 2.4126C2.75391 1.8999 3.35693 1.50195 4.05029 1.21875C4.74854 0.935547 5.51025 0.793945 6.33545 0.793945C7.15576 0.793945 7.91504 0.937988 8.61328 1.22607C9.31152 1.50928 9.91211 1.90479 10.415 2.4126L9.51416 3.32812C9.12354 2.89355 8.65479 2.5542 8.10791 2.31006C7.56104 2.06104 6.96289 1.93652 6.31348 1.93652C5.68359 1.93652 5.10254 2.05127 4.57031 2.28076C4.03809 2.50537 3.57422 2.8252 3.17871 3.24023C2.78809 3.65039 2.48291 4.13379 2.26318 4.69043C2.04834 5.24707 1.94092 5.85254 1.94092 6.50684C1.94092 7.16602 2.04834 7.77393 2.26318 8.33057C2.48291 8.88232 2.78809 9.36572 3.17871 9.78076C3.57422 10.1909 4.03809 10.5107 4.57031 10.7402C5.10254 10.9648 5.68359 11.0771 6.31348 11.0771C6.96289 11.0771 7.56104 10.9551 8.10791 10.7109C8.65479 10.4619 9.12354 10.1201 9.51416 9.68555L10.4224 10.5938ZM15.4321 12.1465C14.7046 12.1465 14.0503 11.9805 13.4692 11.6484C12.8882 11.3164 12.4292 10.8647 12.0923 10.2935C11.7603 9.71729 11.5942 9.06543 11.5942 8.33789C11.5942 7.61523 11.7603 6.96826 12.0923 6.39697C12.4292 5.8208 12.8882 5.3667 13.4692 5.03467C14.0503 4.69775 14.7046 4.5293 15.4321 4.5293C16.1597 4.5293 16.8115 4.69775 17.3877 5.03467C17.9639 5.3667 18.418 5.8208 18.75 6.39697C19.082 6.96826 19.248 7.61523 19.248 8.33789C19.248 9.06543 19.082 9.71729 18.75 10.2935C18.418 10.8647 17.9639 11.3164 17.3877 11.6484C16.8115 11.9805 16.1597 12.1465 15.4321 12.1465ZM15.4248 11.0625C15.918 11.0625 16.3599 10.9429 16.7505 10.7036C17.1411 10.4644 17.4487 10.1396 17.6733 9.72949C17.9028 9.31934 18.0176 8.85303 18.0176 8.33057C18.0176 7.81787 17.9028 7.35645 17.6733 6.94629C17.4487 6.53613 17.1411 6.21143 16.7505 5.97217C16.3599 5.73291 15.918 5.61328 15.4248 5.61328C14.9316 5.61328 14.4873 5.73291 14.0918 5.97217C13.7012 6.21143 13.3911 6.53613 13.1616 6.94629C12.937 7.35645 12.8247 7.81787 12.8247 8.33057C12.8247 8.85303 12.937 9.31934 13.1616 9.72949C13.3911 10.1396 13.7012 10.4644 14.0918 10.7036C14.4873 10.9429 14.9316 11.0625 15.4248 11.0625ZM22.2144 12H20.9399V0.720703H22.2144V12ZM25.7593 12H24.4849V0.720703H25.7593V12ZM34.4531 11.0991C33.5449 11.7974 32.5439 12.1465 31.4502 12.1465C30.6885 12.1465 30.0049 11.9756 29.3994 11.6338C28.7939 11.292 28.3154 10.8281 27.9639 10.2422C27.6172 9.65137 27.4438 8.98486 27.4438 8.24268C27.4438 7.52979 27.605 6.89502 27.9272 6.33838C28.2495 5.77686 28.6914 5.33496 29.2529 5.0127C29.8145 4.69043 30.4517 4.5293 31.1646 4.5293C31.897 4.5293 32.5415 4.70508 33.0981 5.05664C33.6597 5.4082 34.0967 5.89648 34.4092 6.52148C34.7217 7.14648 34.8779 7.86914 34.8779 8.68945V8.92383H28.7476C28.8354 9.35352 29.0112 9.72705 29.2749 10.0444C29.5435 10.3618 29.8755 10.6084 30.271 10.7842C30.6665 10.96 31.1084 11.0479 31.5967 11.0479C32.4365 11.0479 33.2031 10.772 33.8965 10.2202L34.4531 11.0991ZM28.7036 7.89844H33.7427C33.689 7.44434 33.5474 7.04883 33.3179 6.71191C33.0933 6.37012 32.8003 6.104 32.439 5.91357C32.0825 5.72314 31.6797 5.62793 31.2305 5.62793C30.7764 5.62793 30.3662 5.72314 30 5.91357C29.6387 6.104 29.3433 6.37012 29.1138 6.71191C28.8892 7.04883 28.7524 7.44434 28.7036 7.89844ZM42.6562 10.9453C42.2998 11.3311 41.8774 11.6289 41.3892 11.8389C40.9009 12.0439 40.376 12.1465 39.8145 12.1465C39.0869 12.1465 38.4326 11.9805 37.8516 11.6484C37.2754 11.3164 36.8188 10.8623 36.4819 10.2861C36.1499 9.70996 35.9839 9.06055 35.9839 8.33789C35.9839 7.61035 36.1499 6.96094 36.4819 6.38965C36.8188 5.81348 37.2754 5.35938 37.8516 5.02734C38.4326 4.69531 39.0869 4.5293 39.8145 4.5293C40.3711 4.5293 40.8936 4.63184 41.3818 4.83691C41.8701 5.04199 42.2925 5.3374 42.6489 5.72314L41.9312 6.47754C41.6724 6.2041 41.3623 5.99414 41.001 5.84766C40.6445 5.70117 40.2661 5.62793 39.8657 5.62793C39.353 5.62793 38.8965 5.74512 38.4961 5.97949C38.1006 6.20898 37.7881 6.52637 37.5586 6.93164C37.334 7.33691 37.2217 7.80322 37.2217 8.33057C37.2217 8.85791 37.334 9.32666 37.5586 9.73682C37.7881 10.147 38.1006 10.4692 38.4961 10.7036C38.8965 10.9331 39.353 11.0479 39.8657 11.0479C40.2661 11.0479 40.647 10.9746 41.0083 10.8281C41.3696 10.6768 41.6772 10.4668 41.9312 10.1982L42.6562 10.9453ZM48.5229 11.8242C48.0396 12.0391 47.5684 12.1465 47.1094 12.1465C46.6699 12.1465 46.2842 12.0513 45.9521 11.8608C45.6201 11.6655 45.3613 11.3945 45.1758 11.0479C44.9902 10.6963 44.8975 10.2886 44.8975 9.82471V5.75244H43.6157V4.67578H44.9561V2.84473H46.0986V4.67578H48.2886V5.75244H46.0986V9.60498C46.0986 10.0444 46.2158 10.3984 46.4502 10.667C46.6895 10.9355 47.002 11.0698 47.3877 11.0698C47.7002 11.0698 48.0127 10.9771 48.3252 10.7915L48.5229 11.8242ZM50.5444 2.36133C50.3394 2.36133 50.166 2.29053 50.0244 2.14893C49.8877 2.00244 49.8193 1.82666 49.8193 1.62158C49.8193 1.42139 49.8877 1.25049 50.0244 1.10889C50.166 0.967285 50.3394 0.896484 50.5444 0.896484C50.7544 0.896484 50.9302 0.967285 51.0718 1.10889C51.2134 1.25049 51.2842 1.42139 51.2842 1.62158C51.2842 1.82666 51.2134 2.00244 51.0718 2.14893C50.9302 2.29053 50.7544 2.36133 50.5444 2.36133ZM51.145 12H49.9438V4.67578H51.145V12ZM56.7114 12.1465C55.9839 12.1465 55.3296 11.9805 54.7485 11.6484C54.1675 11.3164 53.7085 10.8647 53.3716 10.2935C53.0396 9.71729 52.8735 9.06543 52.8735 8.33789C52.8735 7.61523 53.0396 6.96826 53.3716 6.39697C53.7085 5.8208 54.1675 5.3667 54.7485 5.03467C55.3296 4.69775 55.9839 4.5293 56.7114 4.5293C57.439 4.5293 58.0908 4.69775 58.667 5.03467C59.2432 5.3667 59.6973 5.8208 60.0293 6.39697C60.3613 6.96826 60.5273 7.61523 60.5273 8.33789C60.5273 9.06543 60.3613 9.71729 60.0293 10.2935C59.6973 10.8647 59.2432 11.3164 58.667 11.6484C58.0908 11.9805 57.439 12.1465 56.7114 12.1465ZM56.7041 11.0625C57.1973 11.0625 57.6392 10.9429 58.0298 10.7036C58.4204 10.4644 58.728 10.1396 58.9526 9.72949C59.1821 9.31934 59.2969 8.85303 59.2969 8.33057C59.2969 7.81787 59.1821 7.35645 58.9526 6.94629C58.728 6.53613 58.4204 6.21143 58.0298 5.97217C57.6392 5.73291 57.1973 5.61328 56.7041 5.61328C56.2109 5.61328 55.7666 5.73291 55.3711 5.97217C54.9805 6.21143 54.6704 6.53613 54.4409 6.94629C54.2163 7.35645 54.104 7.81787 54.104 8.33057C54.104 8.85303 54.2163 9.31934 54.4409 9.72949C54.6704 10.1396 54.9805 10.4644 55.3711 10.7036C55.7666 10.9429 56.2109 11.0625 56.7041 11.0625ZM69.0747 12H67.8735V7.91309C67.8735 7.21973 67.6758 6.66553 67.2803 6.25049C66.8848 5.83545 66.3599 5.62793 65.7056 5.62793C65.0269 5.62793 64.4751 5.85254 64.0503 6.30176C63.6304 6.74609 63.4204 7.33203 63.4204 8.05957V12H62.2192V4.67578H63.2666L63.3105 5.8623C63.5791 5.43262 63.9331 5.10303 64.3726 4.87354C64.812 4.64404 65.3296 4.5293 65.9253 4.5293C66.897 4.5293 67.6636 4.82227 68.2251 5.4082C68.7915 5.99414 69.0747 6.79736 69.0747 7.81787V12ZM70.686 11.3628L71.001 10.2349C71.1768 10.4009 71.377 10.5449 71.6016 10.667C71.8262 10.7891 72.063 10.8843 72.312 10.9526C72.561 11.0161 72.8125 11.0479 73.0664 11.0479C73.5205 11.0479 73.8867 10.9478 74.165 10.7476C74.4434 10.5474 74.5825 10.2861 74.5825 9.96387C74.5825 9.72949 74.5093 9.53662 74.3628 9.38525C74.2212 9.229 74.0332 9.09473 73.7988 8.98242C73.5645 8.87012 73.313 8.7627 73.0444 8.66016C72.7173 8.5332 72.3926 8.38916 72.0703 8.22803C71.748 8.06689 71.4795 7.85449 71.2646 7.59082C71.0547 7.32715 70.9497 6.98047 70.9497 6.55078C70.9497 6.14062 71.0522 5.78418 71.2573 5.48145C71.4624 5.17871 71.748 4.94434 72.1143 4.77832C72.4854 4.6123 72.9102 4.5293 73.3887 4.5293C74.1113 4.5293 74.8218 4.70996 75.52 5.07129L75.1611 6.15527C75.0049 6.05273 74.8242 5.9624 74.6191 5.88428C74.4141 5.80127 74.2041 5.73779 73.9893 5.69385C73.7744 5.6499 73.5718 5.62793 73.3813 5.62793C73.0249 5.62793 72.7368 5.71094 72.5171 5.87695C72.2974 6.03809 72.1875 6.25537 72.1875 6.52881C72.1875 6.68506 72.2314 6.8291 72.3193 6.96094C72.4121 7.08789 72.5659 7.21484 72.7808 7.3418C72.9956 7.46875 73.2935 7.61035 73.6743 7.7666C74.0112 7.90332 74.3433 8.05957 74.6704 8.23535C74.9976 8.40625 75.2686 8.62842 75.4834 8.90186C75.7031 9.17041 75.813 9.52197 75.813 9.95654C75.813 10.3862 75.6982 10.7671 75.4688 11.0991C75.2441 11.4263 74.9292 11.6826 74.5239 11.8682C74.1235 12.0537 73.6597 12.1465 73.1323 12.1465C72.2583 12.1465 71.4429 11.8853 70.686 11.3628Z" fill="#69707D"/>
</svg>
