<svg width="56" height="13" viewBox="0 0 56 13" fill="none" xmlns="http://www.w3.org/2000/svg">
<path d="M10.4224 10.5938C9.91943 11.1016 9.31885 11.4995 8.62061 11.7876C7.92236 12.0757 7.16064 12.2197 6.33545 12.2197C5.51025 12.2197 4.74854 12.0781 4.05029 11.7949C3.35693 11.5117 2.75391 11.1138 2.24121 10.6011C1.72852 10.0835 1.33057 9.47803 1.04736 8.78467C0.76416 8.08643 0.622559 7.32715 0.622559 6.50684C0.622559 5.68164 0.76416 4.92236 1.04736 4.229C1.33057 3.53076 1.72852 2.92529 2.24121 2.4126C2.75391 1.8999 3.35693 1.50195 4.05029 1.21875C4.74854 0.935547 5.51025 0.793945 6.33545 0.793945C7.15576 0.793945 7.91504 0.937988 8.61328 1.22607C9.31152 1.50928 9.91211 1.90479 10.415 2.4126L9.51416 3.32812C9.12354 2.89355 8.65479 2.5542 8.10791 2.31006C7.56104 2.06104 6.96289 1.93652 6.31348 1.93652C5.68359 1.93652 5.10254 2.05127 4.57031 2.28076C4.03809 2.50537 3.57422 2.8252 3.17871 3.24023C2.78809 3.65039 2.48291 4.13379 2.26318 4.69043C2.04834 5.24707 1.94092 5.85254 1.94092 6.50684C1.94092 7.16602 2.04834 7.77393 2.26318 8.33057C2.48291 8.88232 2.78809 9.36572 3.17871 9.78076C3.57422 10.1909 4.03809 10.5107 4.57031 10.7402C5.10254 10.9648 5.68359 11.0771 6.31348 11.0771C6.96289 11.0771 7.56104 10.9551 8.10791 10.7109C8.65479 10.4619 9.12354 10.1201 9.51416 9.68555L10.4224 10.5938ZM15.4321 12.1465C14.7046 12.1465 14.0503 11.9805 13.4692 11.6484C12.8882 11.3164 12.4292 10.8647 12.0923 10.2935C11.7603 9.71729 11.5942 9.06543 11.5942 8.33789C11.5942 7.61523 11.7603 6.96826 12.0923 6.39697C12.4292 5.8208 12.8882 5.3667 13.4692 5.03467C14.0503 4.69775 14.7046 4.5293 15.4321 4.5293C16.1597 4.5293 16.8115 4.69775 17.3877 5.03467C17.9639 5.3667 18.418 5.8208 18.75 6.39697C19.082 6.96826 19.248 7.61523 19.248 8.33789C19.248 9.06543 19.082 9.71729 18.75 10.2935C18.418 10.8647 17.9639 11.3164 17.3877 11.6484C16.8115 11.9805 16.1597 12.1465 15.4321 12.1465ZM15.4248 11.0625C15.918 11.0625 16.3599 10.9429 16.7505 10.7036C17.1411 10.4644 17.4487 10.1396 17.6733 9.72949C17.9028 9.31934 18.0176 8.85303 18.0176 8.33057C18.0176 7.81787 17.9028 7.35645 17.6733 6.94629C17.4487 6.53613 17.1411 6.21143 16.7505 5.97217C16.3599 5.73291 15.918 5.61328 15.4248 5.61328C14.9316 5.61328 14.4873 5.73291 14.0918 5.97217C13.7012 6.21143 13.3911 6.53613 13.1616 6.94629C12.937 7.35645 12.8247 7.81787 12.8247 8.33057C12.8247 8.85303 12.937 9.31934 13.1616 9.72949C13.3911 10.1396 13.7012 10.4644 14.0918 10.7036C14.4873 10.9429 14.9316 11.0625 15.4248 11.0625ZM27.7954 12H26.5942V7.91309C26.5942 7.21973 26.3965 6.66553 26.001 6.25049C25.6055 5.83545 25.0806 5.62793 24.4263 5.62793C23.7476 5.62793 23.1958 5.85254 22.771 6.30176C22.3511 6.74609 22.1411 7.33203 22.1411 8.05957V12H20.9399V4.67578H21.9873L22.0312 5.8623C22.2998 5.43262 22.6538 5.10303 23.0933 4.87354C23.5327 4.64404 24.0503 4.5293 24.646 4.5293C25.6177 4.5293 26.3843 4.82227 26.9458 5.4082C27.5122 5.99414 27.7954 6.79736 27.7954 7.81787V12ZM34.021 11.8242C33.5376 12.0391 33.0664 12.1465 32.6074 12.1465C32.168 12.1465 31.7822 12.0513 31.4502 11.8608C31.1182 11.6655 30.8594 11.3945 30.6738 11.0479C30.4883 10.6963 30.3955 10.2886 30.3955 9.82471V5.75244H29.1138V4.67578H30.4541V2.84473H31.5967V4.67578H33.7866V5.75244H31.5967V9.60498C31.5967 10.0444 31.7139 10.3984 31.9482 10.667C32.1875 10.9355 32.5 11.0698 32.8857 11.0698C33.1982 11.0698 33.5107 10.9771 33.8232 10.7915L34.021 11.8242ZM41.3965 12H40.3638L40.2832 11.0332C40.0146 11.3799 39.6729 11.6533 39.2578 11.8535C38.8428 12.0488 38.3789 12.1465 37.8662 12.1465C37.3389 12.1465 36.8677 12.0439 36.4526 11.8389C36.0376 11.6289 35.7104 11.3433 35.4712 10.9819C35.2368 10.6206 35.1196 10.2104 35.1196 9.75146C35.1196 9.26807 35.2466 8.84326 35.5005 8.47705C35.7593 8.10596 36.1084 7.81543 36.5479 7.60547C36.9922 7.39551 37.4951 7.29053 38.0566 7.29053C38.4229 7.29053 38.7964 7.33691 39.1772 7.42969C39.5581 7.51758 39.8975 7.63965 40.1953 7.7959V7.48828C40.1953 7.09766 40.0977 6.76562 39.9023 6.49219C39.707 6.21387 39.4458 6.00146 39.1187 5.85498C38.7915 5.70361 38.4302 5.62793 38.0347 5.62793C37.6929 5.62793 37.3438 5.69141 36.9873 5.81836C36.6309 5.94043 36.2891 6.13086 35.9619 6.38965L35.5664 5.35693C35.9912 5.0835 36.438 4.87842 36.9067 4.7417C37.3755 4.6001 37.8394 4.5293 38.2983 4.5293C38.9331 4.5293 39.48 4.65869 39.939 4.91748C40.4028 5.17139 40.7617 5.53516 41.0156 6.00879C41.2695 6.47754 41.3965 7.03418 41.3965 7.67871V12ZM38.0786 11.0479C38.4546 11.0479 38.7988 10.9697 39.1113 10.8135C39.4238 10.6572 39.6777 10.4326 39.873 10.1396C40.0684 9.8418 40.1758 9.49023 40.1953 9.08496V8.96045C39.9268 8.75049 39.624 8.58936 39.2871 8.47705C38.9551 8.35986 38.6157 8.30127 38.269 8.30127C37.7271 8.30127 37.2729 8.43311 36.9067 8.69678C36.5454 8.96045 36.3647 9.29492 36.3647 9.7002C36.3647 9.9541 36.438 10.1836 36.5845 10.3887C36.7358 10.5938 36.9409 10.7549 37.1997 10.8721C37.4585 10.9893 37.7515 11.0479 38.0786 11.0479ZM49.6143 10.9453C49.2578 11.3311 48.8354 11.6289 48.3472 11.8389C47.8589 12.0439 47.334 12.1465 46.7725 12.1465C46.0449 12.1465 45.3906 11.9805 44.8096 11.6484C44.2334 11.3164 43.7769 10.8623 43.4399 10.2861C43.1079 9.70996 42.9419 9.06055 42.9419 8.33789C42.9419 7.61035 43.1079 6.96094 43.4399 6.38965C43.7769 5.81348 44.2334 5.35938 44.8096 5.02734C45.3906 4.69531 46.0449 4.5293 46.7725 4.5293C47.3291 4.5293 47.8516 4.63184 48.3398 4.83691C48.8281 5.04199 49.2505 5.3374 49.6069 5.72314L48.8892 6.47754C48.6304 6.2041 48.3203 5.99414 47.959 5.84766C47.6025 5.70117 47.2241 5.62793 46.8237 5.62793C46.311 5.62793 45.8545 5.74512 45.4541 5.97949C45.0586 6.20898 44.7461 6.52637 44.5166 6.93164C44.292 7.33691 44.1797 7.80322 44.1797 8.33057C44.1797 8.85791 44.292 9.32666 44.5166 9.73682C44.7461 10.147 45.0586 10.4692 45.4541 10.7036C45.8545 10.9331 46.311 11.0479 46.8237 11.0479C47.2241 11.0479 47.605 10.9746 47.9663 10.8281C48.3276 10.6768 48.6353 10.4668 48.8892 10.1982L49.6143 10.9453ZM55.481 11.8242C54.9976 12.0391 54.5264 12.1465 54.0674 12.1465C53.6279 12.1465 53.2422 12.0513 52.9102 11.8608C52.5781 11.6655 52.3193 11.3945 52.1338 11.0479C51.9482 10.6963 51.8555 10.2886 51.8555 9.82471V5.75244H50.5737V4.67578H51.9141V2.84473H53.0566V4.67578H55.2466V5.75244H53.0566V9.60498C53.0566 10.0444 53.1738 10.3984 53.4082 10.667C53.6475 10.9355 53.96 11.0698 54.3457 11.0698C54.6582 11.0698 54.9707 10.9771 55.2832 10.7915L55.481 11.8242Z" fill="#69707D"/>
</svg>
