<svg width="393" height="83" viewBox="0 0 393 83" fill="none" xmlns="http://www.w3.org/2000/svg">
<path d="M1.62109 34V1.77344H21.7734V7.55273H8.23828V14.8789H20.8926V20.6797H8.23828V34H1.62109ZM44.4609 34H39.0898L38.7676 31.4434C37.9798 32.3887 37.0059 33.1263 35.8457 33.6562C34.6855 34.1719 33.4108 34.4297 32.0215 34.4297C30.5176 34.4297 29.1784 34.1432 28.0039 33.5703C26.8294 32.9831 25.9056 32.181 25.2324 31.1641C24.5592 30.1328 24.2227 28.9655 24.2227 27.6621C24.2227 26.2871 24.5879 25.0768 25.3184 24.0312C26.0488 22.9857 27.0514 22.1693 28.3262 21.582C29.6152 20.9805 31.0762 20.6797 32.709 20.6797C33.6686 20.6797 34.6283 20.7871 35.5879 21.002C36.5618 21.2168 37.4642 21.5176 38.2949 21.9043V21.3457C38.2949 20.4863 38.0514 19.7487 37.5645 19.1328C37.0918 18.5026 36.4329 18.0156 35.5879 17.6719C34.7572 17.3281 33.8262 17.1562 32.7949 17.1562C31.8066 17.1562 30.8255 17.3138 29.8516 17.6289C28.8919 17.944 28.0039 18.4167 27.1875 19.0469L25.5117 14.3418C26.9583 13.597 28.4193 13.0384 29.8945 12.666C31.3841 12.2793 32.8236 12.0859 34.2129 12.0859C36.304 12.0859 38.1159 12.5013 39.6484 13.332C41.181 14.1484 42.3626 15.3086 43.1934 16.8125C44.0384 18.3021 44.4609 20.071 44.4609 22.1191V34ZM33.375 29.6816C34.1914 29.6816 34.972 29.5026 35.7168 29.1445C36.4616 28.7865 37.0632 28.2995 37.5215 27.6836C37.9941 27.0677 38.2448 26.3874 38.2734 25.6426V25.4922C37.6432 25.0625 36.9414 24.7331 36.168 24.5039C35.4089 24.2604 34.6354 24.1387 33.8477 24.1387C32.6732 24.1387 31.7135 24.3965 30.9688 24.9121C30.224 25.4277 29.8516 26.0938 29.8516 26.9102C29.8516 27.4401 30.002 27.9199 30.3027 28.3496C30.6178 28.765 31.0404 29.0944 31.5703 29.3379C32.1003 29.5671 32.7018 29.6816 33.375 29.6816ZM55.8691 34H49.2734V0.914062H55.8691V34ZM67.7285 34H61.1328V0.914062H67.7285V34ZM104.016 34H82.9609V1.77344H89.5781V28.2207H104.016V34ZM110.654 7.38086C109.838 7.38086 109.15 7.0944 108.592 6.52148C108.033 5.94857 107.754 5.25391 107.754 4.4375C107.754 3.62109 108.033 2.93359 108.592 2.375C109.15 1.80208 109.838 1.51562 110.654 1.51562C111.485 1.51562 112.18 1.80208 112.738 2.375C113.311 2.93359 113.598 3.62109 113.598 4.4375C113.598 5.25391 113.311 5.94857 112.738 6.52148C112.18 7.0944 111.485 7.38086 110.654 7.38086ZM113.748 34H107.582V12.5156H113.748V34ZM154.01 34H147.844V23.2148C147.844 21.4245 147.493 20.0423 146.791 19.0684C146.089 18.0944 145.094 17.6074 143.805 17.6074C142.487 17.6074 141.456 18.1016 140.711 19.0898C139.98 20.0781 139.615 21.4531 139.615 23.2148V34H133.449V23.2148C133.449 21.4245 133.098 20.0423 132.396 19.0684C131.695 18.0944 130.692 17.6074 129.389 17.6074C128.085 17.6074 127.061 18.1016 126.316 19.0898C125.586 20.0781 125.221 21.4531 125.221 23.2148V34H119.055V12.5156H123.975L124.189 16.0605C124.906 14.7572 125.865 13.7689 127.068 13.0957C128.286 12.4225 129.697 12.0859 131.301 12.0859C132.977 12.0859 134.423 12.4368 135.641 13.1387C136.858 13.8405 137.796 14.8503 138.455 16.168C139.186 14.8359 140.152 13.8262 141.355 13.1387C142.573 12.4368 144.012 12.0859 145.674 12.0859C148.295 12.0859 150.336 12.9238 151.797 14.5996C153.272 16.2611 154.01 18.5885 154.01 21.582V34ZM161.959 7.38086C161.143 7.38086 160.455 7.0944 159.896 6.52148C159.338 5.94857 159.059 5.25391 159.059 4.4375C159.059 3.62109 159.338 2.93359 159.896 2.375C160.455 1.80208 161.143 1.51562 161.959 1.51562C162.79 1.51562 163.484 1.80208 164.043 2.375C164.616 2.93359 164.902 3.62109 164.902 4.4375C164.902 5.25391 164.616 5.94857 164.043 6.52148C163.484 7.0944 162.79 7.38086 161.959 7.38086ZM165.053 34H158.887V12.5156H165.053V34ZM185.377 33.4414C183.73 34.1003 182.133 34.4297 180.586 34.4297C178.982 34.4297 177.564 34.0931 176.332 33.4199C175.115 32.7324 174.162 31.7799 173.475 30.5625C172.787 29.3307 172.443 27.9128 172.443 26.3086V18.0156H168.684V12.5156H172.766V7.14453H178.609V12.5156H184.561V18.0156H178.609V25.1914C178.609 26.3659 178.932 27.2826 179.576 27.9414C180.221 28.5859 181.023 28.9082 181.982 28.9082C182.856 28.9082 183.708 28.6361 184.539 28.0918L185.377 33.4414ZM208.752 31.5938C206.088 33.4844 203.173 34.4297 200.008 34.4297C197.659 34.4297 195.546 33.9284 193.67 32.9258C191.808 31.9089 190.333 30.5339 189.244 28.8008C188.17 27.0677 187.633 25.1126 187.633 22.9355C187.633 20.8587 188.12 19.0039 189.094 17.3711C190.082 15.7383 191.421 14.4492 193.111 13.5039C194.801 12.5586 196.721 12.0859 198.869 12.0859C201.089 12.0859 203.044 12.6087 204.734 13.6543C206.424 14.6855 207.742 16.1322 208.688 17.9941C209.633 19.8418 210.105 21.9831 210.105 24.418V25.1055H194.271C194.529 25.9505 194.952 26.6953 195.539 27.3398C196.126 27.9701 196.857 28.4714 197.73 28.8438C198.604 29.2161 199.607 29.4023 200.738 29.4023C202.93 29.4023 204.971 28.6934 206.861 27.2754L208.752 31.5938ZM193.992 21.9688H204.412C204.298 21.0378 204.004 20.2214 203.531 19.5195C203.073 18.8034 202.464 18.2448 201.705 17.8438C200.96 17.4427 200.122 17.2422 199.191 17.2422C198.246 17.2422 197.401 17.4499 196.656 17.8652C195.926 18.2806 195.331 18.8392 194.873 19.541C194.415 20.2428 194.121 21.0521 193.992 21.9688ZM236.145 34H230.73L230.408 31.0781C229.492 32.1094 228.389 32.9258 227.1 33.5273C225.825 34.1289 224.428 34.4297 222.91 34.4297C220.948 34.4297 219.193 33.9499 217.646 32.9902C216.114 32.0163 214.904 30.6842 214.016 28.9941C213.128 27.304 212.684 25.3919 212.684 23.2578C212.684 21.1094 213.128 19.1973 214.016 17.5215C214.904 15.8314 216.114 14.5065 217.646 13.5469C219.193 12.5729 220.948 12.0859 222.91 12.0859C224.314 12.0859 225.617 12.3438 226.82 12.8594C228.038 13.3607 229.09 14.0625 229.979 14.9648V1.77344H236.145V34ZM224.5 28.9082C225.517 28.9082 226.434 28.679 227.25 28.2207C228.081 27.7624 228.74 27.1393 229.227 26.3516C229.728 25.5495 229.979 24.64 229.979 23.623V22.8496C229.979 21.8327 229.728 20.9303 229.227 20.1426C228.74 19.3548 228.081 18.7389 227.25 18.2949C226.434 17.8366 225.517 17.6074 224.5 17.6074C223.454 17.6074 222.516 17.8509 221.686 18.3379C220.855 18.8249 220.196 19.498 219.709 20.3574C219.236 21.2025 219 22.1693 219 23.2578C219 24.332 219.236 25.2988 219.709 26.1582C220.196 27.0033 220.855 27.6764 221.686 28.1777C222.516 28.6647 223.454 28.9082 224.5 28.9082ZM251.355 34V1.77344H272.152V7.55273H257.973V14.8789H271.271V20.6797H257.973V28.2207H272.367V34H251.355ZM299.094 34H293.68L293.357 31.0781C292.441 32.1094 291.338 32.9258 290.049 33.5273C288.774 34.1289 287.378 34.4297 285.859 34.4297C283.897 34.4297 282.143 33.9499 280.596 32.9902C279.063 32.0163 277.853 30.6842 276.965 28.9941C276.077 27.304 275.633 25.3919 275.633 23.2578C275.633 21.1094 276.077 19.1973 276.965 17.5215C277.853 15.8314 279.063 14.5065 280.596 13.5469C282.143 12.5729 283.897 12.0859 285.859 12.0859C287.263 12.0859 288.566 12.3438 289.77 12.8594C290.987 13.3607 292.04 14.0625 292.928 14.9648V1.77344H299.094V34ZM287.449 28.9082C288.466 28.9082 289.383 28.679 290.199 28.2207C291.03 27.7624 291.689 27.1393 292.176 26.3516C292.677 25.5495 292.928 24.64 292.928 23.623V22.8496C292.928 21.8327 292.677 20.9303 292.176 20.1426C291.689 19.3548 291.03 18.7389 290.199 18.2949C289.383 17.8366 288.466 17.6074 287.449 17.6074C286.404 17.6074 285.465 17.8509 284.635 18.3379C283.804 18.8249 283.145 19.498 282.658 20.3574C282.186 21.2025 281.949 22.1693 281.949 23.2578C281.949 24.332 282.186 25.2988 282.658 26.1582C283.145 27.0033 283.804 27.6764 284.635 28.1777C285.465 28.6647 286.404 28.9082 287.449 28.9082ZM307.451 7.38086C306.635 7.38086 305.947 7.0944 305.389 6.52148C304.83 5.94857 304.551 5.25391 304.551 4.4375C304.551 3.62109 304.83 2.93359 305.389 2.375C305.947 1.80208 306.635 1.51562 307.451 1.51562C308.282 1.51562 308.977 1.80208 309.535 2.375C310.108 2.93359 310.395 3.62109 310.395 4.4375C310.395 5.25391 310.108 5.94857 309.535 6.52148C308.977 7.0944 308.282 7.38086 307.451 7.38086ZM310.545 34H304.379V12.5156H310.545V34ZM330.869 33.4414C329.222 34.1003 327.625 34.4297 326.078 34.4297C324.474 34.4297 323.056 34.0931 321.824 33.4199C320.607 32.7324 319.654 31.7799 318.967 30.5625C318.279 29.3307 317.936 27.9128 317.936 26.3086V18.0156H314.176V12.5156H318.258V7.14453H324.102V12.5156H330.053V18.0156H324.102V25.1914C324.102 26.3659 324.424 27.2826 325.068 27.9414C325.713 28.5859 326.515 28.9082 327.475 28.9082C328.348 28.9082 329.201 28.6361 330.031 28.0918L330.869 33.4414ZM336.928 7.38086C336.111 7.38086 335.424 7.0944 334.865 6.52148C334.307 5.94857 334.027 5.25391 334.027 4.4375C334.027 3.62109 334.307 2.93359 334.865 2.375C335.424 1.80208 336.111 1.51562 336.928 1.51562C337.758 1.51562 338.453 1.80208 339.012 2.375C339.585 2.93359 339.871 3.62109 339.871 4.4375C339.871 5.25391 339.585 5.94857 339.012 6.52148C338.453 7.0944 337.758 7.38086 336.928 7.38086ZM340.021 34H333.855V12.5156H340.021V34ZM355.533 34.4297C353.327 34.4297 351.351 33.9499 349.604 32.9902C347.856 32.0163 346.481 30.6914 345.479 29.0156C344.49 27.3255 343.996 25.4062 343.996 23.2578C343.996 21.1237 344.49 19.2188 345.479 17.543C346.481 15.8529 347.856 14.5208 349.604 13.5469C351.351 12.5729 353.327 12.0859 355.533 12.0859C357.739 12.0859 359.701 12.5729 361.42 13.5469C363.153 14.5208 364.514 15.8529 365.502 17.543C366.505 19.2188 367.006 21.1237 367.006 23.2578C367.006 25.4062 366.505 27.3255 365.502 29.0156C364.514 30.6914 363.153 32.0163 361.42 32.9902C359.701 33.9499 357.739 34.4297 355.533 34.4297ZM355.512 28.9082C356.5 28.9082 357.381 28.6647 358.154 28.1777C358.942 27.6764 359.558 27.0033 360.002 26.1582C360.46 25.2988 360.689 24.3177 360.689 23.2148C360.689 22.1549 360.46 21.2025 360.002 20.3574C359.558 19.5124 358.942 18.8464 358.154 18.3594C357.381 17.8581 356.5 17.6074 355.512 17.6074C354.509 17.6074 353.614 17.8581 352.826 18.3594C352.053 18.8464 351.437 19.5124 350.979 20.3574C350.535 21.2025 350.312 22.1549 350.312 23.2148C350.312 24.3177 350.535 25.2988 350.979 26.1582C351.437 27.0033 352.053 27.6764 352.826 28.1777C353.614 28.6647 354.509 28.9082 355.512 28.9082ZM392.379 34H386.213V23C386.213 21.3242 385.812 20.0137 385.01 19.0684C384.222 18.1087 383.141 17.6289 381.766 17.6289C380.333 17.6289 379.195 18.1302 378.35 19.1328C377.519 20.1211 377.104 21.4674 377.104 23.1719V34H370.938V12.5156H375.922L376.137 15.9531C376.91 14.6927 377.92 13.7331 379.166 13.0742C380.412 12.4154 381.88 12.0859 383.57 12.0859C386.306 12.0859 388.454 12.931 390.016 14.6211C391.591 16.2969 392.379 18.6172 392.379 21.582V34ZM0.117188 78.5195L3.25391 73.4707C4.24219 74.2728 5.19466 74.9316 6.11133 75.4473C7.04232 75.9486 7.95898 76.321 8.86133 76.5645C9.76367 76.7936 10.6875 76.9082 11.6328 76.9082C12.75 76.9082 13.7168 76.7507 14.5332 76.4355C15.3496 76.1204 15.9798 75.6693 16.4238 75.082C16.8822 74.4948 17.1113 73.8145 17.1113 73.041C17.1113 72.1387 16.8249 71.3796 16.252 70.7637C15.679 70.1478 14.9271 69.6107 13.9961 69.1523C13.0794 68.6797 12.084 68.2285 11.0098 67.7988C9.96419 67.3691 8.91146 66.9036 7.85156 66.4023C6.80599 65.8867 5.83919 65.278 4.95117 64.5762C4.07747 63.8743 3.36849 63.0221 2.82422 62.0195C2.29427 61.0026 2.0293 59.7708 2.0293 58.3242C2.0293 56.4336 2.50195 54.8008 3.44727 53.4258C4.4069 52.0508 5.71745 50.9909 7.37891 50.2461C9.04036 49.5013 10.9382 49.1289 13.0723 49.1289C14.5762 49.1289 16.1374 49.3294 17.7559 49.7305C19.3887 50.1315 21.0143 50.7402 22.6328 51.5566L20.0332 56.9062C19.0163 56.2904 17.9206 55.8034 16.7461 55.4453C15.5716 55.0872 14.4688 54.9082 13.4375 54.9082C12.5065 54.9082 11.6901 55.0514 10.9883 55.3379C10.3008 55.6243 9.76367 56.0254 9.37695 56.541C8.99023 57.0423 8.79688 57.6367 8.79688 58.3242C8.79688 59.1406 9.07617 59.8496 9.63477 60.4512C10.1934 61.0384 10.9167 61.5612 11.8047 62.0195C12.707 62.4779 13.6738 62.9362 14.7051 63.3945C15.765 63.8529 16.832 64.3542 17.9062 64.8984C18.9948 65.4427 19.9831 66.0872 20.8711 66.832C21.7734 67.5625 22.4967 68.4434 23.041 69.4746C23.5996 70.4915 23.8789 71.7161 23.8789 73.1484C23.8789 75.0391 23.3776 76.7005 22.375 78.1328C21.3724 79.5508 19.9759 80.6608 18.1855 81.4629C16.3952 82.2507 14.3112 82.6445 11.9336 82.6445C9.75651 82.6445 7.67253 82.2936 5.68164 81.5918C3.69076 80.89 1.83594 79.8659 0.117188 78.5195ZM49.4883 82H43.3223V71C43.3223 69.3242 42.9212 68.0137 42.1191 67.0684C41.3314 66.1087 40.25 65.6289 38.875 65.6289C37.4427 65.6289 36.304 66.1302 35.459 67.1328C34.6283 68.1211 34.2129 69.4674 34.2129 71.1719V82H28.0469V60.5156H33.0312L33.2461 63.9531C34.0195 62.6927 35.0293 61.7331 36.2754 61.0742C37.5215 60.4154 38.9896 60.0859 40.6797 60.0859C43.4154 60.0859 45.5638 60.931 47.125 62.6211C48.7005 64.2969 49.4883 66.6172 49.4883 69.582V82ZM74.0879 79.5938C71.4238 81.4844 68.5091 82.4297 65.3438 82.4297C62.9948 82.4297 60.8822 81.9284 59.0059 80.9258C57.1439 79.9089 55.6686 78.5339 54.5801 76.8008C53.5059 75.0677 52.9688 73.1126 52.9688 70.9355C52.9688 68.8587 53.4557 67.0039 54.4297 65.3711C55.418 63.7383 56.7572 62.4492 58.4473 61.5039C60.1374 60.5586 62.0566 60.0859 64.2051 60.0859C66.4251 60.0859 68.3802 60.6087 70.0703 61.6543C71.7604 62.6855 73.0781 64.1322 74.0234 65.9941C74.9688 67.8418 75.4414 69.9831 75.4414 72.418V73.1055H59.6074C59.8652 73.9505 60.2878 74.6953 60.875 75.3398C61.4622 75.9701 62.1927 76.4714 63.0664 76.8438C63.9401 77.2161 64.9427 77.4023 66.0742 77.4023C68.2656 77.4023 70.3066 76.6934 72.1973 75.2754L74.0879 79.5938ZM59.3281 69.9688H69.748C69.6335 69.0378 69.3398 68.2214 68.8672 67.5195C68.4089 66.8034 67.8001 66.2448 67.041 65.8438C66.2962 65.4427 65.4583 65.2422 64.5273 65.2422C63.582 65.2422 62.737 65.4499 61.9922 65.8652C61.2617 66.2806 60.6673 66.8392 60.209 67.541C59.7507 68.2428 59.457 69.0521 59.3281 69.9688ZM98.5156 82H93.1445L92.8223 79.4434C92.0345 80.3887 91.0605 81.1263 89.9004 81.6562C88.7402 82.1719 87.4655 82.4297 86.0762 82.4297C84.5723 82.4297 83.2331 82.1432 82.0586 81.5703C80.8841 80.9831 79.9603 80.181 79.2871 79.1641C78.6139 78.1328 78.2773 76.9655 78.2773 75.6621C78.2773 74.2871 78.6426 73.0768 79.373 72.0312C80.1035 70.9857 81.1061 70.1693 82.3809 69.582C83.6699 68.9805 85.1309 68.6797 86.7637 68.6797C87.7233 68.6797 88.6829 68.7871 89.6426 69.002C90.6165 69.2168 91.5189 69.5176 92.3496 69.9043V69.3457C92.3496 68.4863 92.1061 67.7487 91.6191 67.1328C91.1465 66.5026 90.4876 66.0156 89.6426 65.6719C88.8118 65.3281 87.8809 65.1562 86.8496 65.1562C85.8613 65.1562 84.8802 65.3138 83.9062 65.6289C82.9466 65.944 82.0586 66.4167 81.2422 67.0469L79.5664 62.3418C81.013 61.597 82.474 61.0384 83.9492 60.666C85.4388 60.2793 86.8783 60.0859 88.2676 60.0859C90.3587 60.0859 92.1706 60.5013 93.7031 61.332C95.2357 62.1484 96.4173 63.3086 97.248 64.8125C98.0931 66.3021 98.5156 68.071 98.5156 70.1191V82ZM87.4297 77.6816C88.2461 77.6816 89.0267 77.5026 89.7715 77.1445C90.5163 76.7865 91.1178 76.2995 91.5762 75.6836C92.0488 75.0677 92.2995 74.3874 92.3281 73.6426V73.4922C91.6979 73.0625 90.9961 72.7331 90.2227 72.5039C89.4635 72.2604 88.6901 72.1387 87.9023 72.1387C86.7279 72.1387 85.7682 72.3965 85.0234 72.9121C84.2786 73.4277 83.9062 74.0938 83.9062 74.9102C83.9062 75.4401 84.0566 75.9199 84.3574 76.3496C84.6725 76.765 85.0951 77.0944 85.625 77.3379C86.1549 77.5671 86.7565 77.6816 87.4297 77.6816ZM109.494 82H103.328V49.7734H109.494V69.582L111.6 67.0469L117.787 60.5156H125.5L116.412 70.0762L126.574 82H118.604L112.18 73.9434L109.494 76.3926V82ZM149.068 79.5938C146.404 81.4844 143.49 82.4297 140.324 82.4297C137.975 82.4297 135.863 81.9284 133.986 80.9258C132.124 79.9089 130.649 78.5339 129.561 76.8008C128.486 75.0677 127.949 73.1126 127.949 70.9355C127.949 68.8587 128.436 67.0039 129.41 65.3711C130.398 63.7383 131.738 62.4492 133.428 61.5039C135.118 60.5586 137.037 60.0859 139.186 60.0859C141.406 60.0859 143.361 60.6087 145.051 61.6543C146.741 62.6855 148.059 64.1322 149.004 65.9941C149.949 67.8418 150.422 69.9831 150.422 72.418V73.1055H134.588C134.846 73.9505 135.268 74.6953 135.855 75.3398C136.443 75.9701 137.173 76.4714 138.047 76.8438C138.921 77.2161 139.923 77.4023 141.055 77.4023C143.246 77.4023 145.287 76.6934 147.178 75.2754L149.068 79.5938ZM134.309 69.9688H144.729C144.614 69.0378 144.32 68.2214 143.848 67.5195C143.389 66.8034 142.781 66.2448 142.021 65.8438C141.277 65.4427 140.439 65.2422 139.508 65.2422C138.562 65.2422 137.717 65.4499 136.973 65.8652C136.242 66.2806 135.648 66.8392 135.189 67.541C134.731 68.2428 134.438 69.0521 134.309 69.9688ZM160.498 82H154.332V60.5156H159.703L159.918 64.2324C160.634 62.929 161.608 61.9121 162.84 61.1816C164.072 60.4512 165.482 60.0859 167.072 60.0859C167.531 60.0859 167.989 60.1217 168.447 60.1934C168.92 60.2507 169.4 60.3438 169.887 60.4727L169.113 66.0156C168.168 65.7435 167.273 65.6074 166.428 65.6074C165.239 65.6074 164.193 65.8796 163.291 66.4238C162.403 66.9538 161.715 67.6986 161.229 68.6582C160.742 69.6035 160.498 70.7135 160.498 71.9883V82ZM171.219 80.1523L172.572 74.9102C173.002 75.3828 173.575 75.8197 174.291 76.2207C175.021 76.6217 175.802 76.944 176.633 77.1875C177.478 77.4167 178.273 77.5312 179.018 77.5312C179.906 77.5312 180.6 77.3665 181.102 77.0371C181.603 76.6934 181.854 76.235 181.854 75.6621C181.854 75.1895 181.682 74.7956 181.338 74.4805C181.008 74.151 180.557 73.8646 179.984 73.6211C179.426 73.3633 178.803 73.1126 178.115 72.8691C177.184 72.5111 176.225 72.0957 175.236 71.623C174.262 71.1504 173.439 70.5059 172.766 69.6895C172.092 68.873 171.756 67.7917 171.756 66.4453C171.756 65.1562 172.092 64.0391 172.766 63.0938C173.439 62.1341 174.391 61.3965 175.623 60.8809C176.855 60.3509 178.287 60.0859 179.92 60.0859C182.57 60.0859 185.212 60.752 187.848 62.084L186.107 66.9609C185.649 66.6029 185.076 66.2734 184.389 65.9727C183.701 65.6576 182.992 65.4069 182.262 65.2207C181.546 65.0345 180.901 64.9414 180.328 64.9414C179.626 64.9414 179.075 65.0846 178.674 65.3711C178.287 65.6576 178.094 66.0514 178.094 66.5527C178.094 66.9251 178.23 67.2617 178.502 67.5625C178.774 67.849 179.175 68.1283 179.705 68.4004C180.249 68.6582 180.915 68.9375 181.703 69.2383C182.677 69.5964 183.658 70.026 184.646 70.5273C185.649 71.0143 186.487 71.6732 187.16 72.5039C187.848 73.3203 188.191 74.4089 188.191 75.7695C188.191 77.1016 187.826 78.2689 187.096 79.2715C186.38 80.2741 185.363 81.0547 184.045 81.6133C182.742 82.1576 181.209 82.4297 179.447 82.4297C176.511 82.4297 173.768 81.6706 171.219 80.1523Z" fill="#1D2026"/>
</svg>
