<svg width="397" height="26" viewBox="0 0 397 26" fill="none" xmlns="http://www.w3.org/2000/svg">
<path d="M10.4224 16.5938C9.91943 17.1016 9.31885 17.4995 8.62061 17.7876C7.92236 18.0757 7.16064 18.2197 6.33545 18.2197C5.51025 18.2197 4.74854 18.0781 4.05029 17.7949C3.35693 17.5117 2.75391 17.1138 2.24121 16.6011C1.72852 16.0835 1.33057 15.478 1.04736 14.7847C0.76416 14.0864 0.622559 13.3271 0.622559 12.5068C0.622559 11.6816 0.76416 10.9224 1.04736 10.229C1.33057 9.53076 1.72852 8.92529 2.24121 8.4126C2.75391 7.8999 3.35693 7.50195 4.05029 7.21875C4.74854 6.93555 5.51025 6.79395 6.33545 6.79395C7.15576 6.79395 7.91504 6.93799 8.61328 7.22607C9.31152 7.50928 9.91211 7.90479 10.415 8.4126L9.51416 9.32812C9.12354 8.89355 8.65479 8.5542 8.10791 8.31006C7.56104 8.06104 6.96289 7.93652 6.31348 7.93652C5.68359 7.93652 5.10254 8.05127 4.57031 8.28076C4.03809 8.50537 3.57422 8.8252 3.17871 9.24023C2.78809 9.65039 2.48291 10.1338 2.26318 10.6904C2.04834 11.2471 1.94092 11.8525 1.94092 12.5068C1.94092 13.166 2.04834 13.7739 2.26318 14.3306C2.48291 14.8823 2.78809 15.3657 3.17871 15.7808C3.57422 16.1909 4.03809 16.5107 4.57031 16.7402C5.10254 16.9648 5.68359 17.0771 6.31348 17.0771C6.96289 17.0771 7.56104 16.9551 8.10791 16.7109C8.65479 16.4619 9.12354 16.1201 9.51416 15.6855L10.4224 16.5938ZM15.4321 18.1465C14.7046 18.1465 14.0503 17.9805 13.4692 17.6484C12.8882 17.3164 12.4292 16.8647 12.0923 16.2935C11.7603 15.7173 11.5942 15.0654 11.5942 14.3379C11.5942 13.6152 11.7603 12.9683 12.0923 12.397C12.4292 11.8208 12.8882 11.3667 13.4692 11.0347C14.0503 10.6978 14.7046 10.5293 15.4321 10.5293C16.1597 10.5293 16.8115 10.6978 17.3877 11.0347C17.9639 11.3667 18.418 11.8208 18.75 12.397C19.082 12.9683 19.248 13.6152 19.248 14.3379C19.248 15.0654 19.082 15.7173 18.75 16.2935C18.418 16.8647 17.9639 17.3164 17.3877 17.6484C16.8115 17.9805 16.1597 18.1465 15.4321 18.1465ZM15.4248 17.0625C15.918 17.0625 16.3599 16.9429 16.7505 16.7036C17.1411 16.4644 17.4487 16.1396 17.6733 15.7295C17.9028 15.3193 18.0176 14.853 18.0176 14.3306C18.0176 13.8179 17.9028 13.3564 17.6733 12.9463C17.4487 12.5361 17.1411 12.2114 16.7505 11.9722C16.3599 11.7329 15.918 11.6133 15.4248 11.6133C14.9316 11.6133 14.4873 11.7329 14.0918 11.9722C13.7012 12.2114 13.3911 12.5361 13.1616 12.9463C12.937 13.3564 12.8247 13.8179 12.8247 14.3306C12.8247 14.853 12.937 15.3193 13.1616 15.7295C13.3911 16.1396 13.7012 16.4644 14.0918 16.7036C14.4873 16.9429 14.9316 17.0625 15.4248 17.0625ZM22.2144 18H20.9399V6.7207H22.2144V18ZM25.7593 18H24.4849V6.7207H25.7593V18ZM34.4531 17.0991C33.5449 17.7974 32.5439 18.1465 31.4502 18.1465C30.6885 18.1465 30.0049 17.9756 29.3994 17.6338C28.7939 17.292 28.3154 16.8281 27.9639 16.2422C27.6172 15.6514 27.4438 14.9849 27.4438 14.2427C27.4438 13.5298 27.605 12.895 27.9272 12.3384C28.2495 11.7769 28.6914 11.335 29.2529 11.0127C29.8145 10.6904 30.4517 10.5293 31.1646 10.5293C31.897 10.5293 32.5415 10.7051 33.0981 11.0566C33.6597 11.4082 34.0967 11.8965 34.4092 12.5215C34.7217 13.1465 34.8779 13.8691 34.8779 14.6895V14.9238H28.7476C28.8354 15.3535 29.0112 15.7271 29.2749 16.0444C29.5435 16.3618 29.8755 16.6084 30.271 16.7842C30.6665 16.96 31.1084 17.0479 31.5967 17.0479C32.4365 17.0479 33.2031 16.772 33.8965 16.2202L34.4531 17.0991ZM28.7036 13.8984H33.7427C33.689 13.4443 33.5474 13.0488 33.3179 12.7119C33.0933 12.3701 32.8003 12.104 32.439 11.9136C32.0825 11.7231 31.6797 11.6279 31.2305 11.6279C30.7764 11.6279 30.3662 11.7231 30 11.9136C29.6387 12.104 29.3433 12.3701 29.1138 12.7119C28.8892 13.0488 28.7524 13.4443 28.7036 13.8984ZM42.6562 16.9453C42.2998 17.3311 41.8774 17.6289 41.3892 17.8389C40.9009 18.0439 40.376 18.1465 39.8145 18.1465C39.0869 18.1465 38.4326 17.9805 37.8516 17.6484C37.2754 17.3164 36.8188 16.8623 36.4819 16.2861C36.1499 15.71 35.9839 15.0605 35.9839 14.3379C35.9839 13.6104 36.1499 12.9609 36.4819 12.3896C36.8188 11.8135 37.2754 11.3594 37.8516 11.0273C38.4326 10.6953 39.0869 10.5293 39.8145 10.5293C40.3711 10.5293 40.8936 10.6318 41.3818 10.8369C41.8701 11.042 42.2925 11.3374 42.6489 11.7231L41.9312 12.4775C41.6724 12.2041 41.3623 11.9941 41.001 11.8477C40.6445 11.7012 40.2661 11.6279 39.8657 11.6279C39.353 11.6279 38.8965 11.7451 38.4961 11.9795C38.1006 12.209 37.7881 12.5264 37.5586 12.9316C37.334 13.3369 37.2217 13.8032 37.2217 14.3306C37.2217 14.8579 37.334 15.3267 37.5586 15.7368C37.7881 16.147 38.1006 16.4692 38.4961 16.7036C38.8965 16.9331 39.353 17.0479 39.8657 17.0479C40.2661 17.0479 40.647 16.9746 41.0083 16.8281C41.3696 16.6768 41.6772 16.4668 41.9312 16.1982L42.6562 16.9453ZM48.5229 17.8242C48.0396 18.0391 47.5684 18.1465 47.1094 18.1465C46.6699 18.1465 46.2842 18.0513 45.9521 17.8608C45.6201 17.6655 45.3613 17.3945 45.1758 17.0479C44.9902 16.6963 44.8975 16.2886 44.8975 15.8247V11.7524H43.6157V10.6758H44.9561V8.84473H46.0986V10.6758H48.2886V11.7524H46.0986V15.605C46.0986 16.0444 46.2158 16.3984 46.4502 16.667C46.6895 16.9355 47.002 17.0698 47.3877 17.0698C47.7002 17.0698 48.0127 16.9771 48.3252 16.7915L48.5229 17.8242ZM50.5444 8.36133C50.3394 8.36133 50.166 8.29053 50.0244 8.14893C49.8877 8.00244 49.8193 7.82666 49.8193 7.62158C49.8193 7.42139 49.8877 7.25049 50.0244 7.10889C50.166 6.96729 50.3394 6.89648 50.5444 6.89648C50.7544 6.89648 50.9302 6.96729 51.0718 7.10889C51.2134 7.25049 51.2842 7.42139 51.2842 7.62158C51.2842 7.82666 51.2134 8.00244 51.0718 8.14893C50.9302 8.29053 50.7544 8.36133 50.5444 8.36133ZM51.145 18H49.9438V10.6758H51.145V18ZM56.7114 18.1465C55.9839 18.1465 55.3296 17.9805 54.7485 17.6484C54.1675 17.3164 53.7085 16.8647 53.3716 16.2935C53.0396 15.7173 52.8735 15.0654 52.8735 14.3379C52.8735 13.6152 53.0396 12.9683 53.3716 12.397C53.7085 11.8208 54.1675 11.3667 54.7485 11.0347C55.3296 10.6978 55.9839 10.5293 56.7114 10.5293C57.439 10.5293 58.0908 10.6978 58.667 11.0347C59.2432 11.3667 59.6973 11.8208 60.0293 12.397C60.3613 12.9683 60.5273 13.6152 60.5273 14.3379C60.5273 15.0654 60.3613 15.7173 60.0293 16.2935C59.6973 16.8647 59.2432 17.3164 58.667 17.6484C58.0908 17.9805 57.439 18.1465 56.7114 18.1465ZM56.7041 17.0625C57.1973 17.0625 57.6392 16.9429 58.0298 16.7036C58.4204 16.4644 58.728 16.1396 58.9526 15.7295C59.1821 15.3193 59.2969 14.853 59.2969 14.3306C59.2969 13.8179 59.1821 13.3564 58.9526 12.9463C58.728 12.5361 58.4204 12.2114 58.0298 11.9722C57.6392 11.7329 57.1973 11.6133 56.7041 11.6133C56.2109 11.6133 55.7666 11.7329 55.3711 11.9722C54.9805 12.2114 54.6704 12.5361 54.4409 12.9463C54.2163 13.3564 54.104 13.8179 54.104 14.3306C54.104 14.853 54.2163 15.3193 54.4409 15.7295C54.6704 16.1396 54.9805 16.4644 55.3711 16.7036C55.7666 16.9429 56.2109 17.0625 56.7041 17.0625ZM69.0747 18H67.8735V13.9131C67.8735 13.2197 67.6758 12.6655 67.2803 12.2505C66.8848 11.8354 66.3599 11.6279 65.7056 11.6279C65.0269 11.6279 64.4751 11.8525 64.0503 12.3018C63.6304 12.7461 63.4204 13.332 63.4204 14.0596V18H62.2192V10.6758H63.2666L63.3105 11.8623C63.5791 11.4326 63.9331 11.103 64.3726 10.8735C64.812 10.644 65.3296 10.5293 65.9253 10.5293C66.897 10.5293 67.6636 10.8223 68.2251 11.4082C68.7915 11.9941 69.0747 12.7974 69.0747 13.8179V18ZM70.686 17.3628L71.001 16.2349C71.1768 16.4009 71.377 16.5449 71.6016 16.667C71.8262 16.7891 72.063 16.8843 72.312 16.9526C72.561 17.0161 72.8125 17.0479 73.0664 17.0479C73.5205 17.0479 73.8867 16.9478 74.165 16.7476C74.4434 16.5474 74.5825 16.2861 74.5825 15.9639C74.5825 15.7295 74.5093 15.5366 74.3628 15.3853C74.2212 15.229 74.0332 15.0947 73.7988 14.9824C73.5645 14.8701 73.313 14.7627 73.0444 14.6602C72.7173 14.5332 72.3926 14.3892 72.0703 14.228C71.748 14.0669 71.4795 13.8545 71.2646 13.5908C71.0547 13.3271 70.9497 12.9805 70.9497 12.5508C70.9497 12.1406 71.0522 11.7842 71.2573 11.4814C71.4624 11.1787 71.748 10.9443 72.1143 10.7783C72.4854 10.6123 72.9102 10.5293 73.3887 10.5293C74.1113 10.5293 74.8218 10.71 75.52 11.0713L75.1611 12.1553C75.0049 12.0527 74.8242 11.9624 74.6191 11.8843C74.4141 11.8013 74.2041 11.7378 73.9893 11.6938C73.7744 11.6499 73.5718 11.6279 73.3813 11.6279C73.0249 11.6279 72.7368 11.7109 72.5171 11.877C72.2974 12.0381 72.1875 12.2554 72.1875 12.5288C72.1875 12.6851 72.2314 12.8291 72.3193 12.9609C72.4121 13.0879 72.5659 13.2148 72.7808 13.3418C72.9956 13.4688 73.2935 13.6104 73.6743 13.7666C74.0112 13.9033 74.3433 14.0596 74.6704 14.2354C74.9976 14.4062 75.2686 14.6284 75.4834 14.9019C75.7031 15.1704 75.813 15.522 75.813 15.9565C75.813 16.3862 75.6982 16.7671 75.4688 17.0991C75.2441 17.4263 74.9292 17.6826 74.5239 17.8682C74.1235 18.0537 73.6597 18.1465 73.1323 18.1465C72.2583 18.1465 71.4429 17.8853 70.686 17.3628Z" fill="#69707D"/>
<path d="M122.202 18H120.913V8.82275L117.244 16.1543H116.079L112.424 8.8667V18H111.135V7.01367H112.798L116.665 14.7993L120.518 7.01367H122.202V18ZM130.903 17.0991C129.995 17.7974 128.994 18.1465 127.9 18.1465C127.139 18.1465 126.455 17.9756 125.85 17.6338C125.244 17.292 124.766 16.8281 124.414 16.2422C124.067 15.6514 123.894 14.9849 123.894 14.2427C123.894 13.5298 124.055 12.895 124.377 12.3384C124.7 11.7769 125.142 11.335 125.703 11.0127C126.265 10.6904 126.902 10.5293 127.615 10.5293C128.347 10.5293 128.992 10.7051 129.548 11.0566C130.11 11.4082 130.547 11.8965 130.859 12.5215C131.172 13.1465 131.328 13.8691 131.328 14.6895V14.9238H125.198C125.286 15.3535 125.461 15.7271 125.725 16.0444C125.994 16.3618 126.326 16.6084 126.721 16.7842C127.117 16.96 127.559 17.0479 128.047 17.0479C128.887 17.0479 129.653 16.772 130.347 16.2202L130.903 17.0991ZM125.154 13.8984H130.193C130.139 13.4443 129.998 13.0488 129.768 12.7119C129.543 12.3701 129.25 12.104 128.889 11.9136C128.533 11.7231 128.13 11.6279 127.681 11.6279C127.227 11.6279 126.816 11.7231 126.45 11.9136C126.089 12.104 125.793 12.3701 125.564 12.7119C125.339 13.0488 125.203 13.4443 125.154 13.8984ZM139.875 18H138.674V13.9131C138.674 13.2197 138.477 12.6655 138.081 12.2505C137.686 11.8354 137.161 11.6279 136.506 11.6279C135.828 11.6279 135.276 11.8525 134.851 12.3018C134.431 12.7461 134.221 13.332 134.221 14.0596V18H133.02V10.6758H134.067L134.111 11.8623C134.38 11.4326 134.734 11.103 135.173 10.8735C135.613 10.644 136.13 10.5293 136.726 10.5293C137.698 10.5293 138.464 10.8223 139.026 11.4082C139.592 11.9941 139.875 12.7974 139.875 13.8179V18Z" fill="#69707D"/>
<path d="M185.741 18H184.627L181.859 9.23291L179.09 18H177.977L174.403 7.01367H175.75L178.526 15.8027L181.302 7.01367H182.416L185.184 15.7808L187.945 7.01367H189.3L185.741 18ZM193.431 18.1465C192.704 18.1465 192.049 17.9805 191.468 17.6484C190.887 17.3164 190.428 16.8647 190.091 16.2935C189.759 15.7173 189.593 15.0654 189.593 14.3379C189.593 13.6152 189.759 12.9683 190.091 12.397C190.428 11.8208 190.887 11.3667 191.468 11.0347C192.049 10.6978 192.704 10.5293 193.431 10.5293C194.159 10.5293 194.811 10.6978 195.387 11.0347C195.963 11.3667 196.417 11.8208 196.749 12.397C197.081 12.9683 197.247 13.6152 197.247 14.3379C197.247 15.0654 197.081 15.7173 196.749 16.2935C196.417 16.8647 195.963 17.3164 195.387 17.6484C194.811 17.9805 194.159 18.1465 193.431 18.1465ZM193.424 17.0625C193.917 17.0625 194.359 16.9429 194.75 16.7036C195.14 16.4644 195.448 16.1396 195.672 15.7295C195.902 15.3193 196.017 14.853 196.017 14.3306C196.017 13.8179 195.902 13.3564 195.672 12.9463C195.448 12.5361 195.14 12.2114 194.75 11.9722C194.359 11.7329 193.917 11.6133 193.424 11.6133C192.931 11.6133 192.486 11.7329 192.091 11.9722C191.7 12.2114 191.39 12.5361 191.161 12.9463C190.936 13.3564 190.824 13.8179 190.824 14.3306C190.824 14.853 190.936 15.3193 191.161 15.7295C191.39 16.1396 191.7 16.4644 192.091 16.7036C192.486 16.9429 192.931 17.0625 193.424 17.0625ZM210.533 18H209.332V14.0962C209.332 13.3101 209.159 12.6997 208.812 12.2651C208.47 11.8257 207.987 11.606 207.362 11.606C206.732 11.606 206.236 11.8281 205.875 12.2725C205.519 12.7119 205.34 13.3198 205.34 14.0962V18H204.139V14.0962C204.139 13.3101 203.966 12.6997 203.619 12.2651C203.272 11.8257 202.787 11.606 202.162 11.606C201.532 11.606 201.036 11.8281 200.675 12.2725C200.318 12.7119 200.14 13.3198 200.14 14.0962V18H198.939V10.6758H199.92L199.972 11.9868C200.216 11.5083 200.548 11.147 200.968 10.9028C201.393 10.6538 201.893 10.5293 202.469 10.5293C203.084 10.5293 203.609 10.6685 204.044 10.9468C204.483 11.2202 204.811 11.6133 205.025 12.126C205.265 11.6035 205.604 11.208 206.043 10.9395C206.488 10.666 207.018 10.5293 207.633 10.5293C208.546 10.5293 209.256 10.8198 209.764 11.4009C210.277 11.9771 210.533 12.7827 210.533 13.8179V18ZM219.088 17.0991C218.18 17.7974 217.179 18.1465 216.085 18.1465C215.323 18.1465 214.64 17.9756 214.034 17.6338C213.429 17.292 212.95 16.8281 212.599 16.2422C212.252 15.6514 212.079 14.9849 212.079 14.2427C212.079 13.5298 212.24 12.895 212.562 12.3384C212.884 11.7769 213.326 11.335 213.888 11.0127C214.449 10.6904 215.086 10.5293 215.799 10.5293C216.532 10.5293 217.176 10.7051 217.733 11.0566C218.294 11.4082 218.731 11.8965 219.044 12.5215C219.356 13.1465 219.513 13.8691 219.513 14.6895V14.9238H213.382C213.47 15.3535 213.646 15.7271 213.91 16.0444C214.178 16.3618 214.51 16.6084 214.906 16.7842C215.301 16.96 215.743 17.0479 216.231 17.0479C217.071 17.0479 217.838 16.772 218.531 16.2202L219.088 17.0991ZM213.338 13.8984H218.377C218.324 13.4443 218.182 13.0488 217.953 12.7119C217.728 12.3701 217.435 12.104 217.074 11.9136C216.717 11.7231 216.314 11.6279 215.865 11.6279C215.411 11.6279 215.001 11.7231 214.635 11.9136C214.273 12.104 213.978 12.3701 213.749 12.7119C213.524 13.0488 213.387 13.4443 213.338 13.8984ZM228.06 18H226.859V13.9131C226.859 13.2197 226.661 12.6655 226.266 12.2505C225.87 11.8354 225.345 11.6279 224.691 11.6279C224.012 11.6279 223.46 11.8525 223.036 12.3018C222.616 12.7461 222.406 13.332 222.406 14.0596V18H221.205V10.6758H222.252L222.296 11.8623C222.564 11.4326 222.918 11.103 223.358 10.8735C223.797 10.644 224.315 10.5293 224.911 10.5293C225.882 10.5293 226.649 10.8223 227.21 11.4082C227.777 11.9941 228.06 12.7974 228.06 13.8179V18Z" fill="#69707D"/>
<path d="M264.685 18H263.33L267.841 7.01367H269.24L273.745 18H272.39L271.196 15.0337H265.878L264.685 18ZM266.333 13.8911H270.742L268.537 8.40527L266.333 13.8911ZM276.279 18H275.209V7.01367H276.411V11.6646C276.752 11.3081 277.158 11.0298 277.626 10.8296C278.095 10.6294 278.605 10.5293 279.157 10.5293C279.88 10.5293 280.524 10.6953 281.091 11.0273C281.657 11.3594 282.104 11.8135 282.431 12.3896C282.763 12.9609 282.929 13.6104 282.929 14.3379C282.929 15.0605 282.763 15.71 282.431 16.2861C282.104 16.8623 281.657 17.3164 281.091 17.6484C280.524 17.9805 279.88 18.1465 279.157 18.1465C278.581 18.1465 278.051 18.0391 277.568 17.8242C277.089 17.6045 276.679 17.3066 276.337 16.9307L276.279 18ZM279.055 17.0625C279.558 17.0625 280.007 16.9453 280.402 16.7109C280.803 16.4717 281.118 16.147 281.347 15.7368C281.582 15.3267 281.699 14.8628 281.699 14.3452C281.699 13.8228 281.582 13.3564 281.347 12.9463C281.118 12.5312 280.803 12.2041 280.402 11.9648C280.007 11.7256 279.558 11.606 279.055 11.606C278.576 11.606 278.142 11.7158 277.751 11.9355C277.365 12.1553 277.053 12.4556 276.813 12.8364C276.579 13.2173 276.445 13.6494 276.411 14.1328V14.5356C276.445 15.019 276.579 15.4512 276.813 15.832C277.048 16.2129 277.358 16.5132 277.744 16.7329C278.134 16.9526 278.571 17.0625 279.055 17.0625ZM287.866 18.1465C287.138 18.1465 286.484 17.9805 285.903 17.6484C285.322 17.3164 284.863 16.8647 284.526 16.2935C284.194 15.7173 284.028 15.0654 284.028 14.3379C284.028 13.6152 284.194 12.9683 284.526 12.397C284.863 11.8208 285.322 11.3667 285.903 11.0347C286.484 10.6978 287.138 10.5293 287.866 10.5293C288.593 10.5293 289.245 10.6978 289.821 11.0347C290.397 11.3667 290.852 11.8208 291.184 12.397C291.516 12.9683 291.682 13.6152 291.682 14.3379C291.682 15.0654 291.516 15.7173 291.184 16.2935C290.852 16.8647 290.397 17.3164 289.821 17.6484C289.245 17.9805 288.593 18.1465 287.866 18.1465ZM287.858 17.0625C288.352 17.0625 288.793 16.9429 289.184 16.7036C289.575 16.4644 289.882 16.1396 290.107 15.7295C290.336 15.3193 290.451 14.853 290.451 14.3306C290.451 13.8179 290.336 13.3564 290.107 12.9463C289.882 12.5361 289.575 12.2114 289.184 11.9722C288.793 11.7329 288.352 11.6133 287.858 11.6133C287.365 11.6133 286.921 11.7329 286.525 11.9722C286.135 12.2114 285.825 12.5361 285.595 12.9463C285.371 13.3564 285.258 13.8179 285.258 14.3306C285.258 14.853 285.371 15.3193 285.595 15.7295C285.825 16.1396 286.135 16.4644 286.525 16.7036C286.921 16.9429 287.365 17.0625 287.858 17.0625ZM300.083 18H299.028L298.984 16.8135C298.715 17.2432 298.361 17.5728 297.922 17.8022C297.487 18.0317 296.972 18.1465 296.376 18.1465C295.405 18.1465 294.636 17.8535 294.069 17.2676C293.508 16.6768 293.227 15.8711 293.227 14.8506V10.6758H294.428V14.7627C294.428 15.4561 294.624 16.0103 295.014 16.4253C295.41 16.8403 295.935 17.0479 296.589 17.0479C297.272 17.0479 297.824 16.8232 298.244 16.374C298.669 15.9248 298.881 15.3389 298.881 14.6162V10.6758H300.083V18ZM306.601 17.8242C306.118 18.0391 305.646 18.1465 305.188 18.1465C304.748 18.1465 304.362 18.0513 304.03 17.8608C303.698 17.6655 303.439 17.3945 303.254 17.0479C303.068 16.6963 302.976 16.2886 302.976 15.8247V11.7524H301.694V10.6758H303.034V8.84473H304.177V10.6758H306.367V11.7524H304.177V15.605C304.177 16.0444 304.294 16.3984 304.528 16.667C304.768 16.9355 305.08 17.0698 305.466 17.0698C305.778 17.0698 306.091 16.9771 306.403 16.7915L306.601 17.8242Z" fill="#69707D"/>
<path d="M349.422 16.5938C348.919 17.1016 348.319 17.4995 347.621 17.7876C346.922 18.0757 346.161 18.2197 345.335 18.2197C344.51 18.2197 343.749 18.0781 343.05 17.7949C342.357 17.5117 341.754 17.1138 341.241 16.6011C340.729 16.0835 340.331 15.478 340.047 14.7847C339.764 14.0864 339.623 13.3271 339.623 12.5068C339.623 11.6816 339.764 10.9224 340.047 10.229C340.331 9.53076 340.729 8.92529 341.241 8.4126C341.754 7.8999 342.357 7.50195 343.05 7.21875C343.749 6.93555 344.51 6.79395 345.335 6.79395C346.156 6.79395 346.915 6.93799 347.613 7.22607C348.312 7.50928 348.912 7.90479 349.415 8.4126L348.514 9.32812C348.124 8.89355 347.655 8.5542 347.108 8.31006C346.561 8.06104 345.963 7.93652 345.313 7.93652C344.684 7.93652 344.103 8.05127 343.57 8.28076C343.038 8.50537 342.574 8.8252 342.179 9.24023C341.788 9.65039 341.483 10.1338 341.263 10.6904C341.048 11.2471 340.941 11.8525 340.941 12.5068C340.941 13.166 341.048 13.7739 341.263 14.3306C341.483 14.8823 341.788 15.3657 342.179 15.7808C342.574 16.1909 343.038 16.5107 343.57 16.7402C344.103 16.9648 344.684 17.0771 345.313 17.0771C345.963 17.0771 346.561 16.9551 347.108 16.7109C347.655 16.4619 348.124 16.1201 348.514 15.6855L349.422 16.5938ZM354.432 18.1465C353.705 18.1465 353.05 17.9805 352.469 17.6484C351.888 17.3164 351.429 16.8647 351.092 16.2935C350.76 15.7173 350.594 15.0654 350.594 14.3379C350.594 13.6152 350.76 12.9683 351.092 12.397C351.429 11.8208 351.888 11.3667 352.469 11.0347C353.05 10.6978 353.705 10.5293 354.432 10.5293C355.16 10.5293 355.812 10.6978 356.388 11.0347C356.964 11.3667 357.418 11.8208 357.75 12.397C358.082 12.9683 358.248 13.6152 358.248 14.3379C358.248 15.0654 358.082 15.7173 357.75 16.2935C357.418 16.8647 356.964 17.3164 356.388 17.6484C355.812 17.9805 355.16 18.1465 354.432 18.1465ZM354.425 17.0625C354.918 17.0625 355.36 16.9429 355.75 16.7036C356.141 16.4644 356.449 16.1396 356.673 15.7295C356.903 15.3193 357.018 14.853 357.018 14.3306C357.018 13.8179 356.903 13.3564 356.673 12.9463C356.449 12.5361 356.141 12.2114 355.75 11.9722C355.36 11.7329 354.918 11.6133 354.425 11.6133C353.932 11.6133 353.487 11.7329 353.092 11.9722C352.701 12.2114 352.391 12.5361 352.162 12.9463C351.937 13.3564 351.825 13.8179 351.825 14.3306C351.825 14.853 351.937 15.3193 352.162 15.7295C352.391 16.1396 352.701 16.4644 353.092 16.7036C353.487 16.9429 353.932 17.0625 354.425 17.0625ZM366.795 18H365.594V13.9131C365.594 13.2197 365.396 12.6655 365.001 12.2505C364.605 11.8354 364.081 11.6279 363.426 11.6279C362.748 11.6279 362.196 11.8525 361.771 12.3018C361.351 12.7461 361.141 13.332 361.141 14.0596V18H359.94V10.6758H360.987L361.031 11.8623C361.3 11.4326 361.654 11.103 362.093 10.8735C362.533 10.644 363.05 10.5293 363.646 10.5293C364.618 10.5293 365.384 10.8223 365.946 11.4082C366.512 11.9941 366.795 12.7974 366.795 13.8179V18ZM373.021 17.8242C372.538 18.0391 372.066 18.1465 371.607 18.1465C371.168 18.1465 370.782 18.0513 370.45 17.8608C370.118 17.6655 369.859 17.3945 369.674 17.0479C369.488 16.6963 369.396 16.2886 369.396 15.8247V11.7524H368.114V10.6758H369.454V8.84473H370.597V10.6758H372.787V11.7524H370.597V15.605C370.597 16.0444 370.714 16.3984 370.948 16.667C371.188 16.9355 371.5 17.0698 371.886 17.0698C372.198 17.0698 372.511 16.9771 372.823 16.7915L373.021 17.8242ZM380.396 18H379.364L379.283 17.0332C379.015 17.3799 378.673 17.6533 378.258 17.8535C377.843 18.0488 377.379 18.1465 376.866 18.1465C376.339 18.1465 375.868 18.0439 375.453 17.8389C375.038 17.6289 374.71 17.3433 374.471 16.9819C374.237 16.6206 374.12 16.2104 374.12 15.7515C374.12 15.2681 374.247 14.8433 374.5 14.4771C374.759 14.106 375.108 13.8154 375.548 13.6055C375.992 13.3955 376.495 13.2905 377.057 13.2905C377.423 13.2905 377.796 13.3369 378.177 13.4297C378.558 13.5176 378.897 13.6396 379.195 13.7959V13.4883C379.195 13.0977 379.098 12.7656 378.902 12.4922C378.707 12.2139 378.446 12.0015 378.119 11.855C377.792 11.7036 377.43 11.6279 377.035 11.6279C376.693 11.6279 376.344 11.6914 375.987 11.8184C375.631 11.9404 375.289 12.1309 374.962 12.3896L374.566 11.3569C374.991 11.0835 375.438 10.8784 375.907 10.7417C376.375 10.6001 376.839 10.5293 377.298 10.5293C377.933 10.5293 378.48 10.6587 378.939 10.9175C379.403 11.1714 379.762 11.5352 380.016 12.0088C380.27 12.4775 380.396 13.0342 380.396 13.6787V18ZM377.079 17.0479C377.455 17.0479 377.799 16.9697 378.111 16.8135C378.424 16.6572 378.678 16.4326 378.873 16.1396C379.068 15.8418 379.176 15.4902 379.195 15.085V14.9604C378.927 14.7505 378.624 14.5894 378.287 14.4771C377.955 14.3599 377.616 14.3013 377.269 14.3013C376.727 14.3013 376.273 14.4331 375.907 14.6968C375.545 14.9604 375.365 15.2949 375.365 15.7002C375.365 15.9541 375.438 16.1836 375.584 16.3887C375.736 16.5938 375.941 16.7549 376.2 16.8721C376.458 16.9893 376.751 17.0479 377.079 17.0479ZM388.614 16.9453C388.258 17.3311 387.835 17.6289 387.347 17.8389C386.859 18.0439 386.334 18.1465 385.772 18.1465C385.045 18.1465 384.391 17.9805 383.81 17.6484C383.233 17.3164 382.777 16.8623 382.44 16.2861C382.108 15.71 381.942 15.0605 381.942 14.3379C381.942 13.6104 382.108 12.9609 382.44 12.3896C382.777 11.8135 383.233 11.3594 383.81 11.0273C384.391 10.6953 385.045 10.5293 385.772 10.5293C386.329 10.5293 386.852 10.6318 387.34 10.8369C387.828 11.042 388.25 11.3374 388.607 11.7231L387.889 12.4775C387.63 12.2041 387.32 11.9941 386.959 11.8477C386.603 11.7012 386.224 11.6279 385.824 11.6279C385.311 11.6279 384.854 11.7451 384.454 11.9795C384.059 12.209 383.746 12.5264 383.517 12.9316C383.292 13.3369 383.18 13.8032 383.18 14.3306C383.18 14.8579 383.292 15.3267 383.517 15.7368C383.746 16.147 384.059 16.4692 384.454 16.7036C384.854 16.9331 385.311 17.0479 385.824 17.0479C386.224 17.0479 386.605 16.9746 386.966 16.8281C387.328 16.6768 387.635 16.4668 387.889 16.1982L388.614 16.9453ZM394.481 17.8242C393.998 18.0391 393.526 18.1465 393.067 18.1465C392.628 18.1465 392.242 18.0513 391.91 17.8608C391.578 17.6655 391.319 17.3945 391.134 17.0479C390.948 16.6963 390.855 16.2886 390.855 15.8247V11.7524H389.574V10.6758H390.914V8.84473H392.057V10.6758H394.247V11.7524H392.057V15.605C392.057 16.0444 392.174 16.3984 392.408 16.667C392.647 16.9355 392.96 17.0698 393.346 17.0698C393.658 17.0698 393.971 16.9771 394.283 16.7915L394.481 17.8242Z" fill="#69707D"/>
</svg>
