<svg width="421" height="70" viewBox="0 0 421 70" fill="none" xmlns="http://www.w3.org/2000/svg">
<path d="M5.41406 13H4.03906V2.5H0.273438V1.28125H9.17969V2.5H5.41406V13ZM10.6641 13V1.28125H11.9453V6.35938C12.5339 5.47396 13.4453 5.03125 14.6797 5.03125C15.7161 5.03125 16.5234 5.34115 17.1016 5.96094C17.6849 6.57552 17.9766 7.4349 17.9766 8.53906V13H16.6953V8.83594C16.6953 7.9974 16.487 7.34635 16.0703 6.88281C15.6589 6.41406 15.0833 6.17969 14.3438 6.17969C13.599 6.17969 13.013 6.41667 12.5859 6.89062C12.1589 7.36458 11.9453 8.01302 11.9453 8.83594V13H10.6641ZM27.0938 12.0391C26.125 12.7839 25.0573 13.1562 23.8906 13.1562C23.0781 13.1562 22.349 12.974 21.7031 12.6094C21.0573 12.2448 20.5469 11.75 20.1719 11.125C19.8021 10.4948 19.6172 9.78385 19.6172 8.99219C19.6172 8.23177 19.7891 7.55469 20.1328 6.96094C20.4766 6.36198 20.9479 5.89062 21.5469 5.54688C22.1458 5.20312 22.8255 5.03125 23.5859 5.03125C24.3672 5.03125 25.0547 5.21875 25.6484 5.59375C26.2474 5.96875 26.7135 6.48958 27.0469 7.15625C27.3802 7.82292 27.5469 8.59375 27.5469 9.46875V9.71875H21.0078C21.1016 10.1771 21.2891 10.5755 21.5703 10.9141C21.8568 11.2526 22.2109 11.5156 22.6328 11.7031C23.0547 11.8906 23.526 11.9844 24.0469 11.9844C24.9427 11.9844 25.7604 11.6901 26.5 11.1016L27.0938 12.0391ZM20.9609 8.625H26.3359C26.2786 8.14062 26.1276 7.71875 25.8828 7.35938C25.6432 6.99479 25.3307 6.71094 24.9453 6.50781C24.5651 6.30469 24.1354 6.20312 23.6562 6.20312C23.1719 6.20312 22.7344 6.30469 22.3438 6.50781C21.9583 6.71094 21.6432 6.99479 21.3984 7.35938C21.1589 7.71875 21.013 8.14062 20.9609 8.625ZM28.8047 12.3203L29.1406 11.1172C29.3281 11.2943 29.5417 11.4479 29.7812 11.5781C30.0208 11.7083 30.2734 11.8099 30.5391 11.8828C30.8047 11.9505 31.0729 11.9844 31.3438 11.9844C31.8281 11.9844 32.2188 11.8776 32.5156 11.6641C32.8125 11.4505 32.9609 11.1719 32.9609 10.8281C32.9609 10.5781 32.8828 10.3724 32.7266 10.2109C32.5755 10.0443 32.375 9.90104 32.125 9.78125C31.875 9.66146 31.6068 9.54688 31.3203 9.4375C30.9714 9.30208 30.625 9.14844 30.2812 8.97656C29.9375 8.80469 29.651 8.57812 29.4219 8.29688C29.1979 8.01562 29.0859 7.64583 29.0859 7.1875C29.0859 6.75 29.1953 6.36979 29.4141 6.04688C29.6328 5.72396 29.9375 5.47396 30.3281 5.29688C30.724 5.11979 31.1771 5.03125 31.6875 5.03125C32.4583 5.03125 33.2161 5.22396 33.9609 5.60938L33.5781 6.76562C33.4115 6.65625 33.2188 6.5599 33 6.47656C32.7812 6.38802 32.5573 6.32031 32.3281 6.27344C32.099 6.22656 31.8828 6.20312 31.6797 6.20312C31.2995 6.20312 30.9922 6.29167 30.7578 6.46875C30.5234 6.64062 30.4062 6.8724 30.4062 7.16406C30.4062 7.33073 30.4531 7.48438 30.5469 7.625C30.6458 7.76042 30.8099 7.89583 31.0391 8.03125C31.2682 8.16667 31.5859 8.31771 31.9922 8.48438C32.3516 8.63021 32.7057 8.79688 33.0547 8.98438C33.4036 9.16667 33.6927 9.40365 33.9219 9.69531C34.1562 9.98177 34.2734 10.3568 34.2734 10.8203C34.2734 11.2786 34.151 11.6849 33.9062 12.0391C33.6667 12.388 33.3307 12.6615 32.8984 12.8594C32.4714 13.0573 31.9766 13.1562 31.4141 13.1562C30.4818 13.1562 29.612 12.8776 28.8047 12.3203ZM43 12.0391C42.0312 12.7839 40.9635 13.1562 39.7969 13.1562C38.9844 13.1562 38.2552 12.974 37.6094 12.6094C36.9635 12.2448 36.4531 11.75 36.0781 11.125C35.7083 10.4948 35.5234 9.78385 35.5234 8.99219C35.5234 8.23177 35.6953 7.55469 36.0391 6.96094C36.3828 6.36198 36.8542 5.89062 37.4531 5.54688C38.0521 5.20312 38.7318 5.03125 39.4922 5.03125C40.2734 5.03125 40.9609 5.21875 41.5547 5.59375C42.1536 5.96875 42.6198 6.48958 42.9531 7.15625C43.2865 7.82292 43.4531 8.59375 43.4531 9.46875V9.71875H36.9141C37.0078 10.1771 37.1953 10.5755 37.4766 10.9141C37.763 11.2526 38.1172 11.5156 38.5391 11.7031C38.9609 11.8906 39.4323 11.9844 39.9531 11.9844C40.849 11.9844 41.6667 11.6901 42.4062 11.1016L43 12.0391ZM36.8672 8.625H42.2422C42.1849 8.14062 42.0339 7.71875 41.7891 7.35938C41.5495 6.99479 41.237 6.71094 40.8516 6.50781C40.4714 6.30469 40.0417 6.20312 39.5625 6.20312C39.0781 6.20312 38.6406 6.30469 38.25 6.50781C37.8646 6.71094 37.5495 6.99479 37.3047 7.35938C37.0651 7.71875 36.9193 8.14062 36.8672 8.625ZM50.5234 13H49.1641V0.96875H50.5234V13ZM56.4141 13.1562C55.638 13.1562 54.9401 12.9792 54.3203 12.625C53.7005 12.2708 53.2109 11.7891 52.8516 11.1797C52.4974 10.5651 52.3203 9.86979 52.3203 9.09375C52.3203 8.32292 52.4974 7.63281 52.8516 7.02344C53.2109 6.40885 53.7005 5.92448 54.3203 5.57031C54.9401 5.21094 55.638 5.03125 56.4141 5.03125C57.1901 5.03125 57.8854 5.21094 58.5 5.57031C59.1146 5.92448 59.599 6.40885 59.9531 7.02344C60.3073 7.63281 60.4844 8.32292 60.4844 9.09375C60.4844 9.86979 60.3073 10.5651 59.9531 11.1797C59.599 11.7891 59.1146 12.2708 58.5 12.625C57.8854 12.9792 57.1901 13.1562 56.4141 13.1562ZM56.4062 12C56.9323 12 57.4036 11.8724 57.8203 11.6172C58.237 11.362 58.5651 11.0156 58.8047 10.5781C59.0495 10.1406 59.1719 9.64323 59.1719 9.08594C59.1719 8.53906 59.0495 8.04688 58.8047 7.60938C58.5651 7.17188 58.237 6.82552 57.8203 6.57031C57.4036 6.3151 56.9323 6.1875 56.4062 6.1875C55.8802 6.1875 55.4062 6.3151 54.9844 6.57031C54.5677 6.82552 54.237 7.17188 53.9922 7.60938C53.7526 8.04688 53.6328 8.53906 53.6328 9.08594C53.6328 9.64323 53.7526 10.1406 53.9922 10.5781C54.237 11.0156 54.5677 11.362 54.9844 11.6172C55.4062 11.8724 55.8802 12 56.4062 12ZM70.5 13H69.0156L67.25 7.03125L65.4844 13H64L61.5078 5.1875H62.8672L64.7344 11.4375L66.6484 5.1875H67.8516L69.7656 11.4375L71.6406 5.1875H73L70.5 13ZM80.8203 9.57031H74.5703V8.5625H80.8203V9.57031ZM84.5234 16.9062H83.2422V5.1875H84.3828L84.4453 6.32812C84.8099 5.92708 85.25 5.61198 85.7656 5.38281C86.2812 5.14844 86.8464 5.03125 87.4609 5.03125C88.2266 5.03125 88.9115 5.20833 89.5156 5.5625C90.125 5.91667 90.6042 6.40104 90.9531 7.01562C91.3073 7.625 91.4844 8.31771 91.4844 9.09375C91.4844 9.86458 91.3073 10.5573 90.9531 11.1719C90.6042 11.7865 90.125 12.2708 89.5156 12.625C88.9115 12.9792 88.2266 13.1562 87.4609 13.1562C86.8724 13.1562 86.3255 13.0495 85.8203 12.8359C85.3203 12.6224 84.888 12.3255 84.5234 11.9453V16.9062ZM87.3594 11.9844C87.9062 11.9844 88.3906 11.862 88.8125 11.6172C89.2344 11.3672 89.5625 11.0234 89.7969 10.5859C90.0365 10.1484 90.1562 9.64844 90.1562 9.08594C90.1562 8.51823 90.0365 8.01823 89.7969 7.58594C89.5573 7.14844 89.2266 6.80469 88.8047 6.55469C88.388 6.30469 87.9089 6.17969 87.3672 6.17969C86.8516 6.17969 86.3854 6.29427 85.9688 6.52344C85.5573 6.7526 85.224 7.06771 84.9688 7.46875C84.7135 7.86458 84.5651 8.31771 84.5234 8.82812V9.35938C84.5651 9.86979 84.7109 10.3229 84.9609 10.7188C85.2109 11.1146 85.5417 11.4245 85.9531 11.6484C86.3698 11.8724 86.8385 11.9844 87.3594 11.9844ZM94.5703 13H93.2891V5.1875H94.4141L94.4688 6.73438C94.7396 6.19792 95.1198 5.78125 95.6094 5.48438C96.1042 5.18229 96.6719 5.03125 97.3125 5.03125C97.4531 5.03125 97.5964 5.03906 97.7422 5.05469C97.888 5.07031 98.0339 5.09375 98.1797 5.125L98.0234 6.28125C97.737 6.21354 97.4531 6.17969 97.1719 6.17969C96.6615 6.17969 96.2083 6.30469 95.8125 6.55469C95.4219 6.80469 95.1172 7.14844 94.8984 7.58594C94.6797 8.02344 94.5703 8.52604 94.5703 9.09375V13ZM102.977 13.1562C102.201 13.1562 101.503 12.9792 100.883 12.625C100.263 12.2708 99.7734 11.7891 99.4141 11.1797C99.0599 10.5651 98.8828 9.86979 98.8828 9.09375C98.8828 8.32292 99.0599 7.63281 99.4141 7.02344C99.7734 6.40885 100.263 5.92448 100.883 5.57031C101.503 5.21094 102.201 5.03125 102.977 5.03125C103.753 5.03125 104.448 5.21094 105.062 5.57031C105.677 5.92448 106.161 6.40885 106.516 7.02344C106.87 7.63281 107.047 8.32292 107.047 9.09375C107.047 9.86979 106.87 10.5651 106.516 11.1797C106.161 11.7891 105.677 12.2708 105.062 12.625C104.448 12.9792 103.753 13.1562 102.977 13.1562ZM102.969 12C103.495 12 103.966 11.8724 104.383 11.6172C104.799 11.362 105.128 11.0156 105.367 10.5781C105.612 10.1406 105.734 9.64323 105.734 9.08594C105.734 8.53906 105.612 8.04688 105.367 7.60938C105.128 7.17188 104.799 6.82552 104.383 6.57031C103.966 6.3151 103.495 6.1875 102.969 6.1875C102.443 6.1875 101.969 6.3151 101.547 6.57031C101.13 6.82552 100.799 7.17188 100.555 7.60938C100.315 8.04688 100.195 8.53906 100.195 9.08594C100.195 9.64323 100.315 10.1406 100.555 10.5781C100.799 11.0156 101.13 11.362 101.547 11.6172C101.969 11.8724 102.443 12 102.969 12ZM110.719 13H109.438V6.33594H108.07V5.1875H109.438V3.50781C109.438 3.02344 109.539 2.59635 109.742 2.22656C109.951 1.85677 110.237 1.56771 110.602 1.35938C110.971 1.15104 111.396 1.04688 111.875 1.04688C112.172 1.04688 112.469 1.08854 112.766 1.17188C113.068 1.25 113.362 1.3724 113.648 1.53906L113.156 2.54688C112.979 2.43229 112.799 2.34635 112.617 2.28906C112.435 2.22656 112.253 2.19531 112.07 2.19531C111.669 2.19531 111.344 2.34115 111.094 2.63281C110.844 2.91927 110.719 3.29427 110.719 3.75781V5.1875H113.133V6.33594H110.719V13ZM115.414 2.71875C115.195 2.71875 115.01 2.64323 114.859 2.49219C114.714 2.33594 114.641 2.14844 114.641 1.92969C114.641 1.71615 114.714 1.53385 114.859 1.38281C115.01 1.23177 115.195 1.15625 115.414 1.15625C115.638 1.15625 115.826 1.23177 115.977 1.38281C116.128 1.53385 116.203 1.71615 116.203 1.92969C116.203 2.14844 116.128 2.33594 115.977 2.49219C115.826 2.64323 115.638 2.71875 115.414 2.71875ZM116.055 13H114.773V5.1875H116.055V13ZM119.883 13H118.523V0.96875H119.883V13ZM129.156 12.0391C128.188 12.7839 127.12 13.1562 125.953 13.1562C125.141 13.1562 124.411 12.974 123.766 12.6094C123.12 12.2448 122.609 11.75 122.234 11.125C121.865 10.4948 121.68 9.78385 121.68 8.99219C121.68 8.23177 121.852 7.55469 122.195 6.96094C122.539 6.36198 123.01 5.89062 123.609 5.54688C124.208 5.20312 124.888 5.03125 125.648 5.03125C126.43 5.03125 127.117 5.21875 127.711 5.59375C128.31 5.96875 128.776 6.48958 129.109 7.15625C129.443 7.82292 129.609 8.59375 129.609 9.46875V9.71875H123.07C123.164 10.1771 123.352 10.5755 123.633 10.9141C123.919 11.2526 124.273 11.5156 124.695 11.7031C125.117 11.8906 125.589 11.9844 126.109 11.9844C127.005 11.9844 127.823 11.6901 128.562 11.1016L129.156 12.0391ZM123.023 8.625H128.398C128.341 8.14062 128.19 7.71875 127.945 7.35938C127.706 6.99479 127.393 6.71094 127.008 6.50781C126.628 6.30469 126.198 6.20312 125.719 6.20312C125.234 6.20312 124.797 6.30469 124.406 6.50781C124.021 6.71094 123.706 6.99479 123.461 7.35938C123.221 7.71875 123.076 8.14062 123.023 8.625ZM134.773 12.3203L135.109 11.1172C135.297 11.2943 135.51 11.4479 135.75 11.5781C135.99 11.7083 136.242 11.8099 136.508 11.8828C136.773 11.9505 137.042 11.9844 137.312 11.9844C137.797 11.9844 138.188 11.8776 138.484 11.6641C138.781 11.4505 138.93 11.1719 138.93 10.8281C138.93 10.5781 138.852 10.3724 138.695 10.2109C138.544 10.0443 138.344 9.90104 138.094 9.78125C137.844 9.66146 137.576 9.54688 137.289 9.4375C136.94 9.30208 136.594 9.14844 136.25 8.97656C135.906 8.80469 135.62 8.57812 135.391 8.29688C135.167 8.01562 135.055 7.64583 135.055 7.1875C135.055 6.75 135.164 6.36979 135.383 6.04688C135.602 5.72396 135.906 5.47396 136.297 5.29688C136.693 5.11979 137.146 5.03125 137.656 5.03125C138.427 5.03125 139.185 5.22396 139.93 5.60938L139.547 6.76562C139.38 6.65625 139.188 6.5599 138.969 6.47656C138.75 6.38802 138.526 6.32031 138.297 6.27344C138.068 6.22656 137.852 6.20312 137.648 6.20312C137.268 6.20312 136.961 6.29167 136.727 6.46875C136.492 6.64062 136.375 6.8724 136.375 7.16406C136.375 7.33073 136.422 7.48438 136.516 7.625C136.615 7.76042 136.779 7.89583 137.008 8.03125C137.237 8.16667 137.555 8.31771 137.961 8.48438C138.32 8.63021 138.674 8.79688 139.023 8.98438C139.372 9.16667 139.661 9.40365 139.891 9.69531C140.125 9.98177 140.242 10.3568 140.242 10.8203C140.242 11.2786 140.12 11.6849 139.875 12.0391C139.635 12.388 139.299 12.6615 138.867 12.8594C138.44 13.0573 137.945 13.1562 137.383 13.1562C136.451 13.1562 135.581 12.8776 134.773 12.3203ZM149.43 13H148.148V8.64062C148.148 7.90104 147.938 7.3099 147.516 6.86719C147.094 6.42448 146.534 6.20312 145.836 6.20312C145.112 6.20312 144.523 6.44271 144.07 6.92188C143.622 7.39583 143.398 8.02083 143.398 8.79688V13H142.117V5.1875H143.234L143.281 6.45312C143.568 5.99479 143.945 5.64323 144.414 5.39844C144.883 5.15365 145.435 5.03125 146.07 5.03125C147.107 5.03125 147.924 5.34375 148.523 5.96875C149.128 6.59375 149.43 7.45052 149.43 8.53906V13ZM158.547 12.0391C157.578 12.7839 156.51 13.1562 155.344 13.1562C154.531 13.1562 153.802 12.974 153.156 12.6094C152.51 12.2448 152 11.75 151.625 11.125C151.255 10.4948 151.07 9.78385 151.07 8.99219C151.07 8.23177 151.242 7.55469 151.586 6.96094C151.93 6.36198 152.401 5.89062 153 5.54688C153.599 5.20312 154.279 5.03125 155.039 5.03125C155.82 5.03125 156.508 5.21875 157.102 5.59375C157.701 5.96875 158.167 6.48958 158.5 7.15625C158.833 7.82292 159 8.59375 159 9.46875V9.71875H152.461C152.555 10.1771 152.742 10.5755 153.023 10.9141C153.31 11.2526 153.664 11.5156 154.086 11.7031C154.508 11.8906 154.979 11.9844 155.5 11.9844C156.396 11.9844 157.214 11.6901 157.953 11.1016L158.547 12.0391ZM152.414 8.625H157.789C157.732 8.14062 157.581 7.71875 157.336 7.35938C157.096 6.99479 156.784 6.71094 156.398 6.50781C156.018 6.30469 155.589 6.20312 155.109 6.20312C154.625 6.20312 154.188 6.30469 153.797 6.50781C153.411 6.71094 153.096 6.99479 152.852 7.35938C152.612 7.71875 152.466 8.14062 152.414 8.625ZM167.109 13H166.008L165.922 11.9688C165.635 12.3385 165.271 12.6302 164.828 12.8438C164.385 13.0521 163.891 13.1562 163.344 13.1562C162.781 13.1562 162.279 13.0469 161.836 12.8281C161.393 12.6042 161.044 12.2995 160.789 11.9141C160.539 11.5286 160.414 11.0911 160.414 10.6016C160.414 10.0859 160.549 9.63281 160.82 9.24219C161.096 8.84635 161.469 8.53646 161.938 8.3125C162.411 8.08854 162.948 7.97656 163.547 7.97656C163.938 7.97656 164.336 8.02604 164.742 8.125C165.148 8.21875 165.51 8.34896 165.828 8.51562V8.1875C165.828 7.77083 165.724 7.41667 165.516 7.125C165.307 6.82812 165.029 6.60156 164.68 6.44531C164.331 6.28385 163.945 6.20312 163.523 6.20312C163.159 6.20312 162.786 6.27083 162.406 6.40625C162.026 6.53646 161.661 6.73958 161.312 7.01562L160.891 5.91406C161.344 5.6224 161.82 5.40365 162.32 5.25781C162.82 5.10677 163.315 5.03125 163.805 5.03125C164.482 5.03125 165.065 5.16927 165.555 5.44531C166.049 5.71615 166.432 6.10417 166.703 6.60938C166.974 7.10938 167.109 7.70312 167.109 8.39062V13ZM163.57 11.9844C163.971 11.9844 164.339 11.901 164.672 11.7344C165.005 11.5677 165.276 11.3281 165.484 11.0156C165.693 10.6979 165.807 10.3229 165.828 9.89062V9.75781C165.542 9.53385 165.219 9.36198 164.859 9.24219C164.505 9.11719 164.143 9.05469 163.773 9.05469C163.195 9.05469 162.711 9.19531 162.32 9.47656C161.935 9.75781 161.742 10.1146 161.742 10.5469C161.742 10.8177 161.82 11.0625 161.977 11.2812C162.138 11.5 162.357 11.6719 162.633 11.7969C162.909 11.9219 163.221 11.9844 163.57 11.9844ZM170.664 13H169.383V1.28125H170.664V9.53125L171.273 8.78906L174.672 5.1875H176.281L173.094 8.57812L176.773 13H175.109L172.203 9.51562L170.664 11.1562V13ZM185.031 12.0391C184.062 12.7839 182.995 13.1562 181.828 13.1562C181.016 13.1562 180.286 12.974 179.641 12.6094C178.995 12.2448 178.484 11.75 178.109 11.125C177.74 10.4948 177.555 9.78385 177.555 8.99219C177.555 8.23177 177.727 7.55469 178.07 6.96094C178.414 6.36198 178.885 5.89062 179.484 5.54688C180.083 5.20312 180.763 5.03125 181.523 5.03125C182.305 5.03125 182.992 5.21875 183.586 5.59375C184.185 5.96875 184.651 6.48958 184.984 7.15625C185.318 7.82292 185.484 8.59375 185.484 9.46875V9.71875H178.945C179.039 10.1771 179.227 10.5755 179.508 10.9141C179.794 11.2526 180.148 11.5156 180.57 11.7031C180.992 11.8906 181.464 11.9844 181.984 11.9844C182.88 11.9844 183.698 11.6901 184.438 11.1016L185.031 12.0391ZM178.898 8.625H184.273C184.216 8.14062 184.065 7.71875 183.82 7.35938C183.581 6.99479 183.268 6.71094 182.883 6.50781C182.503 6.30469 182.073 6.20312 181.594 6.20312C181.109 6.20312 180.672 6.30469 180.281 6.50781C179.896 6.71094 179.581 6.99479 179.336 7.35938C179.096 7.71875 178.951 8.14062 178.898 8.625ZM188.57 13H187.289V5.1875H188.414L188.469 6.73438C188.74 6.19792 189.12 5.78125 189.609 5.48438C190.104 5.18229 190.672 5.03125 191.312 5.03125C191.453 5.03125 191.596 5.03906 191.742 5.05469C191.888 5.07031 192.034 5.09375 192.18 5.125L192.023 6.28125C191.737 6.21354 191.453 6.17969 191.172 6.17969C190.661 6.17969 190.208 6.30469 189.812 6.55469C189.422 6.80469 189.117 7.14844 188.898 7.58594C188.68 8.02344 188.57 8.52604 188.57 9.09375V13ZM192.961 12.3203L193.297 11.1172C193.484 11.2943 193.698 11.4479 193.938 11.5781C194.177 11.7083 194.43 11.8099 194.695 11.8828C194.961 11.9505 195.229 11.9844 195.5 11.9844C195.984 11.9844 196.375 11.8776 196.672 11.6641C196.969 11.4505 197.117 11.1719 197.117 10.8281C197.117 10.5781 197.039 10.3724 196.883 10.2109C196.732 10.0443 196.531 9.90104 196.281 9.78125C196.031 9.66146 195.763 9.54688 195.477 9.4375C195.128 9.30208 194.781 9.14844 194.438 8.97656C194.094 8.80469 193.807 8.57812 193.578 8.29688C193.354 8.01562 193.242 7.64583 193.242 7.1875C193.242 6.75 193.352 6.36979 193.57 6.04688C193.789 5.72396 194.094 5.47396 194.484 5.29688C194.88 5.11979 195.333 5.03125 195.844 5.03125C196.615 5.03125 197.372 5.22396 198.117 5.60938L197.734 6.76562C197.568 6.65625 197.375 6.5599 197.156 6.47656C196.938 6.38802 196.714 6.32031 196.484 6.27344C196.255 6.22656 196.039 6.20312 195.836 6.20312C195.456 6.20312 195.148 6.29167 194.914 6.46875C194.68 6.64062 194.562 6.8724 194.562 7.16406C194.562 7.33073 194.609 7.48438 194.703 7.625C194.802 7.76042 194.966 7.89583 195.195 8.03125C195.424 8.16667 195.742 8.31771 196.148 8.48438C196.508 8.63021 196.862 8.79688 197.211 8.98438C197.56 9.16667 197.849 9.40365 198.078 9.69531C198.312 9.98177 198.43 10.3568 198.43 10.8203C198.43 11.2786 198.307 11.6849 198.062 12.0391C197.823 12.388 197.487 12.6615 197.055 12.8594C196.628 13.0573 196.133 13.1562 195.57 13.1562C194.638 13.1562 193.768 12.8776 192.961 12.3203ZM210.516 13H209.414L209.328 11.9688C209.042 12.3385 208.677 12.6302 208.234 12.8438C207.792 13.0521 207.297 13.1562 206.75 13.1562C206.188 13.1562 205.685 13.0469 205.242 12.8281C204.799 12.6042 204.451 12.2995 204.195 11.9141C203.945 11.5286 203.82 11.0911 203.82 10.6016C203.82 10.0859 203.956 9.63281 204.227 9.24219C204.503 8.84635 204.875 8.53646 205.344 8.3125C205.818 8.08854 206.354 7.97656 206.953 7.97656C207.344 7.97656 207.742 8.02604 208.148 8.125C208.555 8.21875 208.917 8.34896 209.234 8.51562V8.1875C209.234 7.77083 209.13 7.41667 208.922 7.125C208.714 6.82812 208.435 6.60156 208.086 6.44531C207.737 6.28385 207.352 6.20312 206.93 6.20312C206.565 6.20312 206.193 6.27083 205.812 6.40625C205.432 6.53646 205.068 6.73958 204.719 7.01562L204.297 5.91406C204.75 5.6224 205.227 5.40365 205.727 5.25781C206.227 5.10677 206.721 5.03125 207.211 5.03125C207.888 5.03125 208.471 5.16927 208.961 5.44531C209.456 5.71615 209.839 6.10417 210.109 6.60938C210.38 7.10938 210.516 7.70312 210.516 8.39062V13ZM206.977 11.9844C207.378 11.9844 207.745 11.901 208.078 11.7344C208.411 11.5677 208.682 11.3281 208.891 11.0156C209.099 10.6979 209.214 10.3229 209.234 9.89062V9.75781C208.948 9.53385 208.625 9.36198 208.266 9.24219C207.911 9.11719 207.549 9.05469 207.18 9.05469C206.602 9.05469 206.117 9.19531 205.727 9.47656C205.341 9.75781 205.148 10.1146 205.148 10.5469C205.148 10.8177 205.227 11.0625 205.383 11.2812C205.544 11.5 205.763 11.6719 206.039 11.7969C206.315 11.9219 206.628 11.9844 206.977 11.9844ZM214.07 13H212.789V5.1875H213.914L213.969 6.73438C214.24 6.19792 214.62 5.78125 215.109 5.48438C215.604 5.18229 216.172 5.03125 216.812 5.03125C216.953 5.03125 217.096 5.03906 217.242 5.05469C217.388 5.07031 217.534 5.09375 217.68 5.125L217.523 6.28125C217.237 6.21354 216.953 6.17969 216.672 6.17969C216.161 6.17969 215.708 6.30469 215.312 6.55469C214.922 6.80469 214.617 7.14844 214.398 7.58594C214.18 8.02344 214.07 8.52604 214.07 9.09375V13ZM225.859 12.0391C224.891 12.7839 223.823 13.1562 222.656 13.1562C221.844 13.1562 221.115 12.974 220.469 12.6094C219.823 12.2448 219.312 11.75 218.938 11.125C218.568 10.4948 218.383 9.78385 218.383 8.99219C218.383 8.23177 218.555 7.55469 218.898 6.96094C219.242 6.36198 219.714 5.89062 220.312 5.54688C220.911 5.20312 221.591 5.03125 222.352 5.03125C223.133 5.03125 223.82 5.21875 224.414 5.59375C225.013 5.96875 225.479 6.48958 225.812 7.15625C226.146 7.82292 226.312 8.59375 226.312 9.46875V9.71875H219.773C219.867 10.1771 220.055 10.5755 220.336 10.9141C220.622 11.2526 220.977 11.5156 221.398 11.7031C221.82 11.8906 222.292 11.9844 222.812 11.9844C223.708 11.9844 224.526 11.6901 225.266 11.1016L225.859 12.0391ZM219.727 8.625H225.102C225.044 8.14062 224.893 7.71875 224.648 7.35938C224.409 6.99479 224.096 6.71094 223.711 6.50781C223.331 6.30469 222.901 6.20312 222.422 6.20312C221.938 6.20312 221.5 6.30469 221.109 6.50781C220.724 6.71094 220.409 6.99479 220.164 7.35938C219.924 7.71875 219.779 8.14062 219.727 8.625ZM234.734 16.9062H233.336L234.977 12.9375L231.242 5.1875H232.656L235.594 11.4609L238.188 5.1875H239.578L234.734 16.9062ZM244.461 13.1562C243.685 13.1562 242.987 12.9792 242.367 12.625C241.747 12.2708 241.258 11.7891 240.898 11.1797C240.544 10.5651 240.367 9.86979 240.367 9.09375C240.367 8.32292 240.544 7.63281 240.898 7.02344C241.258 6.40885 241.747 5.92448 242.367 5.57031C242.987 5.21094 243.685 5.03125 244.461 5.03125C245.237 5.03125 245.932 5.21094 246.547 5.57031C247.161 5.92448 247.646 6.40885 248 7.02344C248.354 7.63281 248.531 8.32292 248.531 9.09375C248.531 9.86979 248.354 10.5651 248 11.1797C247.646 11.7891 247.161 12.2708 246.547 12.625C245.932 12.9792 245.237 13.1562 244.461 13.1562ZM244.453 12C244.979 12 245.451 11.8724 245.867 11.6172C246.284 11.362 246.612 11.0156 246.852 10.5781C247.096 10.1406 247.219 9.64323 247.219 9.08594C247.219 8.53906 247.096 8.04688 246.852 7.60938C246.612 7.17188 246.284 6.82552 245.867 6.57031C245.451 6.3151 244.979 6.1875 244.453 6.1875C243.927 6.1875 243.453 6.3151 243.031 6.57031C242.615 6.82552 242.284 7.17188 242.039 7.60938C241.799 8.04688 241.68 8.53906 241.68 9.08594C241.68 9.64323 241.799 10.1406 242.039 10.5781C242.284 11.0156 242.615 11.362 243.031 11.6172C243.453 11.8724 243.927 12 244.453 12ZM257.492 13H256.367L256.32 11.7344C256.034 12.1927 255.656 12.5443 255.188 12.7891C254.724 13.0339 254.174 13.1562 253.539 13.1562C252.503 13.1562 251.682 12.8438 251.078 12.2188C250.479 11.5885 250.18 10.7292 250.18 9.64062V5.1875H251.461V9.54688C251.461 10.2865 251.669 10.8776 252.086 11.3203C252.508 11.763 253.068 11.9844 253.766 11.9844C254.495 11.9844 255.083 11.7448 255.531 11.2656C255.984 10.7865 256.211 10.1615 256.211 9.39062V5.1875H257.492V13ZM261.195 13H259.914V5.1875H261.039L261.094 6.73438C261.365 6.19792 261.745 5.78125 262.234 5.48438C262.729 5.18229 263.297 5.03125 263.938 5.03125C264.078 5.03125 264.221 5.03906 264.367 5.05469C264.513 5.07031 264.659 5.09375 264.805 5.125L264.648 6.28125C264.362 6.21354 264.078 6.17969 263.797 6.17969C263.286 6.17969 262.833 6.30469 262.438 6.55469C262.047 6.80469 261.742 7.14844 261.523 7.58594C261.305 8.02344 261.195 8.52604 261.195 9.09375V13ZM271.32 16.9062H270.039V5.1875H271.18L271.242 6.32812C271.607 5.92708 272.047 5.61198 272.562 5.38281C273.078 5.14844 273.643 5.03125 274.258 5.03125C275.023 5.03125 275.708 5.20833 276.312 5.5625C276.922 5.91667 277.401 6.40104 277.75 7.01562C278.104 7.625 278.281 8.31771 278.281 9.09375C278.281 9.86458 278.104 10.5573 277.75 11.1719C277.401 11.7865 276.922 12.2708 276.312 12.625C275.708 12.9792 275.023 13.1562 274.258 13.1562C273.669 13.1562 273.122 13.0495 272.617 12.8359C272.117 12.6224 271.685 12.3255 271.32 11.9453V16.9062ZM274.156 11.9844C274.703 11.9844 275.188 11.862 275.609 11.6172C276.031 11.3672 276.359 11.0234 276.594 10.5859C276.833 10.1484 276.953 9.64844 276.953 9.08594C276.953 8.51823 276.833 8.01823 276.594 7.58594C276.354 7.14844 276.023 6.80469 275.602 6.55469C275.185 6.30469 274.706 6.17969 274.164 6.17969C273.648 6.17969 273.182 6.29427 272.766 6.52344C272.354 6.7526 272.021 7.06771 271.766 7.46875C271.51 7.86458 271.362 8.31771 271.32 8.82812V9.35938C271.362 9.86979 271.508 10.3229 271.758 10.7188C272.008 11.1146 272.339 11.4245 272.75 11.6484C273.167 11.8724 273.635 11.9844 274.156 11.9844ZM286.938 12.0391C285.969 12.7839 284.901 13.1562 283.734 13.1562C282.922 13.1562 282.193 12.974 281.547 12.6094C280.901 12.2448 280.391 11.75 280.016 11.125C279.646 10.4948 279.461 9.78385 279.461 8.99219C279.461 8.23177 279.633 7.55469 279.977 6.96094C280.32 6.36198 280.792 5.89062 281.391 5.54688C281.99 5.20312 282.669 5.03125 283.43 5.03125C284.211 5.03125 284.898 5.21875 285.492 5.59375C286.091 5.96875 286.557 6.48958 286.891 7.15625C287.224 7.82292 287.391 8.59375 287.391 9.46875V9.71875H280.852C280.945 10.1771 281.133 10.5755 281.414 10.9141C281.701 11.2526 282.055 11.5156 282.477 11.7031C282.898 11.8906 283.37 11.9844 283.891 11.9844C284.786 11.9844 285.604 11.6901 286.344 11.1016L286.938 12.0391ZM280.805 8.625H286.18C286.122 8.14062 285.971 7.71875 285.727 7.35938C285.487 6.99479 285.174 6.71094 284.789 6.50781C284.409 6.30469 283.979 6.20312 283.5 6.20312C283.016 6.20312 282.578 6.30469 282.188 6.50781C281.802 6.71094 281.487 6.99479 281.242 7.35938C281.003 7.71875 280.857 8.14062 280.805 8.625ZM290.477 13H289.195V5.1875H290.32L290.375 6.73438C290.646 6.19792 291.026 5.78125 291.516 5.48438C292.01 5.18229 292.578 5.03125 293.219 5.03125C293.359 5.03125 293.503 5.03906 293.648 5.05469C293.794 5.07031 293.94 5.09375 294.086 5.125L293.93 6.28125C293.643 6.21354 293.359 6.17969 293.078 6.17969C292.568 6.17969 292.115 6.30469 291.719 6.55469C291.328 6.80469 291.023 7.14844 290.805 7.58594C290.586 8.02344 290.477 8.52604 290.477 9.09375V13ZM297.281 13H296V6.33594H294.633V5.1875H296V3.50781C296 3.02344 296.102 2.59635 296.305 2.22656C296.513 1.85677 296.799 1.56771 297.164 1.35938C297.534 1.15104 297.958 1.04688 298.438 1.04688C298.734 1.04688 299.031 1.08854 299.328 1.17188C299.63 1.25 299.924 1.3724 300.211 1.53906L299.719 2.54688C299.542 2.43229 299.362 2.34635 299.18 2.28906C298.997 2.22656 298.815 2.19531 298.633 2.19531C298.232 2.19531 297.906 2.34115 297.656 2.63281C297.406 2.91927 297.281 3.29427 297.281 3.75781V5.1875H299.695V6.33594H297.281V13ZM308.234 12.0391C307.266 12.7839 306.198 13.1562 305.031 13.1562C304.219 13.1562 303.49 12.974 302.844 12.6094C302.198 12.2448 301.688 11.75 301.312 11.125C300.943 10.4948 300.758 9.78385 300.758 8.99219C300.758 8.23177 300.93 7.55469 301.273 6.96094C301.617 6.36198 302.089 5.89062 302.688 5.54688C303.286 5.20312 303.966 5.03125 304.727 5.03125C305.508 5.03125 306.195 5.21875 306.789 5.59375C307.388 5.96875 307.854 6.48958 308.188 7.15625C308.521 7.82292 308.688 8.59375 308.688 9.46875V9.71875H302.148C302.242 10.1771 302.43 10.5755 302.711 10.9141C302.997 11.2526 303.352 11.5156 303.773 11.7031C304.195 11.8906 304.667 11.9844 305.188 11.9844C306.083 11.9844 306.901 11.6901 307.641 11.1016L308.234 12.0391ZM302.102 8.625H307.477C307.419 8.14062 307.268 7.71875 307.023 7.35938C306.784 6.99479 306.471 6.71094 306.086 6.50781C305.706 6.30469 305.276 6.20312 304.797 6.20312C304.312 6.20312 303.875 6.30469 303.484 6.50781C303.099 6.71094 302.784 6.99479 302.539 7.35938C302.299 7.71875 302.154 8.14062 302.102 8.625ZM316.984 11.875C316.604 12.2865 316.154 12.6042 315.633 12.8281C315.112 13.0469 314.552 13.1562 313.953 13.1562C313.177 13.1562 312.479 12.9792 311.859 12.625C311.245 12.2708 310.758 11.7865 310.398 11.1719C310.044 10.5573 309.867 9.86458 309.867 9.09375C309.867 8.31771 310.044 7.625 310.398 7.01562C310.758 6.40104 311.245 5.91667 311.859 5.5625C312.479 5.20833 313.177 5.03125 313.953 5.03125C314.547 5.03125 315.104 5.14062 315.625 5.35938C316.146 5.57812 316.596 5.89323 316.977 6.30469L316.211 7.10938C315.935 6.81771 315.604 6.59375 315.219 6.4375C314.839 6.28125 314.435 6.20312 314.008 6.20312C313.461 6.20312 312.974 6.32812 312.547 6.57812C312.125 6.82292 311.792 7.16146 311.547 7.59375C311.307 8.02604 311.188 8.52344 311.188 9.08594C311.188 9.64844 311.307 10.1484 311.547 10.5859C311.792 11.0234 312.125 11.3672 312.547 11.6172C312.974 11.862 313.461 11.9844 314.008 11.9844C314.435 11.9844 314.841 11.9062 315.227 11.75C315.612 11.5885 315.94 11.3646 316.211 11.0781L316.984 11.875ZM323.242 12.8125C322.727 13.0417 322.224 13.1562 321.734 13.1562C321.266 13.1562 320.854 13.0547 320.5 12.8516C320.146 12.6432 319.87 12.3542 319.672 11.9844C319.474 11.6094 319.375 11.1745 319.375 10.6797V6.33594H318.008V5.1875H319.438V3.23438H320.656V5.1875H322.992V6.33594H320.656V10.4453C320.656 10.9141 320.781 11.2917 321.031 11.5781C321.286 11.8646 321.62 12.0078 322.031 12.0078C322.365 12.0078 322.698 11.9089 323.031 11.7109L323.242 12.8125ZM335.359 11.875C334.979 12.2865 334.529 12.6042 334.008 12.8281C333.487 13.0469 332.927 13.1562 332.328 13.1562C331.552 13.1562 330.854 12.9792 330.234 12.625C329.62 12.2708 329.133 11.7865 328.773 11.1719C328.419 10.5573 328.242 9.86458 328.242 9.09375C328.242 8.31771 328.419 7.625 328.773 7.01562C329.133 6.40104 329.62 5.91667 330.234 5.5625C330.854 5.20833 331.552 5.03125 332.328 5.03125C332.922 5.03125 333.479 5.14062 334 5.35938C334.521 5.57812 334.971 5.89323 335.352 6.30469L334.586 7.10938C334.31 6.81771 333.979 6.59375 333.594 6.4375C333.214 6.28125 332.81 6.20312 332.383 6.20312C331.836 6.20312 331.349 6.32812 330.922 6.57812C330.5 6.82292 330.167 7.16146 329.922 7.59375C329.682 8.02604 329.562 8.52344 329.562 9.08594C329.562 9.64844 329.682 10.1484 329.922 10.5859C330.167 11.0234 330.5 11.3672 330.922 11.6172C331.349 11.862 331.836 11.9844 332.383 11.9844C332.81 11.9844 333.216 11.9062 333.602 11.75C333.987 11.5885 334.315 11.3646 334.586 11.0781L335.359 11.875ZM343.469 13H342.367L342.281 11.9688C341.995 12.3385 341.63 12.6302 341.188 12.8438C340.745 13.0521 340.25 13.1562 339.703 13.1562C339.141 13.1562 338.638 13.0469 338.195 12.8281C337.753 12.6042 337.404 12.2995 337.148 11.9141C336.898 11.5286 336.773 11.0911 336.773 10.6016C336.773 10.0859 336.909 9.63281 337.18 9.24219C337.456 8.84635 337.828 8.53646 338.297 8.3125C338.771 8.08854 339.307 7.97656 339.906 7.97656C340.297 7.97656 340.695 8.02604 341.102 8.125C341.508 8.21875 341.87 8.34896 342.188 8.51562V8.1875C342.188 7.77083 342.083 7.41667 341.875 7.125C341.667 6.82812 341.388 6.60156 341.039 6.44531C340.69 6.28385 340.305 6.20312 339.883 6.20312C339.518 6.20312 339.146 6.27083 338.766 6.40625C338.385 6.53646 338.021 6.73958 337.672 7.01562L337.25 5.91406C337.703 5.6224 338.18 5.40365 338.68 5.25781C339.18 5.10677 339.674 5.03125 340.164 5.03125C340.841 5.03125 341.424 5.16927 341.914 5.44531C342.409 5.71615 342.792 6.10417 343.062 6.60938C343.333 7.10938 343.469 7.70312 343.469 8.39062V13ZM339.93 11.9844C340.331 11.9844 340.698 11.901 341.031 11.7344C341.365 11.5677 341.635 11.3281 341.844 11.0156C342.052 10.6979 342.167 10.3229 342.188 9.89062V9.75781C341.901 9.53385 341.578 9.36198 341.219 9.24219C340.865 9.11719 340.503 9.05469 340.133 9.05469C339.555 9.05469 339.07 9.19531 338.68 9.47656C338.294 9.75781 338.102 10.1146 338.102 10.5469C338.102 10.8177 338.18 11.0625 338.336 11.2812C338.497 11.5 338.716 11.6719 338.992 11.7969C339.268 11.9219 339.581 11.9844 339.93 11.9844ZM345.195 12.3203L345.531 11.1172C345.719 11.2943 345.932 11.4479 346.172 11.5781C346.411 11.7083 346.664 11.8099 346.93 11.8828C347.195 11.9505 347.464 11.9844 347.734 11.9844C348.219 11.9844 348.609 11.8776 348.906 11.6641C349.203 11.4505 349.352 11.1719 349.352 10.8281C349.352 10.5781 349.273 10.3724 349.117 10.2109C348.966 10.0443 348.766 9.90104 348.516 9.78125C348.266 9.66146 347.997 9.54688 347.711 9.4375C347.362 9.30208 347.016 9.14844 346.672 8.97656C346.328 8.80469 346.042 8.57812 345.812 8.29688C345.589 8.01562 345.477 7.64583 345.477 7.1875C345.477 6.75 345.586 6.36979 345.805 6.04688C346.023 5.72396 346.328 5.47396 346.719 5.29688C347.115 5.11979 347.568 5.03125 348.078 5.03125C348.849 5.03125 349.607 5.22396 350.352 5.60938L349.969 6.76562C349.802 6.65625 349.609 6.5599 349.391 6.47656C349.172 6.38802 348.948 6.32031 348.719 6.27344C348.49 6.22656 348.273 6.20312 348.07 6.20312C347.69 6.20312 347.383 6.29167 347.148 6.46875C346.914 6.64062 346.797 6.8724 346.797 7.16406C346.797 7.33073 346.844 7.48438 346.938 7.625C347.036 7.76042 347.201 7.89583 347.43 8.03125C347.659 8.16667 347.977 8.31771 348.383 8.48438C348.742 8.63021 349.096 8.79688 349.445 8.98438C349.794 9.16667 350.083 9.40365 350.312 9.69531C350.547 9.98177 350.664 10.3568 350.664 10.8203C350.664 11.2786 350.542 11.6849 350.297 12.0391C350.057 12.388 349.721 12.6615 349.289 12.8594C348.862 13.0573 348.367 13.1562 347.805 13.1562C346.872 13.1562 346.003 12.8776 345.195 12.3203ZM359.695 13H358.57L358.523 11.7344C358.237 12.1927 357.859 12.5443 357.391 12.7891C356.927 13.0339 356.378 13.1562 355.742 13.1562C354.706 13.1562 353.885 12.8438 353.281 12.2188C352.682 11.5885 352.383 10.7292 352.383 9.64062V5.1875H353.664V9.54688C353.664 10.2865 353.872 10.8776 354.289 11.3203C354.711 11.763 355.271 11.9844 355.969 11.9844C356.698 11.9844 357.286 11.7448 357.734 11.2656C358.188 10.7865 358.414 10.1615 358.414 9.39062V5.1875H359.695V13ZM368.266 13H367.164L367.078 11.9688C366.792 12.3385 366.427 12.6302 365.984 12.8438C365.542 13.0521 365.047 13.1562 364.5 13.1562C363.938 13.1562 363.435 13.0469 362.992 12.8281C362.549 12.6042 362.201 12.2995 361.945 11.9141C361.695 11.5286 361.57 11.0911 361.57 10.6016C361.57 10.0859 361.706 9.63281 361.977 9.24219C362.253 8.84635 362.625 8.53646 363.094 8.3125C363.568 8.08854 364.104 7.97656 364.703 7.97656C365.094 7.97656 365.492 8.02604 365.898 8.125C366.305 8.21875 366.667 8.34896 366.984 8.51562V8.1875C366.984 7.77083 366.88 7.41667 366.672 7.125C366.464 6.82812 366.185 6.60156 365.836 6.44531C365.487 6.28385 365.102 6.20312 364.68 6.20312C364.315 6.20312 363.943 6.27083 363.562 6.40625C363.182 6.53646 362.818 6.73958 362.469 7.01562L362.047 5.91406C362.5 5.6224 362.977 5.40365 363.477 5.25781C363.977 5.10677 364.471 5.03125 364.961 5.03125C365.638 5.03125 366.221 5.16927 366.711 5.44531C367.206 5.71615 367.589 6.10417 367.859 6.60938C368.13 7.10938 368.266 7.70312 368.266 8.39062V13ZM364.727 11.9844C365.128 11.9844 365.495 11.901 365.828 11.7344C366.161 11.5677 366.432 11.3281 366.641 11.0156C366.849 10.6979 366.964 10.3229 366.984 9.89062V9.75781C366.698 9.53385 366.375 9.36198 366.016 9.24219C365.661 9.11719 365.299 9.05469 364.93 9.05469C364.352 9.05469 363.867 9.19531 363.477 9.47656C363.091 9.75781 362.898 10.1146 362.898 10.5469C362.898 10.8177 362.977 11.0625 363.133 11.2812C363.294 11.5 363.513 11.6719 363.789 11.7969C364.065 11.9219 364.378 11.9844 364.727 11.9844ZM371.898 13H370.539V0.96875H371.898V13ZM386.438 13H384.953L383.188 7.03125L381.422 13H379.938L377.445 5.1875H378.805L380.672 11.4375L382.586 5.1875H383.789L385.703 11.4375L387.578 5.1875H388.938L386.438 13ZM397.203 12.0391C396.234 12.7839 395.167 13.1562 394 13.1562C393.188 13.1562 392.458 12.974 391.812 12.6094C391.167 12.2448 390.656 11.75 390.281 11.125C389.911 10.4948 389.727 9.78385 389.727 8.99219C389.727 8.23177 389.898 7.55469 390.242 6.96094C390.586 6.36198 391.057 5.89062 391.656 5.54688C392.255 5.20312 392.935 5.03125 393.695 5.03125C394.477 5.03125 395.164 5.21875 395.758 5.59375C396.357 5.96875 396.823 6.48958 397.156 7.15625C397.49 7.82292 397.656 8.59375 397.656 9.46875V9.71875H391.117C391.211 10.1771 391.398 10.5755 391.68 10.9141C391.966 11.2526 392.32 11.5156 392.742 11.7031C393.164 11.8906 393.635 11.9844 394.156 11.9844C395.052 11.9844 395.87 11.6901 396.609 11.1016L397.203 12.0391ZM391.07 8.625H396.445C396.388 8.14062 396.237 7.71875 395.992 7.35938C395.753 6.99479 395.44 6.71094 395.055 6.50781C394.674 6.30469 394.245 6.20312 393.766 6.20312C393.281 6.20312 392.844 6.30469 392.453 6.50781C392.068 6.71094 391.753 6.99479 391.508 7.35938C391.268 7.71875 391.122 8.14062 391.07 8.625ZM405.766 13H404.664L404.578 11.9688C404.292 12.3385 403.927 12.6302 403.484 12.8438C403.042 13.0521 402.547 13.1562 402 13.1562C401.438 13.1562 400.935 13.0469 400.492 12.8281C400.049 12.6042 399.701 12.2995 399.445 11.9141C399.195 11.5286 399.07 11.0911 399.07 10.6016C399.07 10.0859 399.206 9.63281 399.477 9.24219C399.753 8.84635 400.125 8.53646 400.594 8.3125C401.068 8.08854 401.604 7.97656 402.203 7.97656C402.594 7.97656 402.992 8.02604 403.398 8.125C403.805 8.21875 404.167 8.34896 404.484 8.51562V8.1875C404.484 7.77083 404.38 7.41667 404.172 7.125C403.964 6.82812 403.685 6.60156 403.336 6.44531C402.987 6.28385 402.602 6.20312 402.18 6.20312C401.815 6.20312 401.443 6.27083 401.062 6.40625C400.682 6.53646 400.318 6.73958 399.969 7.01562L399.547 5.91406C400 5.6224 400.477 5.40365 400.977 5.25781C401.477 5.10677 401.971 5.03125 402.461 5.03125C403.138 5.03125 403.721 5.16927 404.211 5.44531C404.706 5.71615 405.089 6.10417 405.359 6.60938C405.63 7.10938 405.766 7.70312 405.766 8.39062V13ZM402.227 11.9844C402.628 11.9844 402.995 11.901 403.328 11.7344C403.661 11.5677 403.932 11.3281 404.141 11.0156C404.349 10.6979 404.464 10.3229 404.484 9.89062V9.75781C404.198 9.53385 403.875 9.36198 403.516 9.24219C403.161 9.11719 402.799 9.05469 402.43 9.05469C401.852 9.05469 401.367 9.19531 400.977 9.47656C400.591 9.75781 400.398 10.1146 400.398 10.5469C400.398 10.8177 400.477 11.0625 400.633 11.2812C400.794 11.5 401.013 11.6719 401.289 11.7969C401.565 11.9219 401.878 11.9844 402.227 11.9844ZM409.32 13H408.039V5.1875H409.164L409.219 6.73438C409.49 6.19792 409.87 5.78125 410.359 5.48438C410.854 5.18229 411.422 5.03125 412.062 5.03125C412.203 5.03125 412.346 5.03906 412.492 5.05469C412.638 5.07031 412.784 5.09375 412.93 5.125L412.773 6.28125C412.487 6.21354 412.203 6.17969 411.922 6.17969C411.411 6.17969 410.958 6.30469 410.562 6.55469C410.172 6.80469 409.867 7.14844 409.648 7.58594C409.43 8.02344 409.32 8.52604 409.32 9.09375V13ZM7.70312 37.875C7.32292 38.2865 6.8724 38.6042 6.35156 38.8281C5.83073 39.0469 5.27083 39.1562 4.67188 39.1562C3.89583 39.1562 3.19792 38.9792 2.57812 38.625C1.96354 38.2708 1.47656 37.7865 1.11719 37.1719C0.763021 36.5573 0.585938 35.8646 0.585938 35.0938C0.585938 34.3177 0.763021 33.625 1.11719 33.0156C1.47656 32.401 1.96354 31.9167 2.57812 31.5625C3.19792 31.2083 3.89583 31.0312 4.67188 31.0312C5.26562 31.0312 5.82292 31.1406 6.34375 31.3594C6.86458 31.5781 7.3151 31.8932 7.69531 32.3047L6.92969 33.1094C6.65365 32.8177 6.32292 32.5938 5.9375 32.4375C5.55729 32.2812 5.15365 32.2031 4.72656 32.2031C4.17969 32.2031 3.69271 32.3281 3.26562 32.5781C2.84375 32.8229 2.51042 33.1615 2.26562 33.5938C2.02604 34.026 1.90625 34.5234 1.90625 35.0859C1.90625 35.6484 2.02604 36.1484 2.26562 36.5859C2.51042 37.0234 2.84375 37.3672 3.26562 37.6172C3.69271 37.862 4.17969 37.9844 4.72656 37.9844C5.15365 37.9844 5.5599 37.9062 5.94531 37.75C6.33073 37.5885 6.65885 37.3646 6.92969 37.0781L7.70312 37.875ZM12.9766 39.1562C12.2005 39.1562 11.5026 38.9792 10.8828 38.625C10.263 38.2708 9.77344 37.7891 9.41406 37.1797C9.0599 36.5651 8.88281 35.8698 8.88281 35.0938C8.88281 34.3229 9.0599 33.6328 9.41406 33.0234C9.77344 32.4089 10.263 31.9245 10.8828 31.5703C11.5026 31.2109 12.2005 31.0312 12.9766 31.0312C13.7526 31.0312 14.4479 31.2109 15.0625 31.5703C15.6771 31.9245 16.1615 32.4089 16.5156 33.0234C16.8698 33.6328 17.0469 34.3229 17.0469 35.0938C17.0469 35.8698 16.8698 36.5651 16.5156 37.1797C16.1615 37.7891 15.6771 38.2708 15.0625 38.625C14.4479 38.9792 13.7526 39.1562 12.9766 39.1562ZM12.9688 38C13.4948 38 13.9661 37.8724 14.3828 37.6172C14.7995 37.362 15.1276 37.0156 15.3672 36.5781C15.612 36.1406 15.7344 35.6432 15.7344 35.0859C15.7344 34.5391 15.612 34.0469 15.3672 33.6094C15.1276 33.1719 14.7995 32.8255 14.3828 32.5703C13.9661 32.3151 13.4948 32.1875 12.9688 32.1875C12.4427 32.1875 11.9688 32.3151 11.5469 32.5703C11.1302 32.8255 10.7995 33.1719 10.5547 33.6094C10.3151 34.0469 10.1953 34.5391 10.1953 35.0859C10.1953 35.6432 10.3151 36.1406 10.5547 36.5781C10.7995 37.0156 11.1302 37.362 11.5469 37.6172C11.9688 37.8724 12.4427 38 12.9688 38ZM31.2188 39H29.9375V34.8359C29.9375 33.9974 29.7526 33.3464 29.3828 32.8828C29.0182 32.4141 28.5026 32.1797 27.8359 32.1797C27.1641 32.1797 26.6354 32.4167 26.25 32.8906C25.8698 33.3594 25.6797 34.0078 25.6797 34.8359V39H24.3984V34.8359C24.3984 33.9974 24.2135 33.3464 23.8438 32.8828C23.474 32.4141 22.9557 32.1797 22.2891 32.1797C21.6172 32.1797 21.0885 32.4167 20.7031 32.8906C20.3229 33.3594 20.1328 34.0078 20.1328 34.8359V39H18.8516V31.1875H19.8984L19.9531 32.5859C20.2135 32.0755 20.5677 31.6901 21.0156 31.4297C21.4688 31.1641 22.0026 31.0312 22.6172 31.0312C23.2734 31.0312 23.8333 31.1797 24.2969 31.4766C24.7656 31.7682 25.1146 32.1875 25.3438 32.7344C25.599 32.1771 25.9609 31.7552 26.4297 31.4688C26.9036 31.1771 27.4688 31.0312 28.125 31.0312C29.099 31.0312 29.8568 31.3411 30.3984 31.9609C30.9453 32.5755 31.2188 33.4349 31.2188 34.5391V39ZM34.7734 42.9062H33.4922V31.1875H34.6328L34.6953 32.3281C35.0599 31.9271 35.5 31.612 36.0156 31.3828C36.5312 31.1484 37.0964 31.0312 37.7109 31.0312C38.4766 31.0312 39.1615 31.2083 39.7656 31.5625C40.375 31.9167 40.8542 32.401 41.2031 33.0156C41.5573 33.625 41.7344 34.3177 41.7344 35.0938C41.7344 35.8646 41.5573 36.5573 41.2031 37.1719C40.8542 37.7865 40.375 38.2708 39.7656 38.625C39.1615 38.9792 38.4766 39.1562 37.7109 39.1562C37.1224 39.1562 36.5755 39.0495 36.0703 38.8359C35.5703 38.6224 35.138 38.3255 34.7734 37.9453V42.9062ZM37.6094 37.9844C38.1562 37.9844 38.6406 37.862 39.0625 37.6172C39.4844 37.3672 39.8125 37.0234 40.0469 36.5859C40.2865 36.1484 40.4062 35.6484 40.4062 35.0859C40.4062 34.5182 40.2865 34.0182 40.0469 33.5859C39.8073 33.1484 39.4766 32.8047 39.0547 32.5547C38.638 32.3047 38.1589 32.1797 37.6172 32.1797C37.1016 32.1797 36.6354 32.2943 36.2188 32.5234C35.8073 32.7526 35.474 33.0677 35.2188 33.4688C34.9635 33.8646 34.8151 34.3177 34.7734 34.8281V35.3594C34.8151 35.8698 34.9609 36.3229 35.2109 36.7188C35.4609 37.1146 35.7917 37.4245 36.2031 37.6484C36.6198 37.8724 37.0885 37.9844 37.6094 37.9844ZM49.8438 39H48.7422L48.6562 37.9688C48.3698 38.3385 48.0052 38.6302 47.5625 38.8438C47.1198 39.0521 46.625 39.1562 46.0781 39.1562C45.5156 39.1562 45.013 39.0469 44.5703 38.8281C44.1276 38.6042 43.7786 38.2995 43.5234 37.9141C43.2734 37.5286 43.1484 37.0911 43.1484 36.6016C43.1484 36.0859 43.2839 35.6328 43.5547 35.2422C43.8307 34.8464 44.2031 34.5365 44.6719 34.3125C45.1458 34.0885 45.6823 33.9766 46.2812 33.9766C46.6719 33.9766 47.0703 34.026 47.4766 34.125C47.8828 34.2188 48.2448 34.349 48.5625 34.5156V34.1875C48.5625 33.7708 48.4583 33.4167 48.25 33.125C48.0417 32.8281 47.763 32.6016 47.4141 32.4453C47.0651 32.2839 46.6797 32.2031 46.2578 32.2031C45.8932 32.2031 45.5208 32.2708 45.1406 32.4062C44.7604 32.5365 44.3958 32.7396 44.0469 33.0156L43.625 31.9141C44.0781 31.6224 44.5547 31.4036 45.0547 31.2578C45.5547 31.1068 46.0495 31.0312 46.5391 31.0312C47.2161 31.0312 47.7995 31.1693 48.2891 31.4453C48.7839 31.7161 49.1667 32.1042 49.4375 32.6094C49.7083 33.1094 49.8438 33.7031 49.8438 34.3906V39ZM46.3047 37.9844C46.7057 37.9844 47.0729 37.901 47.4062 37.7344C47.7396 37.5677 48.0104 37.3281 48.2188 37.0156C48.4271 36.6979 48.5417 36.3229 48.5625 35.8906V35.7578C48.276 35.5339 47.9531 35.362 47.5938 35.2422C47.2396 35.1172 46.8776 35.0547 46.5078 35.0547C45.9297 35.0547 45.4453 35.1953 45.0547 35.4766C44.6693 35.7578 44.4766 36.1146 44.4766 36.5469C44.4766 36.8177 44.5547 37.0625 44.7109 37.2812C44.8724 37.5 45.0911 37.6719 45.3672 37.7969C45.6432 37.9219 45.9557 37.9844 46.3047 37.9844ZM59.4297 39H58.1484V34.6406C58.1484 33.901 57.9375 33.3099 57.5156 32.8672C57.0938 32.4245 56.5339 32.2031 55.8359 32.2031C55.112 32.2031 54.5234 32.4427 54.0703 32.9219C53.6224 33.3958 53.3984 34.0208 53.3984 34.7969V39H52.1172V31.1875H53.2344L53.2812 32.4531C53.5677 31.9948 53.9453 31.6432 54.4141 31.3984C54.8828 31.1536 55.4349 31.0312 56.0703 31.0312C57.1068 31.0312 57.9245 31.3438 58.5234 31.9688C59.1276 32.5938 59.4297 33.4505 59.4297 34.5391V39ZM62.3672 28.7188C62.1484 28.7188 61.9635 28.6432 61.8125 28.4922C61.6667 28.3359 61.5938 28.1484 61.5938 27.9297C61.5938 27.7161 61.6667 27.5339 61.8125 27.3828C61.9635 27.2318 62.1484 27.1562 62.3672 27.1562C62.5911 27.1562 62.7786 27.2318 62.9297 27.3828C63.0807 27.5339 63.1562 27.7161 63.1562 27.9297C63.1562 28.1484 63.0807 28.3359 62.9297 28.4922C62.7786 28.6432 62.5911 28.7188 62.3672 28.7188ZM63.0078 39H61.7266V31.1875H63.0078V39ZM68.9453 39.1562C68.1693 39.1562 67.4714 38.9792 66.8516 38.625C66.2318 38.2708 65.7422 37.7891 65.3828 37.1797C65.0286 36.5651 64.8516 35.8698 64.8516 35.0938C64.8516 34.3229 65.0286 33.6328 65.3828 33.0234C65.7422 32.4089 66.2318 31.9245 66.8516 31.5703C67.4714 31.2109 68.1693 31.0312 68.9453 31.0312C69.7214 31.0312 70.4167 31.2109 71.0312 31.5703C71.6458 31.9245 72.1302 32.4089 72.4844 33.0234C72.8385 33.6328 73.0156 34.3229 73.0156 35.0938C73.0156 35.8698 72.8385 36.5651 72.4844 37.1797C72.1302 37.7891 71.6458 38.2708 71.0312 38.625C70.4167 38.9792 69.7214 39.1562 68.9453 39.1562ZM68.9375 38C69.4635 38 69.9349 37.8724 70.3516 37.6172C70.7682 37.362 71.0964 37.0156 71.3359 36.5781C71.5807 36.1406 71.7031 35.6432 71.7031 35.0859C71.7031 34.5391 71.5807 34.0469 71.3359 33.6094C71.0964 33.1719 70.7682 32.8255 70.3516 32.5703C69.9349 32.3151 69.4635 32.1875 68.9375 32.1875C68.4115 32.1875 67.9375 32.3151 67.5156 32.5703C67.099 32.8255 66.7682 33.1719 66.5234 33.6094C66.2839 34.0469 66.1641 34.5391 66.1641 35.0859C66.1641 35.6432 66.2839 36.1406 66.5234 36.5781C66.7682 37.0156 67.099 37.362 67.5156 37.6172C67.9375 37.8724 68.4115 38 68.9375 38ZM82.1328 39H80.8516V34.6406C80.8516 33.901 80.6406 33.3099 80.2188 32.8672C79.7969 32.4245 79.237 32.2031 78.5391 32.2031C77.8151 32.2031 77.2266 32.4427 76.7734 32.9219C76.3255 33.3958 76.1016 34.0208 76.1016 34.7969V39H74.8203V31.1875H75.9375L75.9844 32.4531C76.2708 31.9948 76.6484 31.6432 77.1172 31.3984C77.5859 31.1536 78.138 31.0312 78.7734 31.0312C79.8099 31.0312 80.6276 31.3438 81.2266 31.9688C81.8307 32.5938 82.1328 33.4505 82.1328 34.5391V39ZM84.9922 39.1562C84.763 39.1562 84.5755 39.0859 84.4297 38.9453C84.2891 38.7995 84.2188 38.612 84.2188 38.3828C84.2188 38.1484 84.2891 37.9583 84.4297 37.8125C84.5755 37.6667 84.763 37.5938 84.9922 37.5938C85.2214 37.5938 85.4089 37.6667 85.5547 37.8125C85.7057 37.9583 85.7812 38.1484 85.7812 38.3828C85.7812 38.612 85.7057 38.7995 85.5547 38.9453C85.4089 39.0859 85.2214 39.1562 84.9922 39.1562ZM91.9297 39V27.2812H98.9922V28.5H93.3047V32.4375H98.6719V33.6562H93.3047V39H91.9297ZM108.188 38.0391C107.219 38.7839 106.151 39.1562 104.984 39.1562C104.172 39.1562 103.443 38.974 102.797 38.6094C102.151 38.2448 101.641 37.75 101.266 37.125C100.896 36.4948 100.711 35.7839 100.711 34.9922C100.711 34.2318 100.883 33.5547 101.227 32.9609C101.57 32.362 102.042 31.8906 102.641 31.5469C103.24 31.2031 103.919 31.0312 104.68 31.0312C105.461 31.0312 106.148 31.2188 106.742 31.5938C107.341 31.9688 107.807 32.4896 108.141 33.1562C108.474 33.8229 108.641 34.5938 108.641 35.4688V35.7188H102.102C102.195 36.1771 102.383 36.5755 102.664 36.9141C102.951 37.2526 103.305 37.5156 103.727 37.7031C104.148 37.8906 104.62 37.9844 105.141 37.9844C106.036 37.9844 106.854 37.6901 107.594 37.1016L108.188 38.0391ZM102.055 34.625H107.43C107.372 34.1406 107.221 33.7188 106.977 33.3594C106.737 32.9948 106.424 32.7109 106.039 32.5078C105.659 32.3047 105.229 32.2031 104.75 32.2031C104.266 32.2031 103.828 32.3047 103.438 32.5078C103.052 32.7109 102.737 32.9948 102.492 33.3594C102.253 33.7188 102.107 34.1406 102.055 34.625ZM116.75 39H115.648L115.562 37.9688C115.276 38.3385 114.911 38.6302 114.469 38.8438C114.026 39.0521 113.531 39.1562 112.984 39.1562C112.422 39.1562 111.919 39.0469 111.477 38.8281C111.034 38.6042 110.685 38.2995 110.43 37.9141C110.18 37.5286 110.055 37.0911 110.055 36.6016C110.055 36.0859 110.19 35.6328 110.461 35.2422C110.737 34.8464 111.109 34.5365 111.578 34.3125C112.052 34.0885 112.589 33.9766 113.188 33.9766C113.578 33.9766 113.977 34.026 114.383 34.125C114.789 34.2188 115.151 34.349 115.469 34.5156V34.1875C115.469 33.7708 115.365 33.4167 115.156 33.125C114.948 32.8281 114.669 32.6016 114.32 32.4453C113.971 32.2839 113.586 32.2031 113.164 32.2031C112.799 32.2031 112.427 32.2708 112.047 32.4062C111.667 32.5365 111.302 32.7396 110.953 33.0156L110.531 31.9141C110.984 31.6224 111.461 31.4036 111.961 31.2578C112.461 31.1068 112.956 31.0312 113.445 31.0312C114.122 31.0312 114.706 31.1693 115.195 31.4453C115.69 31.7161 116.073 32.1042 116.344 32.6094C116.615 33.1094 116.75 33.7031 116.75 34.3906V39ZM113.211 37.9844C113.612 37.9844 113.979 37.901 114.312 37.7344C114.646 37.5677 114.917 37.3281 115.125 37.0156C115.333 36.6979 115.448 36.3229 115.469 35.8906V35.7578C115.182 35.5339 114.859 35.362 114.5 35.2422C114.146 35.1172 113.784 35.0547 113.414 35.0547C112.836 35.0547 112.352 35.1953 111.961 35.4766C111.576 35.7578 111.383 36.1146 111.383 36.5469C111.383 36.8177 111.461 37.0625 111.617 37.2812C111.779 37.5 111.997 37.6719 112.273 37.7969C112.549 37.9219 112.862 37.9844 113.211 37.9844ZM123.32 38.8125C122.805 39.0417 122.302 39.1562 121.812 39.1562C121.344 39.1562 120.932 39.0547 120.578 38.8516C120.224 38.6432 119.948 38.3542 119.75 37.9844C119.552 37.6094 119.453 37.1745 119.453 36.6797V32.3359H118.086V31.1875H119.516V29.2344H120.734V31.1875H123.07V32.3359H120.734V36.4453C120.734 36.9141 120.859 37.2917 121.109 37.5781C121.365 37.8646 121.698 38.0078 122.109 38.0078C122.443 38.0078 122.776 37.9089 123.109 37.7109L123.32 38.8125ZM132.195 39H131.07L131.023 37.7344C130.737 38.1927 130.359 38.5443 129.891 38.7891C129.427 39.0339 128.878 39.1562 128.242 39.1562C127.206 39.1562 126.385 38.8438 125.781 38.2188C125.182 37.5885 124.883 36.7292 124.883 35.6406V31.1875H126.164V35.5469C126.164 36.2865 126.372 36.8776 126.789 37.3203C127.211 37.763 127.771 37.9844 128.469 37.9844C129.198 37.9844 129.786 37.7448 130.234 37.2656C130.688 36.7865 130.914 36.1615 130.914 35.3906V31.1875H132.195V39ZM135.898 39H134.617V31.1875H135.742L135.797 32.7344C136.068 32.1979 136.448 31.7812 136.938 31.4844C137.432 31.1823 138 31.0312 138.641 31.0312C138.781 31.0312 138.924 31.0391 139.07 31.0547C139.216 31.0703 139.362 31.0938 139.508 31.125L139.352 32.2812C139.065 32.2135 138.781 32.1797 138.5 32.1797C137.99 32.1797 137.536 32.3047 137.141 32.5547C136.75 32.8047 136.445 33.1484 136.227 33.5859C136.008 34.0234 135.898 34.526 135.898 35.0938V39ZM141.508 28.7188C141.289 28.7188 141.104 28.6432 140.953 28.4922C140.807 28.3359 140.734 28.1484 140.734 27.9297C140.734 27.7161 140.807 27.5339 140.953 27.3828C141.104 27.2318 141.289 27.1562 141.508 27.1562C141.732 27.1562 141.919 27.2318 142.07 27.3828C142.221 27.5339 142.297 27.7161 142.297 27.9297C142.297 28.1484 142.221 28.3359 142.07 28.4922C141.919 28.6432 141.732 28.7188 141.508 28.7188ZM142.148 39H140.867V31.1875H142.148V39ZM151.93 39H150.648V34.6406C150.648 33.901 150.438 33.3099 150.016 32.8672C149.594 32.4245 149.034 32.2031 148.336 32.2031C147.612 32.2031 147.023 32.4427 146.57 32.9219C146.122 33.3958 145.898 34.0208 145.898 34.7969V39H144.617V31.1875H145.734L145.781 32.4531C146.068 31.9948 146.445 31.6432 146.914 31.3984C147.383 31.1536 147.935 31.0312 148.57 31.0312C149.607 31.0312 150.424 31.3438 151.023 31.9688C151.628 32.5938 151.93 33.4505 151.93 34.5391V39ZM157.516 39C156.766 39 156.091 38.8255 155.492 38.4766C154.898 38.1276 154.43 37.6536 154.086 37.0547C153.742 36.4505 153.57 35.7708 153.57 35.0156C153.57 34.2552 153.742 33.5755 154.086 32.9766C154.43 32.3776 154.898 31.9036 155.492 31.5547C156.091 31.2057 156.768 31.0312 157.523 31.0312C158.128 31.0312 158.682 31.1458 159.188 31.375C159.693 31.599 160.122 31.9115 160.477 32.3125L160.539 31.1875H161.672V38.7969C161.672 39.6719 161.5 40.4271 161.156 41.0625C160.812 41.7031 160.323 42.1953 159.688 42.5391C159.052 42.888 158.297 43.0625 157.422 43.0625C156.182 43.0625 155.104 42.651 154.188 41.8281L154.75 40.7969C155.464 41.5365 156.336 41.9062 157.367 41.9062C157.987 41.9062 158.521 41.776 158.969 41.5156C159.422 41.2604 159.771 40.8984 160.016 40.4297C160.266 39.9609 160.391 39.4062 160.391 38.7656V37.8047C160.036 38.1745 159.612 38.4661 159.117 38.6797C158.628 38.8932 158.094 39 157.516 39ZM157.625 37.8672C158.135 37.8672 158.599 37.7526 159.016 37.5234C159.432 37.2891 159.766 36.9714 160.016 36.5703C160.266 36.1641 160.391 35.7057 160.391 35.1953V34.8359C160.391 34.3203 160.266 33.862 160.016 33.4609C159.766 33.0599 159.432 32.7448 159.016 32.5156C158.599 32.2812 158.135 32.1641 157.625 32.1641C157.099 32.1641 156.628 32.2891 156.211 32.5391C155.794 32.7891 155.464 33.1302 155.219 33.5625C154.979 33.9896 154.859 34.474 154.859 35.0156C154.859 35.5573 154.979 36.0443 155.219 36.4766C155.464 36.9089 155.794 37.25 156.211 37.5C156.628 37.7448 157.099 37.8672 157.625 37.8672ZM174.234 39H173.133L173.047 37.9688C172.76 38.3385 172.396 38.6302 171.953 38.8438C171.51 39.0521 171.016 39.1562 170.469 39.1562C169.906 39.1562 169.404 39.0469 168.961 38.8281C168.518 38.6042 168.169 38.2995 167.914 37.9141C167.664 37.5286 167.539 37.0911 167.539 36.6016C167.539 36.0859 167.674 35.6328 167.945 35.2422C168.221 34.8464 168.594 34.5365 169.062 34.3125C169.536 34.0885 170.073 33.9766 170.672 33.9766C171.062 33.9766 171.461 34.026 171.867 34.125C172.273 34.2188 172.635 34.349 172.953 34.5156V34.1875C172.953 33.7708 172.849 33.4167 172.641 33.125C172.432 32.8281 172.154 32.6016 171.805 32.4453C171.456 32.2839 171.07 32.2031 170.648 32.2031C170.284 32.2031 169.911 32.2708 169.531 32.4062C169.151 32.5365 168.786 32.7396 168.438 33.0156L168.016 31.9141C168.469 31.6224 168.945 31.4036 169.445 31.2578C169.945 31.1068 170.44 31.0312 170.93 31.0312C171.607 31.0312 172.19 31.1693 172.68 31.4453C173.174 31.7161 173.557 32.1042 173.828 32.6094C174.099 33.1094 174.234 33.7031 174.234 34.3906V39ZM170.695 37.9844C171.096 37.9844 171.464 37.901 171.797 37.7344C172.13 37.5677 172.401 37.3281 172.609 37.0156C172.818 36.6979 172.932 36.3229 172.953 35.8906V35.7578C172.667 35.5339 172.344 35.362 171.984 35.2422C171.63 35.1172 171.268 35.0547 170.898 35.0547C170.32 35.0547 169.836 35.1953 169.445 35.4766C169.06 35.7578 168.867 36.1146 168.867 36.5469C168.867 36.8177 168.945 37.0625 169.102 37.2812C169.263 37.5 169.482 37.6719 169.758 37.7969C170.034 37.9219 170.346 37.9844 170.695 37.9844ZM188.039 39H186.898L186.828 37.8594C186.469 38.2604 186.031 38.5781 185.516 38.8125C185 39.0417 184.438 39.1562 183.828 39.1562C183.057 39.1562 182.367 38.9792 181.758 38.625C181.148 38.2708 180.667 37.7865 180.312 37.1719C179.964 36.5573 179.789 35.8646 179.789 35.0938C179.789 34.3177 179.964 33.625 180.312 33.0156C180.667 32.401 181.148 31.9167 181.758 31.5625C182.367 31.2083 183.057 31.0312 183.828 31.0312C184.417 31.0312 184.961 31.138 185.461 31.3516C185.966 31.5651 186.398 31.862 186.758 32.2422V27.2812H188.039V39ZM183.938 38C184.458 38 184.932 37.8802 185.359 37.6406C185.786 37.3958 186.125 37.0651 186.375 36.6484C186.63 36.2266 186.758 35.75 186.758 35.2188V34.9531C186.758 34.4219 186.63 33.9479 186.375 33.5312C186.125 33.1094 185.786 32.7786 185.359 32.5391C184.932 32.2995 184.458 32.1797 183.938 32.1797C183.396 32.1797 182.911 32.3073 182.484 32.5625C182.057 32.8177 181.719 33.1641 181.469 33.6016C181.224 34.0391 181.102 34.5339 181.102 35.0859C181.102 35.638 181.224 36.1354 181.469 36.5781C181.719 37.0156 182.057 37.362 182.484 37.6172C182.911 37.8724 183.396 38 183.938 38ZM197.617 39H196.492L196.445 37.7344C196.159 38.1927 195.781 38.5443 195.312 38.7891C194.849 39.0339 194.299 39.1562 193.664 39.1562C192.628 39.1562 191.807 38.8438 191.203 38.2188C190.604 37.5885 190.305 36.7292 190.305 35.6406V31.1875H191.586V35.5469C191.586 36.2865 191.794 36.8776 192.211 37.3203C192.633 37.763 193.193 37.9844 193.891 37.9844C194.62 37.9844 195.208 37.7448 195.656 37.2656C196.109 36.7865 196.336 36.1615 196.336 35.3906V31.1875H197.617V39ZM201.32 39H200.039V31.1875H201.164L201.219 32.7344C201.49 32.1979 201.87 31.7812 202.359 31.4844C202.854 31.1823 203.422 31.0312 204.062 31.0312C204.203 31.0312 204.346 31.0391 204.492 31.0547C204.638 31.0703 204.784 31.0938 204.93 31.125L204.773 32.2812C204.487 32.2135 204.203 32.1797 203.922 32.1797C203.411 32.1797 202.958 32.3047 202.562 32.5547C202.172 32.8047 201.867 33.1484 201.648 33.5859C201.43 34.0234 201.32 34.526 201.32 35.0938V39ZM212.328 39H211.227L211.141 37.9688C210.854 38.3385 210.49 38.6302 210.047 38.8438C209.604 39.0521 209.109 39.1562 208.562 39.1562C208 39.1562 207.497 39.0469 207.055 38.8281C206.612 38.6042 206.263 38.2995 206.008 37.9141C205.758 37.5286 205.633 37.0911 205.633 36.6016C205.633 36.0859 205.768 35.6328 206.039 35.2422C206.315 34.8464 206.688 34.5365 207.156 34.3125C207.63 34.0885 208.167 33.9766 208.766 33.9766C209.156 33.9766 209.555 34.026 209.961 34.125C210.367 34.2188 210.729 34.349 211.047 34.5156V34.1875C211.047 33.7708 210.943 33.4167 210.734 33.125C210.526 32.8281 210.247 32.6016 209.898 32.4453C209.549 32.2839 209.164 32.2031 208.742 32.2031C208.378 32.2031 208.005 32.2708 207.625 32.4062C207.245 32.5365 206.88 32.7396 206.531 33.0156L206.109 31.9141C206.562 31.6224 207.039 31.4036 207.539 31.2578C208.039 31.1068 208.534 31.0312 209.023 31.0312C209.701 31.0312 210.284 31.1693 210.773 31.4453C211.268 31.7161 211.651 32.1042 211.922 32.6094C212.193 33.1094 212.328 33.7031 212.328 34.3906V39ZM208.789 37.9844C209.19 37.9844 209.557 37.901 209.891 37.7344C210.224 37.5677 210.495 37.3281 210.703 37.0156C210.911 36.6979 211.026 36.3229 211.047 35.8906V35.7578C210.76 35.5339 210.438 35.362 210.078 35.2422C209.724 35.1172 209.362 35.0547 208.992 35.0547C208.414 35.0547 207.93 35.1953 207.539 35.4766C207.154 35.7578 206.961 36.1146 206.961 36.5469C206.961 36.8177 207.039 37.0625 207.195 37.2812C207.357 37.5 207.576 37.6719 207.852 37.7969C208.128 37.9219 208.44 37.9844 208.789 37.9844ZM215.742 39H214.602V27.2812H215.883V32.2422C216.247 31.862 216.68 31.5651 217.18 31.3516C217.68 31.138 218.224 31.0312 218.812 31.0312C219.583 31.0312 220.271 31.2083 220.875 31.5625C221.479 31.9167 221.956 32.401 222.305 33.0156C222.659 33.625 222.836 34.3177 222.836 35.0938C222.836 35.8646 222.659 36.5573 222.305 37.1719C221.956 37.7865 221.479 38.2708 220.875 38.625C220.271 38.9792 219.583 39.1562 218.812 39.1562C218.198 39.1562 217.633 39.0417 217.117 38.8125C216.607 38.5781 216.169 38.2604 215.805 37.8594L215.742 39ZM218.703 38C219.24 38 219.719 37.875 220.141 37.625C220.568 37.3698 220.904 37.0234 221.148 36.5859C221.398 36.1484 221.523 35.6536 221.523 35.1016C221.523 34.5443 221.398 34.0469 221.148 33.6094C220.904 33.1667 220.568 32.8177 220.141 32.5625C219.719 32.3073 219.24 32.1797 218.703 32.1797C218.193 32.1797 217.729 32.2969 217.312 32.5312C216.901 32.7656 216.568 33.0859 216.312 33.4922C216.062 33.8984 215.919 34.3594 215.883 34.875V35.3047C215.919 35.8203 216.062 36.2812 216.312 36.6875C216.562 37.0938 216.893 37.4141 217.305 37.6484C217.721 37.8828 218.188 38 218.703 38ZM225.992 39H224.633V26.9688H225.992V39ZM235.266 38.0391C234.297 38.7839 233.229 39.1562 232.062 39.1562C231.25 39.1562 230.521 38.974 229.875 38.6094C229.229 38.2448 228.719 37.75 228.344 37.125C227.974 36.4948 227.789 35.7839 227.789 34.9922C227.789 34.2318 227.961 33.5547 228.305 32.9609C228.648 32.362 229.12 31.8906 229.719 31.5469C230.318 31.2031 230.997 31.0312 231.758 31.0312C232.539 31.0312 233.227 31.2188 233.82 31.5938C234.419 31.9688 234.885 32.4896 235.219 33.1562C235.552 33.8229 235.719 34.5938 235.719 35.4688V35.7188H229.18C229.273 36.1771 229.461 36.5755 229.742 36.9141C230.029 37.2526 230.383 37.5156 230.805 37.7031C231.227 37.8906 231.698 37.9844 232.219 37.9844C233.115 37.9844 233.932 37.6901 234.672 37.1016L235.266 38.0391ZM229.133 34.625H234.508C234.451 34.1406 234.299 33.7188 234.055 33.3594C233.815 32.9948 233.503 32.7109 233.117 32.5078C232.737 32.3047 232.307 32.2031 231.828 32.2031C231.344 32.2031 230.906 32.3047 230.516 32.5078C230.13 32.7109 229.815 32.9948 229.57 33.3594C229.331 33.7188 229.185 34.1406 229.133 34.625ZM242.711 39H241.43V31.1875H242.555L242.609 32.7344C242.88 32.1979 243.26 31.7812 243.75 31.4844C244.245 31.1823 244.812 31.0312 245.453 31.0312C245.594 31.0312 245.737 31.0391 245.883 31.0547C246.029 31.0703 246.174 31.0938 246.32 31.125L246.164 32.2812C245.878 32.2135 245.594 32.1797 245.312 32.1797C244.802 32.1797 244.349 32.3047 243.953 32.5547C243.562 32.8047 243.258 33.1484 243.039 33.5859C242.82 34.0234 242.711 34.526 242.711 35.0938V39ZM254.805 39H253.68L253.633 37.7344C253.346 38.1927 252.969 38.5443 252.5 38.7891C252.036 39.0339 251.487 39.1562 250.852 39.1562C249.815 39.1562 248.995 38.8438 248.391 38.2188C247.792 37.5885 247.492 36.7292 247.492 35.6406V31.1875H248.773V35.5469C248.773 36.2865 248.982 36.8776 249.398 37.3203C249.82 37.763 250.38 37.9844 251.078 37.9844C251.807 37.9844 252.396 37.7448 252.844 37.2656C253.297 36.7865 253.523 36.1615 253.523 35.3906V31.1875H254.805V39ZM258.367 39H257.227V27.2812H258.508V32.2422C258.872 31.862 259.305 31.5651 259.805 31.3516C260.305 31.138 260.849 31.0312 261.438 31.0312C262.208 31.0312 262.896 31.2083 263.5 31.5625C264.104 31.9167 264.581 32.401 264.93 33.0156C265.284 33.625 265.461 34.3177 265.461 35.0938C265.461 35.8646 265.284 36.5573 264.93 37.1719C264.581 37.7865 264.104 38.2708 263.5 38.625C262.896 38.9792 262.208 39.1562 261.438 39.1562C260.823 39.1562 260.258 39.0417 259.742 38.8125C259.232 38.5781 258.794 38.2604 258.43 37.8594L258.367 39ZM261.328 38C261.865 38 262.344 37.875 262.766 37.625C263.193 37.3698 263.529 37.0234 263.773 36.5859C264.023 36.1484 264.148 35.6536 264.148 35.1016C264.148 34.5443 264.023 34.0469 263.773 33.6094C263.529 33.1667 263.193 32.8177 262.766 32.5625C262.344 32.3073 261.865 32.1797 261.328 32.1797C260.818 32.1797 260.354 32.2969 259.938 32.5312C259.526 32.7656 259.193 33.0859 258.938 33.4922C258.688 33.8984 258.544 34.3594 258.508 34.875V35.3047C258.544 35.8203 258.688 36.2812 258.938 36.6875C259.188 37.0938 259.518 37.4141 259.93 37.6484C260.346 37.8828 260.812 38 261.328 38ZM268.398 39H267.258V27.2812H268.539V32.2422C268.904 31.862 269.336 31.5651 269.836 31.3516C270.336 31.138 270.88 31.0312 271.469 31.0312C272.24 31.0312 272.927 31.2083 273.531 31.5625C274.135 31.9167 274.612 32.401 274.961 33.0156C275.315 33.625 275.492 34.3177 275.492 35.0938C275.492 35.8646 275.315 36.5573 274.961 37.1719C274.612 37.7865 274.135 38.2708 273.531 38.625C272.927 38.9792 272.24 39.1562 271.469 39.1562C270.854 39.1562 270.289 39.0417 269.773 38.8125C269.263 38.5781 268.826 38.2604 268.461 37.8594L268.398 39ZM271.359 38C271.896 38 272.375 37.875 272.797 37.625C273.224 37.3698 273.56 37.0234 273.805 36.5859C274.055 36.1484 274.18 35.6536 274.18 35.1016C274.18 34.5443 274.055 34.0469 273.805 33.6094C273.56 33.1667 273.224 32.8177 272.797 32.5625C272.375 32.3073 271.896 32.1797 271.359 32.1797C270.849 32.1797 270.385 32.2969 269.969 32.5312C269.557 32.7656 269.224 33.0859 268.969 33.4922C268.719 33.8984 268.576 34.3594 268.539 34.875V35.3047C268.576 35.8203 268.719 36.2812 268.969 36.6875C269.219 37.0938 269.549 37.4141 269.961 37.6484C270.378 37.8828 270.844 38 271.359 38ZM284.141 38.0391C283.172 38.7839 282.104 39.1562 280.938 39.1562C280.125 39.1562 279.396 38.974 278.75 38.6094C278.104 38.2448 277.594 37.75 277.219 37.125C276.849 36.4948 276.664 35.7839 276.664 34.9922C276.664 34.2318 276.836 33.5547 277.18 32.9609C277.523 32.362 277.995 31.8906 278.594 31.5469C279.193 31.2031 279.872 31.0312 280.633 31.0312C281.414 31.0312 282.102 31.2188 282.695 31.5938C283.294 31.9688 283.76 32.4896 284.094 33.1562C284.427 33.8229 284.594 34.5938 284.594 35.4688V35.7188H278.055C278.148 36.1771 278.336 36.5755 278.617 36.9141C278.904 37.2526 279.258 37.5156 279.68 37.7031C280.102 37.8906 280.573 37.9844 281.094 37.9844C281.99 37.9844 282.807 37.6901 283.547 37.1016L284.141 38.0391ZM278.008 34.625H283.383C283.326 34.1406 283.174 33.7188 282.93 33.3594C282.69 32.9948 282.378 32.7109 281.992 32.5078C281.612 32.3047 281.182 32.2031 280.703 32.2031C280.219 32.2031 279.781 32.3047 279.391 32.5078C279.005 32.7109 278.69 32.9948 278.445 33.3594C278.206 33.7188 278.06 34.1406 278.008 34.625ZM287.68 39H286.398V31.1875H287.523L287.578 32.7344C287.849 32.1979 288.229 31.7812 288.719 31.4844C289.214 31.1823 289.781 31.0312 290.422 31.0312C290.562 31.0312 290.706 31.0391 290.852 31.0547C290.997 31.0703 291.143 31.0938 291.289 31.125L291.133 32.2812C290.846 32.2135 290.562 32.1797 290.281 32.1797C289.771 32.1797 289.318 32.3047 288.922 32.5547C288.531 32.8047 288.227 33.1484 288.008 33.5859C287.789 34.0234 287.68 34.526 287.68 35.0938V39ZM299.992 39.1562C299.216 39.1562 298.518 38.9792 297.898 38.625C297.279 38.2708 296.789 37.7891 296.43 37.1797C296.076 36.5651 295.898 35.8698 295.898 35.0938C295.898 34.3229 296.076 33.6328 296.43 33.0234C296.789 32.4089 297.279 31.9245 297.898 31.5703C298.518 31.2109 299.216 31.0312 299.992 31.0312C300.768 31.0312 301.464 31.2109 302.078 31.5703C302.693 31.9245 303.177 32.4089 303.531 33.0234C303.885 33.6328 304.062 34.3229 304.062 35.0938C304.062 35.8698 303.885 36.5651 303.531 37.1797C303.177 37.7891 302.693 38.2708 302.078 38.625C301.464 38.9792 300.768 39.1562 299.992 39.1562ZM299.984 38C300.51 38 300.982 37.8724 301.398 37.6172C301.815 37.362 302.143 37.0156 302.383 36.5781C302.628 36.1406 302.75 35.6432 302.75 35.0859C302.75 34.5391 302.628 34.0469 302.383 33.6094C302.143 33.1719 301.815 32.8255 301.398 32.5703C300.982 32.3151 300.51 32.1875 299.984 32.1875C299.458 32.1875 298.984 32.3151 298.562 32.5703C298.146 32.8255 297.815 33.1719 297.57 33.6094C297.331 34.0469 297.211 34.5391 297.211 35.0859C297.211 35.6432 297.331 36.1406 297.57 36.5781C297.815 37.0156 298.146 37.362 298.562 37.6172C298.984 37.8724 299.458 38 299.984 38ZM313.023 39H311.898L311.852 37.7344C311.565 38.1927 311.188 38.5443 310.719 38.7891C310.255 39.0339 309.706 39.1562 309.07 39.1562C308.034 39.1562 307.214 38.8438 306.609 38.2188C306.01 37.5885 305.711 36.7292 305.711 35.6406V31.1875H306.992V35.5469C306.992 36.2865 307.201 36.8776 307.617 37.3203C308.039 37.763 308.599 37.9844 309.297 37.9844C310.026 37.9844 310.615 37.7448 311.062 37.2656C311.516 36.7865 311.742 36.1615 311.742 35.3906V31.1875H313.023V39ZM319.977 38.8125C319.461 39.0417 318.958 39.1562 318.469 39.1562C318 39.1562 317.589 39.0547 317.234 38.8516C316.88 38.6432 316.604 38.3542 316.406 37.9844C316.208 37.6094 316.109 37.1745 316.109 36.6797V32.3359H314.742V31.1875H316.172V29.2344H317.391V31.1875H319.727V32.3359H317.391V36.4453C317.391 36.9141 317.516 37.2917 317.766 37.5781C318.021 37.8646 318.354 38.0078 318.766 38.0078C319.099 38.0078 319.432 37.9089 319.766 37.7109L319.977 38.8125ZM328.547 38.0391C327.578 38.7839 326.51 39.1562 325.344 39.1562C324.531 39.1562 323.802 38.974 323.156 38.6094C322.51 38.2448 322 37.75 321.625 37.125C321.255 36.4948 321.07 35.7839 321.07 34.9922C321.07 34.2318 321.242 33.5547 321.586 32.9609C321.93 32.362 322.401 31.8906 323 31.5469C323.599 31.2031 324.279 31.0312 325.039 31.0312C325.82 31.0312 326.508 31.2188 327.102 31.5938C327.701 31.9688 328.167 32.4896 328.5 33.1562C328.833 33.8229 329 34.5938 329 35.4688V35.7188H322.461C322.555 36.1771 322.742 36.5755 323.023 36.9141C323.31 37.2526 323.664 37.5156 324.086 37.7031C324.508 37.8906 324.979 37.9844 325.5 37.9844C326.396 37.9844 327.214 37.6901 327.953 37.1016L328.547 38.0391ZM322.414 34.625H327.789C327.732 34.1406 327.581 33.7188 327.336 33.3594C327.096 32.9948 326.784 32.7109 326.398 32.5078C326.018 32.3047 325.589 32.2031 325.109 32.2031C324.625 32.2031 324.188 32.3047 323.797 32.5078C323.411 32.7109 323.096 32.9948 322.852 33.3594C322.612 33.7188 322.466 34.1406 322.414 34.625ZM332.086 39H330.805V31.1875H331.93L331.984 32.7344C332.255 32.1979 332.635 31.7812 333.125 31.4844C333.62 31.1823 334.188 31.0312 334.828 31.0312C334.969 31.0312 335.112 31.0391 335.258 31.0547C335.404 31.0703 335.549 31.0938 335.695 31.125L335.539 32.2812C335.253 32.2135 334.969 32.1797 334.688 32.1797C334.177 32.1797 333.724 32.3047 333.328 32.5547C332.938 32.8047 332.633 33.1484 332.414 33.5859C332.195 34.0234 332.086 34.526 332.086 35.0938V39ZM340.383 38.3203L340.719 37.1172C340.906 37.2943 341.12 37.4479 341.359 37.5781C341.599 37.7083 341.852 37.8099 342.117 37.8828C342.383 37.9505 342.651 37.9844 342.922 37.9844C343.406 37.9844 343.797 37.8776 344.094 37.6641C344.391 37.4505 344.539 37.1719 344.539 36.8281C344.539 36.5781 344.461 36.3724 344.305 36.2109C344.154 36.0443 343.953 35.901 343.703 35.7812C343.453 35.6615 343.185 35.5469 342.898 35.4375C342.549 35.3021 342.203 35.1484 341.859 34.9766C341.516 34.8047 341.229 34.5781 341 34.2969C340.776 34.0156 340.664 33.6458 340.664 33.1875C340.664 32.75 340.773 32.3698 340.992 32.0469C341.211 31.724 341.516 31.474 341.906 31.2969C342.302 31.1198 342.755 31.0312 343.266 31.0312C344.036 31.0312 344.794 31.224 345.539 31.6094L345.156 32.7656C344.99 32.6562 344.797 32.5599 344.578 32.4766C344.359 32.388 344.135 32.3203 343.906 32.2734C343.677 32.2266 343.461 32.2031 343.258 32.2031C342.878 32.2031 342.57 32.2917 342.336 32.4688C342.102 32.6406 341.984 32.8724 341.984 33.1641C341.984 33.3307 342.031 33.4844 342.125 33.625C342.224 33.7604 342.388 33.8958 342.617 34.0312C342.846 34.1667 343.164 34.3177 343.57 34.4844C343.93 34.6302 344.284 34.7969 344.633 34.9844C344.982 35.1667 345.271 35.4036 345.5 35.6953C345.734 35.9818 345.852 36.3568 345.852 36.8203C345.852 37.2786 345.729 37.6849 345.484 38.0391C345.245 38.388 344.909 38.6615 344.477 38.8594C344.049 39.0573 343.555 39.1562 342.992 39.1562C342.06 39.1562 341.19 38.8776 340.383 38.3203ZM351.195 39.1562C350.419 39.1562 349.721 38.9792 349.102 38.625C348.482 38.2708 347.992 37.7891 347.633 37.1797C347.279 36.5651 347.102 35.8698 347.102 35.0938C347.102 34.3229 347.279 33.6328 347.633 33.0234C347.992 32.4089 348.482 31.9245 349.102 31.5703C349.721 31.2109 350.419 31.0312 351.195 31.0312C351.971 31.0312 352.667 31.2109 353.281 31.5703C353.896 31.9245 354.38 32.4089 354.734 33.0234C355.089 33.6328 355.266 34.3229 355.266 35.0938C355.266 35.8698 355.089 36.5651 354.734 37.1797C354.38 37.7891 353.896 38.2708 353.281 38.625C352.667 38.9792 351.971 39.1562 351.195 39.1562ZM351.188 38C351.714 38 352.185 37.8724 352.602 37.6172C353.018 37.362 353.346 37.0156 353.586 36.5781C353.831 36.1406 353.953 35.6432 353.953 35.0859C353.953 34.5391 353.831 34.0469 353.586 33.6094C353.346 33.1719 353.018 32.8255 352.602 32.5703C352.185 32.3151 351.714 32.1875 351.188 32.1875C350.661 32.1875 350.188 32.3151 349.766 32.5703C349.349 32.8255 349.018 33.1719 348.773 33.6094C348.534 34.0469 348.414 34.5391 348.414 35.0859C348.414 35.6432 348.534 36.1406 348.773 36.5781C349.018 37.0156 349.349 37.362 349.766 37.6172C350.188 37.8724 350.661 38 351.188 38ZM358.43 39H357.07V26.9688H358.43V39ZM367.703 38.0391C366.734 38.7839 365.667 39.1562 364.5 39.1562C363.688 39.1562 362.958 38.974 362.312 38.6094C361.667 38.2448 361.156 37.75 360.781 37.125C360.411 36.4948 360.227 35.7839 360.227 34.9922C360.227 34.2318 360.398 33.5547 360.742 32.9609C361.086 32.362 361.557 31.8906 362.156 31.5469C362.755 31.2031 363.435 31.0312 364.195 31.0312C364.977 31.0312 365.664 31.2188 366.258 31.5938C366.857 31.9688 367.323 32.4896 367.656 33.1562C367.99 33.8229 368.156 34.5938 368.156 35.4688V35.7188H361.617C361.711 36.1771 361.898 36.5755 362.18 36.9141C362.466 37.2526 362.82 37.5156 363.242 37.7031C363.664 37.8906 364.135 37.9844 364.656 37.9844C365.552 37.9844 366.37 37.6901 367.109 37.1016L367.703 38.0391ZM361.57 34.625H366.945C366.888 34.1406 366.737 33.7188 366.492 33.3594C366.253 32.9948 365.94 32.7109 365.555 32.5078C365.174 32.3047 364.745 32.2031 364.266 32.2031C363.781 32.2031 363.344 32.3047 362.953 32.5078C362.568 32.7109 362.253 32.9948 362.008 33.3594C361.768 33.7188 361.622 34.1406 361.57 34.625ZM370.594 40.875H369.648L370.273 37.5938H371.445L370.594 40.875ZM382.07 38.8125C381.555 39.0417 381.052 39.1562 380.562 39.1562C380.094 39.1562 379.682 39.0547 379.328 38.8516C378.974 38.6432 378.698 38.3542 378.5 37.9844C378.302 37.6094 378.203 37.1745 378.203 36.6797V32.3359H376.836V31.1875H378.266V29.2344H379.484V31.1875H381.82V32.3359H379.484V36.4453C379.484 36.9141 379.609 37.2917 379.859 37.5781C380.115 37.8646 380.448 38.0078 380.859 38.0078C381.193 38.0078 381.526 37.9089 381.859 37.7109L382.07 38.8125ZM383.789 39V27.2812H385.07V32.3594C385.659 31.474 386.57 31.0312 387.805 31.0312C388.841 31.0312 389.648 31.3411 390.227 31.9609C390.81 32.5755 391.102 33.4349 391.102 34.5391V39H389.82V34.8359C389.82 33.9974 389.612 33.3464 389.195 32.8828C388.784 32.4141 388.208 32.1797 387.469 32.1797C386.724 32.1797 386.138 32.4167 385.711 32.8906C385.284 33.3646 385.07 34.013 385.07 34.8359V39H383.789ZM400.219 38.0391C399.25 38.7839 398.182 39.1562 397.016 39.1562C396.203 39.1562 395.474 38.974 394.828 38.6094C394.182 38.2448 393.672 37.75 393.297 37.125C392.927 36.4948 392.742 35.7839 392.742 34.9922C392.742 34.2318 392.914 33.5547 393.258 32.9609C393.602 32.362 394.073 31.8906 394.672 31.5469C395.271 31.2031 395.951 31.0312 396.711 31.0312C397.492 31.0312 398.18 31.2188 398.773 31.5938C399.372 31.9688 399.839 32.4896 400.172 33.1562C400.505 33.8229 400.672 34.5938 400.672 35.4688V35.7188H394.133C394.227 36.1771 394.414 36.5755 394.695 36.9141C394.982 37.2526 395.336 37.5156 395.758 37.7031C396.18 37.8906 396.651 37.9844 397.172 37.9844C398.068 37.9844 398.885 37.6901 399.625 37.1016L400.219 38.0391ZM394.086 34.625H399.461C399.404 34.1406 399.253 33.7188 399.008 33.3594C398.768 32.9948 398.456 32.7109 398.07 32.5078C397.69 32.3047 397.26 32.2031 396.781 32.2031C396.297 32.2031 395.859 32.3047 395.469 32.5078C395.083 32.7109 394.768 32.9948 394.523 33.3594C394.284 33.7188 394.138 34.1406 394.086 34.625ZM404.719 42.9062H403.32L404.961 38.9375L401.227 31.1875H402.641L405.578 37.4609L408.172 31.1875H409.562L404.719 42.9062ZM411.969 30.6406H411.211L412 27.125H412.945L411.969 30.6406ZM416.727 39H415.367V26.9688H416.727V39ZM420.508 39H419.148V26.9688H420.508V39ZM9.42188 65H7.9375L6.17188 59.0312L4.40625 65H2.92188L0.429688 57.1875H1.78906L3.65625 63.4375L5.57031 57.1875H6.77344L8.6875 63.4375L10.5625 57.1875H11.9219L9.42188 65ZM14.2422 54.7188C14.0234 54.7188 13.8385 54.6432 13.6875 54.4922C13.5417 54.3359 13.4688 54.1484 13.4688 53.9297C13.4688 53.7161 13.5417 53.5339 13.6875 53.3828C13.8385 53.2318 14.0234 53.1562 14.2422 53.1562C14.4661 53.1562 14.6536 53.2318 14.8047 53.3828C14.9557 53.5339 15.0312 53.7161 15.0312 53.9297C15.0312 54.1484 14.9557 54.3359 14.8047 54.4922C14.6536 54.6432 14.4661 54.7188 14.2422 54.7188ZM14.8828 65H13.6016V57.1875H14.8828V65ZM21.8828 64.8125C21.3672 65.0417 20.8646 65.1562 20.375 65.1562C19.9062 65.1562 19.4948 65.0547 19.1406 64.8516C18.7865 64.6432 18.5104 64.3542 18.3125 63.9844C18.1146 63.6094 18.0156 63.1745 18.0156 62.6797V58.3359H16.6484V57.1875H18.0781V55.2344H19.2969V57.1875H21.6328V58.3359H19.2969V62.4453C19.2969 62.9141 19.4219 63.2917 19.6719 63.5781C19.9271 63.8646 20.2604 64.0078 20.6719 64.0078C21.0052 64.0078 21.3385 63.9089 21.6719 63.7109L21.8828 64.8125ZM23.6016 65V53.2812H24.8828V58.3594C25.4714 57.474 26.3828 57.0312 27.6172 57.0312C28.6536 57.0312 29.4609 57.3411 30.0391 57.9609C30.6224 58.5755 30.9141 59.4349 30.9141 60.5391V65H29.6328V60.8359C29.6328 59.9974 29.4245 59.3464 29.0078 58.8828C28.5964 58.4141 28.0208 58.1797 27.2812 58.1797C26.5365 58.1797 25.9505 58.4167 25.5234 58.8906C25.0964 59.3646 24.8828 60.013 24.8828 60.8359V65H23.6016ZM32.6328 64.3203L32.9688 63.1172C33.1562 63.2943 33.3698 63.4479 33.6094 63.5781C33.849 63.7083 34.1016 63.8099 34.3672 63.8828C34.6328 63.9505 34.901 63.9844 35.1719 63.9844C35.6562 63.9844 36.0469 63.8776 36.3438 63.6641C36.6406 63.4505 36.7891 63.1719 36.7891 62.8281C36.7891 62.5781 36.7109 62.3724 36.5547 62.2109C36.4036 62.0443 36.2031 61.901 35.9531 61.7812C35.7031 61.6615 35.4349 61.5469 35.1484 61.4375C34.7995 61.3021 34.4531 61.1484 34.1094 60.9766C33.7656 60.8047 33.4792 60.5781 33.25 60.2969C33.026 60.0156 32.9141 59.6458 32.9141 59.1875C32.9141 58.75 33.0234 58.3698 33.2422 58.0469C33.4609 57.724 33.7656 57.474 34.1562 57.2969C34.5521 57.1198 35.0052 57.0312 35.5156 57.0312C36.2865 57.0312 37.0443 57.224 37.7891 57.6094L37.4062 58.7656C37.2396 58.6562 37.0469 58.5599 36.8281 58.4766C36.6094 58.388 36.3854 58.3203 36.1562 58.2734C35.9271 58.2266 35.7109 58.2031 35.5078 58.2031C35.1276 58.2031 34.8203 58.2917 34.5859 58.4688C34.3516 58.6406 34.2344 58.8724 34.2344 59.1641C34.2344 59.3307 34.2812 59.4844 34.375 59.625C34.474 59.7604 34.638 59.8958 34.8672 60.0312C35.0964 60.1667 35.4141 60.3177 35.8203 60.4844C36.1797 60.6302 36.5339 60.7969 36.8828 60.9844C37.2318 61.1667 37.5208 61.4036 37.75 61.6953C37.9844 61.9818 38.1016 62.3568 38.1016 62.8203C38.1016 63.2786 37.9792 63.6849 37.7344 64.0391C37.4948 64.388 37.1589 64.6615 36.7266 64.8594C36.2995 65.0573 35.8047 65.1562 35.2422 65.1562C34.3099 65.1562 33.4401 64.8776 32.6328 64.3203ZM44.4297 64.8125C43.9141 65.0417 43.4115 65.1562 42.9219 65.1562C42.4531 65.1562 42.0417 65.0547 41.6875 64.8516C41.3333 64.6432 41.0573 64.3542 40.8594 63.9844C40.6615 63.6094 40.5625 63.1745 40.5625 62.6797V58.3359H39.1953V57.1875H40.625V55.2344H41.8438V57.1875H44.1797V58.3359H41.8438V62.4453C41.8438 62.9141 41.9688 63.2917 42.2188 63.5781C42.474 63.8646 42.8073 64.0078 43.2188 64.0078C43.5521 64.0078 43.8854 63.9089 44.2188 63.7109L44.4297 64.8125ZM52.2969 65H51.1953L51.1094 63.9688C50.8229 64.3385 50.4583 64.6302 50.0156 64.8438C49.5729 65.0521 49.0781 65.1562 48.5312 65.1562C47.9688 65.1562 47.4661 65.0469 47.0234 64.8281C46.5807 64.6042 46.2318 64.2995 45.9766 63.9141C45.7266 63.5286 45.6016 63.0911 45.6016 62.6016C45.6016 62.0859 45.737 61.6328 46.0078 61.2422C46.2839 60.8464 46.6562 60.5365 47.125 60.3125C47.599 60.0885 48.1354 59.9766 48.7344 59.9766C49.125 59.9766 49.5234 60.026 49.9297 60.125C50.3359 60.2188 50.6979 60.349 51.0156 60.5156V60.1875C51.0156 59.7708 50.9115 59.4167 50.7031 59.125C50.4948 58.8281 50.2161 58.6016 49.8672 58.4453C49.5182 58.2839 49.1328 58.2031 48.7109 58.2031C48.3464 58.2031 47.974 58.2708 47.5938 58.4062C47.2135 58.5365 46.849 58.7396 46.5 59.0156L46.0781 57.9141C46.5312 57.6224 47.0078 57.4036 47.5078 57.2578C48.0078 57.1068 48.5026 57.0312 48.9922 57.0312C49.6693 57.0312 50.2526 57.1693 50.7422 57.4453C51.237 57.7161 51.6198 58.1042 51.8906 58.6094C52.1615 59.1094 52.2969 59.7031 52.2969 60.3906V65ZM48.7578 63.9844C49.1589 63.9844 49.526 63.901 49.8594 63.7344C50.1927 63.5677 50.4635 63.3281 50.6719 63.0156C50.8802 62.6979 50.9948 62.3229 51.0156 61.8906V61.7578C50.7292 61.5339 50.4062 61.362 50.0469 61.2422C49.6927 61.1172 49.3307 61.0547 48.9609 61.0547C48.3828 61.0547 47.8984 61.1953 47.5078 61.4766C47.1224 61.7578 46.9297 62.1146 46.9297 62.5469C46.9297 62.8177 47.0078 63.0625 47.1641 63.2812C47.3255 63.5 47.5443 63.6719 47.8203 63.7969C48.0964 63.9219 48.4089 63.9844 48.7578 63.9844ZM61.8828 65H60.6016V60.6406C60.6016 59.901 60.3906 59.3099 59.9688 58.8672C59.5469 58.4245 58.987 58.2031 58.2891 58.2031C57.5651 58.2031 56.9766 58.4427 56.5234 58.9219C56.0755 59.3958 55.8516 60.0208 55.8516 60.7969V65H54.5703V57.1875H55.6875L55.7344 58.4531C56.0208 57.9948 56.3984 57.6432 56.8672 57.3984C57.3359 57.1536 57.888 57.0312 58.5234 57.0312C59.5599 57.0312 60.3776 57.3438 60.9766 57.9688C61.5807 58.5938 61.8828 59.4505 61.8828 60.5391V65ZM71.7734 65H70.6328L70.5625 63.8594C70.2031 64.2604 69.7656 64.5781 69.25 64.8125C68.7344 65.0417 68.1719 65.1562 67.5625 65.1562C66.7917 65.1562 66.1016 64.9792 65.4922 64.625C64.8828 64.2708 64.401 63.7865 64.0469 63.1719C63.6979 62.5573 63.5234 61.8646 63.5234 61.0938C63.5234 60.3177 63.6979 59.625 64.0469 59.0156C64.401 58.401 64.8828 57.9167 65.4922 57.5625C66.1016 57.2083 66.7917 57.0312 67.5625 57.0312C68.151 57.0312 68.6953 57.138 69.1953 57.3516C69.7005 57.5651 70.1328 57.862 70.4922 58.2422V53.2812H71.7734V65ZM67.6719 64C68.1927 64 68.6667 63.8802 69.0938 63.6406C69.5208 63.3958 69.8594 63.0651 70.1094 62.6484C70.3646 62.2266 70.4922 61.75 70.4922 61.2188V60.9531C70.4922 60.4219 70.3646 59.9479 70.1094 59.5312C69.8594 59.1094 69.5208 58.7786 69.0938 58.5391C68.6667 58.2995 68.1927 58.1797 67.6719 58.1797C67.1302 58.1797 66.6458 58.3073 66.2188 58.5625C65.7917 58.8177 65.4531 59.1641 65.2031 59.6016C64.9583 60.0391 64.8359 60.5339 64.8359 61.0859C64.8359 61.638 64.9583 62.1354 65.2031 62.5781C65.4531 63.0156 65.7917 63.362 66.2188 63.6172C66.6458 63.8724 67.1302 64 67.6719 64ZM84.9531 64.0391C83.9844 64.7839 82.9167 65.1562 81.75 65.1562C80.9375 65.1562 80.2083 64.974 79.5625 64.6094C78.9167 64.2448 78.4062 63.75 78.0312 63.125C77.6615 62.4948 77.4766 61.7839 77.4766 60.9922C77.4766 60.2318 77.6484 59.5547 77.9922 58.9609C78.3359 58.362 78.8073 57.8906 79.4062 57.5469C80.0052 57.2031 80.6849 57.0312 81.4453 57.0312C82.2266 57.0312 82.9141 57.2188 83.5078 57.5938C84.1068 57.9688 84.5729 58.4896 84.9062 59.1562C85.2396 59.8229 85.4062 60.5938 85.4062 61.4688V61.7188H78.8672C78.9609 62.1771 79.1484 62.5755 79.4297 62.9141C79.7161 63.2526 80.0703 63.5156 80.4922 63.7031C80.9141 63.8906 81.3854 63.9844 81.9062 63.9844C82.8021 63.9844 83.6198 63.6901 84.3594 63.1016L84.9531 64.0391ZM78.8203 60.625H84.1953C84.138 60.1406 83.987 59.7188 83.7422 59.3594C83.5026 58.9948 83.1901 58.7109 82.8047 58.5078C82.4245 58.3047 81.9948 58.2031 81.5156 58.2031C81.0312 58.2031 80.5938 58.3047 80.2031 58.5078C79.8177 58.7109 79.5026 58.9948 79.2578 59.3594C79.0182 59.7188 78.8724 60.1406 78.8203 60.625ZM94.1641 57.1875L90.875 65H89.6328L86.3516 57.1875H87.7344L90.2656 63.6562L92.8047 57.1875H94.1641ZM102.578 64.0391C101.609 64.7839 100.542 65.1562 99.375 65.1562C98.5625 65.1562 97.8333 64.974 97.1875 64.6094C96.5417 64.2448 96.0312 63.75 95.6562 63.125C95.2865 62.4948 95.1016 61.7839 95.1016 60.9922C95.1016 60.2318 95.2734 59.5547 95.6172 58.9609C95.9609 58.362 96.4323 57.8906 97.0312 57.5469C97.6302 57.2031 98.3099 57.0312 99.0703 57.0312C99.8516 57.0312 100.539 57.2188 101.133 57.5938C101.732 57.9688 102.198 58.4896 102.531 59.1562C102.865 59.8229 103.031 60.5938 103.031 61.4688V61.7188H96.4922C96.5859 62.1771 96.7734 62.5755 97.0547 62.9141C97.3411 63.2526 97.6953 63.5156 98.1172 63.7031C98.5391 63.8906 99.0104 63.9844 99.5312 63.9844C100.427 63.9844 101.245 63.6901 101.984 63.1016L102.578 64.0391ZM96.4453 60.625H101.82C101.763 60.1406 101.612 59.7188 101.367 59.3594C101.128 58.9948 100.815 58.7109 100.43 58.5078C100.049 58.3047 99.6198 58.2031 99.1406 58.2031C98.6562 58.2031 98.2188 58.3047 97.8281 58.5078C97.4427 58.7109 97.1276 58.9948 96.8828 59.3594C96.6432 59.7188 96.4974 60.1406 96.4453 60.625ZM106.117 65H104.836V57.1875H105.961L106.016 58.7344C106.286 58.1979 106.667 57.7812 107.156 57.4844C107.651 57.1823 108.219 57.0312 108.859 57.0312C109 57.0312 109.143 57.0391 109.289 57.0547C109.435 57.0703 109.581 57.0938 109.727 57.125L109.57 58.2812C109.284 58.2135 109 58.1797 108.719 58.1797C108.208 58.1797 107.755 58.3047 107.359 58.5547C106.969 58.8047 106.664 59.1484 106.445 59.5859C106.227 60.0234 106.117 60.526 106.117 61.0938V65ZM113.766 68.9062H112.367L114.008 64.9375L110.273 57.1875H111.688L114.625 63.4609L117.219 57.1875H118.609L113.766 68.9062ZM124.555 64.8125C124.039 65.0417 123.536 65.1562 123.047 65.1562C122.578 65.1562 122.167 65.0547 121.812 64.8516C121.458 64.6432 121.182 64.3542 120.984 63.9844C120.786 63.6094 120.688 63.1745 120.688 62.6797V58.3359H119.32V57.1875H120.75V55.2344H121.969V57.1875H124.305V58.3359H121.969V62.4453C121.969 62.9141 122.094 63.2917 122.344 63.5781C122.599 63.8646 122.932 64.0078 123.344 64.0078C123.677 64.0078 124.01 63.9089 124.344 63.7109L124.555 64.8125ZM126.273 65V53.2812H127.555V58.3594C128.143 57.474 129.055 57.0312 130.289 57.0312C131.326 57.0312 132.133 57.3411 132.711 57.9609C133.294 58.5755 133.586 59.4349 133.586 60.5391V65H132.305V60.8359C132.305 59.9974 132.096 59.3464 131.68 58.8828C131.268 58.4141 130.693 58.1797 129.953 58.1797C129.208 58.1797 128.622 58.4167 128.195 58.8906C127.768 59.3646 127.555 60.013 127.555 60.8359V65H126.273ZM136.523 54.7188C136.305 54.7188 136.12 54.6432 135.969 54.4922C135.823 54.3359 135.75 54.1484 135.75 53.9297C135.75 53.7161 135.823 53.5339 135.969 53.3828C136.12 53.2318 136.305 53.1562 136.523 53.1562C136.747 53.1562 136.935 53.2318 137.086 53.3828C137.237 53.5339 137.312 53.7161 137.312 53.9297C137.312 54.1484 137.237 54.3359 137.086 54.4922C136.935 54.6432 136.747 54.7188 136.523 54.7188ZM137.164 65H135.883V57.1875H137.164V65ZM146.945 65H145.664V60.6406C145.664 59.901 145.453 59.3099 145.031 58.8672C144.609 58.4245 144.049 58.2031 143.352 58.2031C142.628 58.2031 142.039 58.4427 141.586 58.9219C141.138 59.3958 140.914 60.0208 140.914 60.7969V65H139.633V57.1875H140.75L140.797 58.4531C141.083 57.9948 141.461 57.6432 141.93 57.3984C142.398 57.1536 142.951 57.0312 143.586 57.0312C144.622 57.0312 145.44 57.3438 146.039 57.9688C146.643 58.5938 146.945 59.4505 146.945 60.5391V65ZM152.531 65C151.781 65 151.107 64.8255 150.508 64.4766C149.914 64.1276 149.445 63.6536 149.102 63.0547C148.758 62.4505 148.586 61.7708 148.586 61.0156C148.586 60.2552 148.758 59.5755 149.102 58.9766C149.445 58.3776 149.914 57.9036 150.508 57.5547C151.107 57.2057 151.784 57.0312 152.539 57.0312C153.143 57.0312 153.698 57.1458 154.203 57.375C154.708 57.599 155.138 57.9115 155.492 58.3125L155.555 57.1875H156.688V64.7969C156.688 65.6719 156.516 66.4271 156.172 67.0625C155.828 67.7031 155.339 68.1953 154.703 68.5391C154.068 68.888 153.312 69.0625 152.438 69.0625C151.198 69.0625 150.12 68.651 149.203 67.8281L149.766 66.7969C150.479 67.5365 151.352 67.9062 152.383 67.9062C153.003 67.9062 153.536 67.776 153.984 67.5156C154.438 67.2604 154.786 66.8984 155.031 66.4297C155.281 65.9609 155.406 65.4062 155.406 64.7656V63.8047C155.052 64.1745 154.628 64.4661 154.133 64.6797C153.643 64.8932 153.109 65 152.531 65ZM152.641 63.8672C153.151 63.8672 153.615 63.7526 154.031 63.5234C154.448 63.2891 154.781 62.9714 155.031 62.5703C155.281 62.1641 155.406 61.7057 155.406 61.1953V60.8359C155.406 60.3203 155.281 59.862 155.031 59.4609C154.781 59.0599 154.448 58.7448 154.031 58.5156C153.615 58.2812 153.151 58.1641 152.641 58.1641C152.115 58.1641 151.643 58.2891 151.227 58.5391C150.81 58.7891 150.479 59.1302 150.234 59.5625C149.995 59.9896 149.875 60.474 149.875 61.0156C149.875 61.5573 149.995 62.0443 150.234 62.4766C150.479 62.9089 150.81 63.25 151.227 63.5C151.643 63.7448 152.115 63.8672 152.641 63.8672ZM167.477 64.8125C166.961 65.0417 166.458 65.1562 165.969 65.1562C165.5 65.1562 165.089 65.0547 164.734 64.8516C164.38 64.6432 164.104 64.3542 163.906 63.9844C163.708 63.6094 163.609 63.1745 163.609 62.6797V58.3359H162.242V57.1875H163.672V55.2344H164.891V57.1875H167.227V58.3359H164.891V62.4453C164.891 62.9141 165.016 63.2917 165.266 63.5781C165.521 63.8646 165.854 64.0078 166.266 64.0078C166.599 64.0078 166.932 63.9089 167.266 63.7109L167.477 64.8125ZM169.195 65V53.2812H170.477V58.3594C171.065 57.474 171.977 57.0312 173.211 57.0312C174.247 57.0312 175.055 57.3411 175.633 57.9609C176.216 58.5755 176.508 59.4349 176.508 60.5391V65H175.227V60.8359C175.227 59.9974 175.018 59.3464 174.602 58.8828C174.19 58.4141 173.615 58.1797 172.875 58.1797C172.13 58.1797 171.544 58.4167 171.117 58.8906C170.69 59.3646 170.477 60.013 170.477 60.8359V65H169.195ZM185.625 64.0391C184.656 64.7839 183.589 65.1562 182.422 65.1562C181.609 65.1562 180.88 64.974 180.234 64.6094C179.589 64.2448 179.078 63.75 178.703 63.125C178.333 62.4948 178.148 61.7839 178.148 60.9922C178.148 60.2318 178.32 59.5547 178.664 58.9609C179.008 58.362 179.479 57.8906 180.078 57.5469C180.677 57.2031 181.357 57.0312 182.117 57.0312C182.898 57.0312 183.586 57.2188 184.18 57.5938C184.779 57.9688 185.245 58.4896 185.578 59.1562C185.911 59.8229 186.078 60.5938 186.078 61.4688V61.7188H179.539C179.633 62.1771 179.82 62.5755 180.102 62.9141C180.388 63.2526 180.742 63.5156 181.164 63.7031C181.586 63.8906 182.057 63.9844 182.578 63.9844C183.474 63.9844 184.292 63.6901 185.031 63.1016L185.625 64.0391ZM179.492 60.625H184.867C184.81 60.1406 184.659 59.7188 184.414 59.3594C184.174 58.9948 183.862 58.7109 183.477 58.5078C183.096 58.3047 182.667 58.2031 182.188 58.2031C181.703 58.2031 181.266 58.3047 180.875 58.5078C180.49 58.7109 180.174 58.9948 179.93 59.3594C179.69 59.7188 179.544 60.1406 179.492 60.625ZM200 65H198.516L196.75 59.0312L194.984 65H193.5L191.008 57.1875H192.367L194.234 63.4375L196.148 57.1875H197.352L199.266 63.4375L201.141 57.1875H202.5L200 65ZM210.766 64.0391C209.797 64.7839 208.729 65.1562 207.562 65.1562C206.75 65.1562 206.021 64.974 205.375 64.6094C204.729 64.2448 204.219 63.75 203.844 63.125C203.474 62.4948 203.289 61.7839 203.289 60.9922C203.289 60.2318 203.461 59.5547 203.805 58.9609C204.148 58.362 204.62 57.8906 205.219 57.5469C205.818 57.2031 206.497 57.0312 207.258 57.0312C208.039 57.0312 208.727 57.2188 209.32 57.5938C209.919 57.9688 210.385 58.4896 210.719 59.1562C211.052 59.8229 211.219 60.5938 211.219 61.4688V61.7188H204.68C204.773 62.1771 204.961 62.5755 205.242 62.9141C205.529 63.2526 205.883 63.5156 206.305 63.7031C206.727 63.8906 207.198 63.9844 207.719 63.9844C208.615 63.9844 209.432 63.6901 210.172 63.1016L210.766 64.0391ZM204.633 60.625H210.008C209.951 60.1406 209.799 59.7188 209.555 59.3594C209.315 58.9948 209.003 58.7109 208.617 58.5078C208.237 58.3047 207.807 58.2031 207.328 58.2031C206.844 58.2031 206.406 58.3047 206.016 58.5078C205.63 58.7109 205.315 58.9948 205.07 59.3594C204.831 59.7188 204.685 60.1406 204.633 60.625ZM219.328 65H218.227L218.141 63.9688C217.854 64.3385 217.49 64.6302 217.047 64.8438C216.604 65.0521 216.109 65.1562 215.562 65.1562C215 65.1562 214.497 65.0469 214.055 64.8281C213.612 64.6042 213.263 64.2995 213.008 63.9141C212.758 63.5286 212.633 63.0911 212.633 62.6016C212.633 62.0859 212.768 61.6328 213.039 61.2422C213.315 60.8464 213.688 60.5365 214.156 60.3125C214.63 60.0885 215.167 59.9766 215.766 59.9766C216.156 59.9766 216.555 60.026 216.961 60.125C217.367 60.2188 217.729 60.349 218.047 60.5156V60.1875C218.047 59.7708 217.943 59.4167 217.734 59.125C217.526 58.8281 217.247 58.6016 216.898 58.4453C216.549 58.2839 216.164 58.2031 215.742 58.2031C215.378 58.2031 215.005 58.2708 214.625 58.4062C214.245 58.5365 213.88 58.7396 213.531 59.0156L213.109 57.9141C213.562 57.6224 214.039 57.4036 214.539 57.2578C215.039 57.1068 215.534 57.0312 216.023 57.0312C216.701 57.0312 217.284 57.1693 217.773 57.4453C218.268 57.7161 218.651 58.1042 218.922 58.6094C219.193 59.1094 219.328 59.7031 219.328 60.3906V65ZM215.789 63.9844C216.19 63.9844 216.557 63.901 216.891 63.7344C217.224 63.5677 217.495 63.3281 217.703 63.0156C217.911 62.6979 218.026 62.3229 218.047 61.8906V61.7578C217.76 61.5339 217.438 61.362 217.078 61.2422C216.724 61.1172 216.362 61.0547 215.992 61.0547C215.414 61.0547 214.93 61.1953 214.539 61.4766C214.154 61.7578 213.961 62.1146 213.961 62.5469C213.961 62.8177 214.039 63.0625 214.195 63.2812C214.357 63.5 214.576 63.6719 214.852 63.7969C215.128 63.9219 215.44 63.9844 215.789 63.9844ZM225.898 64.8125C225.383 65.0417 224.88 65.1562 224.391 65.1562C223.922 65.1562 223.51 65.0547 223.156 64.8516C222.802 64.6432 222.526 64.3542 222.328 63.9844C222.13 63.6094 222.031 63.1745 222.031 62.6797V58.3359H220.664V57.1875H222.094V55.2344H223.312V57.1875H225.648V58.3359H223.312V62.4453C223.312 62.9141 223.438 63.2917 223.688 63.5781C223.943 63.8646 224.276 64.0078 224.688 64.0078C225.021 64.0078 225.354 63.9089 225.688 63.7109L225.898 64.8125ZM227.617 65V53.2812H228.898V58.3594C229.487 57.474 230.398 57.0312 231.633 57.0312C232.669 57.0312 233.477 57.3411 234.055 57.9609C234.638 58.5755 234.93 59.4349 234.93 60.5391V65H233.648V60.8359C233.648 59.9974 233.44 59.3464 233.023 58.8828C232.612 58.4141 232.036 58.1797 231.297 58.1797C230.552 58.1797 229.966 58.4167 229.539 58.8906C229.112 59.3646 228.898 60.013 228.898 60.8359V65H227.617ZM244.047 64.0391C243.078 64.7839 242.01 65.1562 240.844 65.1562C240.031 65.1562 239.302 64.974 238.656 64.6094C238.01 64.2448 237.5 63.75 237.125 63.125C236.755 62.4948 236.57 61.7839 236.57 60.9922C236.57 60.2318 236.742 59.5547 237.086 58.9609C237.43 58.362 237.901 57.8906 238.5 57.5469C239.099 57.2031 239.779 57.0312 240.539 57.0312C241.32 57.0312 242.008 57.2188 242.602 57.5938C243.201 57.9688 243.667 58.4896 244 59.1562C244.333 59.8229 244.5 60.5938 244.5 61.4688V61.7188H237.961C238.055 62.1771 238.242 62.5755 238.523 62.9141C238.81 63.2526 239.164 63.5156 239.586 63.7031C240.008 63.8906 240.479 63.9844 241 63.9844C241.896 63.9844 242.714 63.6901 243.453 63.1016L244.047 64.0391ZM237.914 60.625H243.289C243.232 60.1406 243.081 59.7188 242.836 59.3594C242.596 58.9948 242.284 58.7109 241.898 58.5078C241.518 58.3047 241.089 58.2031 240.609 58.2031C240.125 58.2031 239.688 58.3047 239.297 58.5078C238.911 58.7109 238.596 58.9948 238.352 59.3594C238.112 59.7188 237.966 60.1406 237.914 60.625ZM247.586 65H246.305V57.1875H247.43L247.484 58.7344C247.755 58.1979 248.135 57.7812 248.625 57.4844C249.12 57.1823 249.688 57.0312 250.328 57.0312C250.469 57.0312 250.612 57.0391 250.758 57.0547C250.904 57.0703 251.049 57.0938 251.195 57.125L251.039 58.2812C250.753 58.2135 250.469 58.1797 250.188 58.1797C249.677 58.1797 249.224 58.3047 248.828 58.5547C248.438 58.8047 248.133 59.1484 247.914 59.5859C247.695 60.0234 247.586 60.526 247.586 61.0938V65ZM262.922 63.875C262.542 64.2865 262.091 64.6042 261.57 64.8281C261.049 65.0469 260.49 65.1562 259.891 65.1562C259.115 65.1562 258.417 64.9792 257.797 64.625C257.182 64.2708 256.695 63.7865 256.336 63.1719C255.982 62.5573 255.805 61.8646 255.805 61.0938C255.805 60.3177 255.982 59.625 256.336 59.0156C256.695 58.401 257.182 57.9167 257.797 57.5625C258.417 57.2083 259.115 57.0312 259.891 57.0312C260.484 57.0312 261.042 57.1406 261.562 57.3594C262.083 57.5781 262.534 57.8932 262.914 58.3047L262.148 59.1094C261.872 58.8177 261.542 58.5938 261.156 58.4375C260.776 58.2812 260.372 58.2031 259.945 58.2031C259.398 58.2031 258.911 58.3281 258.484 58.5781C258.062 58.8229 257.729 59.1615 257.484 59.5938C257.245 60.026 257.125 60.5234 257.125 61.0859C257.125 61.6484 257.245 62.1484 257.484 62.5859C257.729 63.0234 258.062 63.3672 258.484 63.6172C258.911 63.862 259.398 63.9844 259.945 63.9844C260.372 63.9844 260.779 63.9062 261.164 63.75C261.549 63.5885 261.878 63.3646 262.148 63.0781L262.922 63.875ZM271.031 65H269.93L269.844 63.9688C269.557 64.3385 269.193 64.6302 268.75 64.8438C268.307 65.0521 267.812 65.1562 267.266 65.1562C266.703 65.1562 266.201 65.0469 265.758 64.8281C265.315 64.6042 264.966 64.2995 264.711 63.9141C264.461 63.5286 264.336 63.0911 264.336 62.6016C264.336 62.0859 264.471 61.6328 264.742 61.2422C265.018 60.8464 265.391 60.5365 265.859 60.3125C266.333 60.0885 266.87 59.9766 267.469 59.9766C267.859 59.9766 268.258 60.026 268.664 60.125C269.07 60.2188 269.432 60.349 269.75 60.5156V60.1875C269.75 59.7708 269.646 59.4167 269.438 59.125C269.229 58.8281 268.951 58.6016 268.602 58.4453C268.253 58.2839 267.867 58.2031 267.445 58.2031C267.081 58.2031 266.708 58.2708 266.328 58.4062C265.948 58.5365 265.583 58.7396 265.234 59.0156L264.812 57.9141C265.266 57.6224 265.742 57.4036 266.242 57.2578C266.742 57.1068 267.237 57.0312 267.727 57.0312C268.404 57.0312 268.987 57.1693 269.477 57.4453C269.971 57.7161 270.354 58.1042 270.625 58.6094C270.896 59.1094 271.031 59.7031 271.031 60.3906V65ZM267.492 63.9844C267.893 63.9844 268.26 63.901 268.594 63.7344C268.927 63.5677 269.198 63.3281 269.406 63.0156C269.615 62.6979 269.729 62.3229 269.75 61.8906V61.7578C269.464 61.5339 269.141 61.362 268.781 61.2422C268.427 61.1172 268.065 61.0547 267.695 61.0547C267.117 61.0547 266.633 61.1953 266.242 61.4766C265.857 61.7578 265.664 62.1146 265.664 62.5469C265.664 62.8177 265.742 63.0625 265.898 63.2812C266.06 63.5 266.279 63.6719 266.555 63.7969C266.831 63.9219 267.143 63.9844 267.492 63.9844ZM280.617 65H279.336V60.6406C279.336 59.901 279.125 59.3099 278.703 58.8672C278.281 58.4245 277.721 58.2031 277.023 58.2031C276.299 58.2031 275.711 58.4427 275.258 58.9219C274.81 59.3958 274.586 60.0208 274.586 60.7969V65H273.305V57.1875H274.422L274.469 58.4531C274.755 57.9948 275.133 57.6432 275.602 57.3984C276.07 57.1536 276.622 57.0312 277.258 57.0312C278.294 57.0312 279.112 57.3438 279.711 57.9688C280.315 58.5938 280.617 59.4505 280.617 60.5391V65ZM290.258 65.1562C289.482 65.1562 288.784 64.9792 288.164 64.625C287.544 64.2708 287.055 63.7891 286.695 63.1797C286.341 62.5651 286.164 61.8698 286.164 61.0938C286.164 60.3229 286.341 59.6328 286.695 59.0234C287.055 58.4089 287.544 57.9245 288.164 57.5703C288.784 57.2109 289.482 57.0312 290.258 57.0312C291.034 57.0312 291.729 57.2109 292.344 57.5703C292.958 57.9245 293.443 58.4089 293.797 59.0234C294.151 59.6328 294.328 60.3229 294.328 61.0938C294.328 61.8698 294.151 62.5651 293.797 63.1797C293.443 63.7891 292.958 64.2708 292.344 64.625C291.729 64.9792 291.034 65.1562 290.258 65.1562ZM290.25 64C290.776 64 291.247 63.8724 291.664 63.6172C292.081 63.362 292.409 63.0156 292.648 62.5781C292.893 62.1406 293.016 61.6432 293.016 61.0859C293.016 60.5391 292.893 60.0469 292.648 59.6094C292.409 59.1719 292.081 58.8255 291.664 58.5703C291.247 58.3151 290.776 58.1875 290.25 58.1875C289.724 58.1875 289.25 58.3151 288.828 58.5703C288.411 58.8255 288.081 59.1719 287.836 59.6094C287.596 60.0469 287.477 60.5391 287.477 61.0859C287.477 61.6432 287.596 62.1406 287.836 62.5781C288.081 63.0156 288.411 63.362 288.828 63.6172C289.25 63.8724 289.724 64 290.25 64ZM298 65H296.719V58.3359H295.352V57.1875H296.719V55.5078C296.719 55.0234 296.82 54.5964 297.023 54.2266C297.232 53.8568 297.518 53.5677 297.883 53.3594C298.253 53.151 298.677 53.0469 299.156 53.0469C299.453 53.0469 299.75 53.0885 300.047 53.1719C300.349 53.25 300.643 53.3724 300.93 53.5391L300.438 54.5469C300.26 54.4323 300.081 54.3464 299.898 54.2891C299.716 54.2266 299.534 54.1953 299.352 54.1953C298.951 54.1953 298.625 54.3411 298.375 54.6328C298.125 54.9193 298 55.2943 298 55.7578V57.1875H300.414V58.3359H298V65ZM303.5 65H302.219V58.3359H300.852V57.1875H302.219V55.5078C302.219 55.0234 302.32 54.5964 302.523 54.2266C302.732 53.8568 303.018 53.5677 303.383 53.3594C303.753 53.151 304.177 53.0469 304.656 53.0469C304.953 53.0469 305.25 53.0885 305.547 53.1719C305.849 53.25 306.143 53.3724 306.43 53.5391L305.938 54.5469C305.76 54.4323 305.581 54.3464 305.398 54.2891C305.216 54.2266 305.034 54.1953 304.852 54.1953C304.451 54.1953 304.125 54.3411 303.875 54.6328C303.625 54.9193 303.5 55.2943 303.5 55.7578V57.1875H305.914V58.3359H303.5V65ZM314.453 64.0391C313.484 64.7839 312.417 65.1562 311.25 65.1562C310.438 65.1562 309.708 64.974 309.062 64.6094C308.417 64.2448 307.906 63.75 307.531 63.125C307.161 62.4948 306.977 61.7839 306.977 60.9922C306.977 60.2318 307.148 59.5547 307.492 58.9609C307.836 58.362 308.307 57.8906 308.906 57.5469C309.505 57.2031 310.185 57.0312 310.945 57.0312C311.727 57.0312 312.414 57.2188 313.008 57.5938C313.607 57.9688 314.073 58.4896 314.406 59.1562C314.74 59.8229 314.906 60.5938 314.906 61.4688V61.7188H308.367C308.461 62.1771 308.648 62.5755 308.93 62.9141C309.216 63.2526 309.57 63.5156 309.992 63.7031C310.414 63.8906 310.885 63.9844 311.406 63.9844C312.302 63.9844 313.12 63.6901 313.859 63.1016L314.453 64.0391ZM308.32 60.625H313.695C313.638 60.1406 313.487 59.7188 313.242 59.3594C313.003 58.9948 312.69 58.7109 312.305 58.5078C311.924 58.3047 311.495 58.2031 311.016 58.2031C310.531 58.2031 310.094 58.3047 309.703 58.5078C309.318 58.7109 309.003 58.9948 308.758 59.3594C308.518 59.7188 308.372 60.1406 308.32 60.625ZM317.992 65H316.711V57.1875H317.836L317.891 58.7344C318.161 58.1979 318.542 57.7812 319.031 57.4844C319.526 57.1823 320.094 57.0312 320.734 57.0312C320.875 57.0312 321.018 57.0391 321.164 57.0547C321.31 57.0703 321.456 57.0938 321.602 57.125L321.445 58.2812C321.159 58.2135 320.875 58.1797 320.594 58.1797C320.083 58.1797 319.63 58.3047 319.234 58.5547C318.844 58.8047 318.539 59.1484 318.32 59.5859C318.102 60.0234 317.992 60.526 317.992 61.0938V65ZM322.586 65.1562C322.357 65.1562 322.169 65.0859 322.023 64.9453C321.883 64.7995 321.812 64.612 321.812 64.3828C321.812 64.1484 321.883 63.9583 322.023 63.8125C322.169 63.6667 322.357 63.5938 322.586 63.5938C322.815 63.5938 323.003 63.6667 323.148 63.8125C323.299 63.9583 323.375 64.1484 323.375 64.3828C323.375 64.612 323.299 64.7995 323.148 64.9453C323.003 65.0859 322.815 65.1562 322.586 65.1562Z" fill="#69707D"/>
</svg>
