<svg width="29" height="12" viewBox="0 0 29 12" fill="none" xmlns="http://www.w3.org/2000/svg">
<path d="M11.2021 11H9.91309V1.82275L6.24365 9.1543H5.0791L1.42432 1.8667V11H0.135254V0.0136719H1.79785L5.66504 7.79932L9.51758 0.0136719H11.2021V11ZM19.9033 10.0991C18.9951 10.7974 17.9941 11.1465 16.9004 11.1465C16.1387 11.1465 15.4551 10.9756 14.8496 10.6338C14.2441 10.292 13.7656 9.82812 13.4141 9.24219C13.0674 8.65137 12.894 7.98486 12.894 7.24268C12.894 6.52979 13.0552 5.89502 13.3774 5.33838C13.6997 4.77686 14.1416 4.33496 14.7031 4.0127C15.2646 3.69043 15.9019 3.5293 16.6147 3.5293C17.3472 3.5293 17.9917 3.70508 18.5483 4.05664C19.1099 4.4082 19.5469 4.89648 19.8594 5.52148C20.1719 6.14648 20.3281 6.86914 20.3281 7.68945V7.92383H14.1978C14.2856 8.35352 14.4614 8.72705 14.7251 9.04443C14.9937 9.36182 15.3257 9.6084 15.7212 9.78418C16.1167 9.95996 16.5586 10.0479 17.0469 10.0479C17.8867 10.0479 18.6533 9.77197 19.3467 9.22021L19.9033 10.0991ZM14.1538 6.89844H19.1929C19.1392 6.44434 18.9976 6.04883 18.7681 5.71191C18.5435 5.37012 18.2505 5.104 17.8892 4.91357C17.5327 4.72314 17.1299 4.62793 16.6807 4.62793C16.2266 4.62793 15.8164 4.72314 15.4502 4.91357C15.0889 5.104 14.7935 5.37012 14.564 5.71191C14.3394 6.04883 14.2026 6.44434 14.1538 6.89844ZM28.8755 11H27.6743V6.91309C27.6743 6.21973 27.4766 5.66553 27.0811 5.25049C26.6855 4.83545 26.1606 4.62793 25.5063 4.62793C24.8276 4.62793 24.2759 4.85254 23.8511 5.30176C23.4312 5.74609 23.2212 6.33203 23.2212 7.05957V11H22.02V3.67578H23.0674L23.1113 4.8623C23.3799 4.43262 23.7339 4.10303 24.1733 3.87354C24.6128 3.64404 25.1304 3.5293 25.7261 3.5293C26.6978 3.5293 27.4644 3.82227 28.0259 4.4082C28.5923 4.99414 28.8755 5.79736 28.8755 6.81787V11Z" fill="#69707D"/>
</svg>
