<svg width="162" height="11" viewBox="0 0 162 11" fill="none" xmlns="http://www.w3.org/2000/svg">
<path d="M0.330078 8.97168L1.25684 7.47998C1.54883 7.71696 1.83024 7.91162 2.10107 8.06396C2.37614 8.21208 2.64697 8.3221 2.91357 8.39404C3.18018 8.46175 3.45312 8.49561 3.73242 8.49561C4.0625 8.49561 4.34814 8.44906 4.58936 8.35596C4.83057 8.26286 5.01676 8.12956 5.14795 7.95605C5.28337 7.78255 5.35107 7.58154 5.35107 7.35303C5.35107 7.08643 5.26644 6.86214 5.09717 6.68018C4.9279 6.49821 4.70573 6.33952 4.43066 6.2041C4.15983 6.06445 3.86572 5.93115 3.54834 5.8042C3.23942 5.67725 2.92839 5.53971 2.61523 5.3916C2.30632 5.23926 2.02067 5.05941 1.7583 4.85205C1.50016 4.64469 1.29069 4.3929 1.12988 4.09668C0.973307 3.79622 0.89502 3.43229 0.89502 3.00488C0.89502 2.44629 1.03467 1.96387 1.31396 1.55762C1.59749 1.15137 1.9847 0.838216 2.47559 0.618164C2.96647 0.398112 3.52718 0.288086 4.15771 0.288086C4.60205 0.288086 5.06331 0.347331 5.5415 0.46582C6.02393 0.58431 6.50423 0.76416 6.98242 1.00537L6.21436 2.58594C5.9139 2.40397 5.59017 2.26009 5.24316 2.1543C4.89616 2.0485 4.57031 1.99561 4.26562 1.99561C3.99056 1.99561 3.74935 2.03792 3.54199 2.12256C3.33887 2.20719 3.18018 2.32568 3.06592 2.47803C2.95166 2.62614 2.89453 2.80176 2.89453 3.00488C2.89453 3.24609 2.97705 3.45557 3.14209 3.6333C3.30713 3.8068 3.52083 3.96126 3.7832 4.09668C4.0498 4.2321 4.33545 4.36751 4.64014 4.50293C4.95329 4.63835 5.26855 4.78646 5.58594 4.94727C5.90755 5.10807 6.19954 5.2985 6.46191 5.51855C6.72852 5.73438 6.94222 5.99463 7.10303 6.29932C7.26807 6.59977 7.35059 6.96159 7.35059 7.38477C7.35059 7.94336 7.20247 8.43424 6.90625 8.85742C6.61003 9.27637 6.19743 9.60433 5.66846 9.84131C5.13949 10.0741 4.52376 10.1904 3.82129 10.1904C3.17806 10.1904 2.56234 10.0868 1.97412 9.87939C1.3859 9.67204 0.837891 9.36947 0.330078 8.97168ZM19.2339 10H16.9868L12.5371 3.5V10H10.582V0.478516H12.8291L17.2788 6.99121V0.478516H19.2339V10ZM22.7891 10V0.478516H28.9336V2.18604H24.7441V4.35059H28.6733V6.06445H24.7441V8.29248H28.9971V10H22.7891ZM33.9106 10H31.8604L35.6562 0.478516H37.7192L41.5088 10H39.4585L38.6777 7.95605H34.6914L33.9106 10ZM35.3325 6.24219H38.043L36.6846 2.71289L35.3325 6.24219ZM46.3906 10H44.4355V0.478516H46.3906V5.16309C46.5811 4.88379 46.763 4.62565 46.9365 4.38867C47.11 4.15169 47.2581 3.95703 47.3809 3.80469L50.0215 0.478516H52.3257L48.8345 4.87109L52.9985 10H50.4658L47.584 6.43896L46.3906 7.94336V10ZM55.8174 10V0.478516H61.9619V2.18604H57.7725V4.35059H61.7017V6.06445H57.7725V8.29248H62.0254V10H55.8174ZM73.2041 10H71.0396L69.04 6.55957H67.4658V10H65.5107V0.478516H69.1289C69.8949 0.478516 70.5508 0.599121 71.0967 0.840332C71.6426 1.08154 72.0594 1.43066 72.3472 1.8877C72.6392 2.34049 72.7852 2.88428 72.7852 3.51904C72.7852 4.17074 72.6307 4.72721 72.3218 5.18848C72.0171 5.64551 71.5812 5.98828 71.0142 6.2168L73.2041 10ZM67.4658 5.00439H68.9829C69.5627 5.00439 70.007 4.88379 70.3159 4.64258C70.6291 4.39714 70.7856 4.04801 70.7856 3.59521C70.7856 3.14242 70.6291 2.79541 70.3159 2.5542C70.007 2.30876 69.5627 2.18604 68.9829 2.18604H67.4658V5.00439ZM89.4424 8.80664C88.998 9.23828 88.4712 9.57682 87.8618 9.82227C87.2524 10.0677 86.5902 10.1904 85.875 10.1904C85.1514 10.1904 84.4849 10.0677 83.8755 9.82227C83.2661 9.57259 82.735 9.22559 82.2822 8.78125C81.8337 8.33268 81.4845 7.80794 81.2349 7.20703C80.9852 6.60612 80.8604 5.9502 80.8604 5.23926C80.8604 4.52832 80.9852 3.8724 81.2349 3.27148C81.4845 2.66634 81.8337 2.1416 82.2822 1.69727C82.735 1.25293 83.2661 0.90804 83.8755 0.662598C84.4849 0.412923 85.1514 0.288086 85.875 0.288086C86.5859 0.288086 87.244 0.410807 87.8491 0.65625C88.4585 0.901693 88.9854 1.24235 89.4297 1.67822L88.0649 3.04932C87.7983 2.72347 87.4725 2.46745 87.0874 2.28125C86.7065 2.09082 86.2918 1.99561 85.8433 1.99561C85.4159 1.99561 85.0202 2.07812 84.6562 2.24316C84.2965 2.40397 83.9813 2.63249 83.7104 2.92871C83.4396 3.2207 83.2301 3.56348 83.082 3.95703C82.9339 4.35059 82.8599 4.77588 82.8599 5.23291C82.8599 5.6984 82.9339 6.12793 83.082 6.52148C83.2301 6.91504 83.4396 7.25993 83.7104 7.55615C83.9813 7.84814 84.2965 8.07666 84.6562 8.2417C85.0202 8.40251 85.4159 8.48291 85.8433 8.48291C86.2918 8.48291 86.7065 8.38981 87.0874 8.20361C87.4683 8.01318 87.792 7.75505 88.0586 7.4292L89.4424 8.80664ZM97.3965 10.1904C96.6729 10.1904 96.0042 10.0677 95.3906 9.82227C94.7812 9.57259 94.2502 9.22559 93.7974 8.78125C93.3488 8.33268 92.9997 7.80794 92.75 7.20703C92.5046 6.60612 92.3818 5.9502 92.3818 5.23926C92.3818 4.52832 92.5046 3.8724 92.75 3.27148C92.9997 2.66634 93.3488 2.1416 93.7974 1.69727C94.2502 1.25293 94.7812 0.90804 95.3906 0.662598C96.0042 0.412923 96.6729 0.288086 97.3965 0.288086C98.1201 0.288086 98.7866 0.412923 99.396 0.662598C100.005 0.90804 100.532 1.25293 100.977 1.69727C101.425 2.1416 101.774 2.66634 102.024 3.27148C102.274 3.8724 102.398 4.52832 102.398 5.23926C102.398 5.9502 102.274 6.60612 102.024 7.20703C101.774 7.80794 101.425 8.33268 100.977 8.78125C100.532 9.22559 100.005 9.57259 99.396 9.82227C98.7866 10.0677 98.1201 10.1904 97.3965 10.1904ZM97.3965 8.48291C97.8239 8.48291 98.2196 8.40039 98.5835 8.23535C98.9517 8.07031 99.2712 7.8418 99.542 7.5498C99.8128 7.25358 100.022 6.91081 100.17 6.52148C100.323 6.12793 100.399 5.70052 100.399 5.23926C100.399 4.77799 100.323 4.35059 100.17 3.95703C100.022 3.56348 99.8128 3.2207 99.542 2.92871C99.2712 2.63249 98.9517 2.40397 98.5835 2.24316C98.2196 2.07812 97.8239 1.99561 97.3965 1.99561C96.9648 1.99561 96.5649 2.07812 96.1968 2.24316C95.8328 2.40397 95.5133 2.63249 95.2383 2.92871C94.9674 3.2207 94.7559 3.56348 94.6035 3.95703C94.4554 4.35059 94.3813 4.77799 94.3813 5.23926C94.3813 5.70052 94.4554 6.12793 94.6035 6.52148C94.7559 6.91504 94.9674 7.25993 95.2383 7.55615C95.5133 7.84814 95.8328 8.07666 96.1968 8.2417C96.5649 8.40251 96.9648 8.48291 97.3965 8.48291ZM115.792 10H113.837V3.27148L111.457 8.40039H109.946L107.572 3.29053V10H105.617V0.478516H108.099L110.702 6.22949L113.304 0.478516H115.792V10ZM119.348 10V0.478516H122.604C123.404 0.478516 124.094 0.609701 124.673 0.87207C125.257 1.13021 125.706 1.50049 126.019 1.98291C126.332 2.4611 126.489 3.03239 126.489 3.69678C126.489 4.36117 126.332 4.93669 126.019 5.42334C125.706 5.90576 125.259 6.27816 124.68 6.54053C124.104 6.8029 123.419 6.93408 122.623 6.93408H121.303V10H119.348ZM121.303 5.22021H122.42C123.084 5.22021 123.594 5.08903 123.95 4.82666C124.309 4.56006 124.489 4.18343 124.489 3.69678C124.489 3.21859 124.309 2.84831 123.95 2.58594C123.594 2.31934 123.084 2.18604 122.42 2.18604H121.303V5.22021ZM130.533 10H128.482L132.278 0.478516H134.341L138.131 10H136.081L135.3 7.95605H131.313L130.533 10ZM131.955 6.24219H134.665L133.307 2.71289L131.955 6.24219ZM149.709 10H147.462L143.013 3.5V10H141.058V0.478516H143.305L147.754 6.99121V0.478516H149.709V10ZM158.152 10H156.197V5.93115L152.592 0.478516H154.966L157.162 4.21094L159.384 0.478516H161.758L158.152 5.9375V10Z" fill="#FF7E1B"/>
</svg>
