<svg width="55" height="12" viewBox="0 0 55 12" fill="none" xmlns="http://www.w3.org/2000/svg">
<path d="M11.7407 11H10.6274L7.85889 2.23291L5.09033 11H3.97705L0.402832 0.0136719H1.75049L4.52637 8.80273L7.30225 0.0136719H8.41553L11.1841 8.78076L13.9453 0.0136719H15.3003L11.7407 11ZM19.4312 11.1465C18.7036 11.1465 18.0493 10.9805 17.4683 10.6484C16.8872 10.3164 16.4282 9.86475 16.0913 9.29346C15.7593 8.71729 15.5933 8.06543 15.5933 7.33789C15.5933 6.61523 15.7593 5.96826 16.0913 5.39697C16.4282 4.8208 16.8872 4.3667 17.4683 4.03467C18.0493 3.69775 18.7036 3.5293 19.4312 3.5293C20.1587 3.5293 20.8105 3.69775 21.3867 4.03467C21.9629 4.3667 22.417 4.8208 22.749 5.39697C23.0811 5.96826 23.2471 6.61523 23.2471 7.33789C23.2471 8.06543 23.0811 8.71729 22.749 9.29346C22.417 9.86475 21.9629 10.3164 21.3867 10.6484C20.8105 10.9805 20.1587 11.1465 19.4312 11.1465ZM19.4238 10.0625C19.917 10.0625 20.3589 9.94287 20.7495 9.70361C21.1401 9.46436 21.4478 9.13965 21.6724 8.72949C21.9019 8.31934 22.0166 7.85303 22.0166 7.33057C22.0166 6.81787 21.9019 6.35645 21.6724 5.94629C21.4478 5.53613 21.1401 5.21143 20.7495 4.97217C20.3589 4.73291 19.917 4.61328 19.4238 4.61328C18.9307 4.61328 18.4863 4.73291 18.0908 4.97217C17.7002 5.21143 17.3901 5.53613 17.1606 5.94629C16.936 6.35645 16.8237 6.81787 16.8237 7.33057C16.8237 7.85303 16.936 8.31934 17.1606 8.72949C17.3901 9.13965 17.7002 9.46436 18.0908 9.70361C18.4863 9.94287 18.9307 10.0625 19.4238 10.0625ZM36.5332 11H35.332V7.09619C35.332 6.31006 35.1587 5.69971 34.812 5.26514C34.4702 4.82568 33.9868 4.60596 33.3618 4.60596C32.7319 4.60596 32.2363 4.82812 31.875 5.27246C31.5186 5.71191 31.3403 6.31982 31.3403 7.09619V11H30.1392V7.09619C30.1392 6.31006 29.9658 5.69971 29.6191 5.26514C29.2725 4.82568 28.7866 4.60596 28.1616 4.60596C27.5317 4.60596 27.0361 4.82812 26.6748 5.27246C26.3184 5.71191 26.1401 6.31982 26.1401 7.09619V11H24.939V3.67578H25.9204L25.9717 4.98682C26.2158 4.5083 26.5479 4.14697 26.9678 3.90283C27.3926 3.65381 27.8931 3.5293 28.4692 3.5293C29.0845 3.5293 29.6094 3.66846 30.0439 3.94678C30.4834 4.22021 30.8105 4.61328 31.0254 5.12598C31.2646 4.60352 31.604 4.20801 32.0435 3.93945C32.4878 3.66602 33.0176 3.5293 33.6328 3.5293C34.5459 3.5293 35.2563 3.81982 35.7642 4.40088C36.2769 4.97705 36.5332 5.78271 36.5332 6.81787V11ZM45.0879 10.0991C44.1797 10.7974 43.1787 11.1465 42.085 11.1465C41.3232 11.1465 40.6396 10.9756 40.0342 10.6338C39.4287 10.292 38.9502 9.82812 38.5986 9.24219C38.252 8.65137 38.0786 7.98486 38.0786 7.24268C38.0786 6.52979 38.2397 5.89502 38.562 5.33838C38.8843 4.77686 39.3262 4.33496 39.8877 4.0127C40.4492 3.69043 41.0864 3.5293 41.7993 3.5293C42.5317 3.5293 43.1763 3.70508 43.7329 4.05664C44.2944 4.4082 44.7314 4.89648 45.0439 5.52148C45.3564 6.14648 45.5127 6.86914 45.5127 7.68945V7.92383H39.3823C39.4702 8.35352 39.646 8.72705 39.9097 9.04443C40.1782 9.36182 40.5103 9.6084 40.9058 9.78418C41.3013 9.95996 41.7432 10.0479 42.2314 10.0479C43.0713 10.0479 43.8379 9.77197 44.5312 9.22021L45.0879 10.0991ZM39.3384 6.89844H44.3774C44.3237 6.44434 44.1821 6.04883 43.9526 5.71191C43.728 5.37012 43.4351 5.104 43.0737 4.91357C42.7173 4.72314 42.3145 4.62793 41.8652 4.62793C41.4111 4.62793 41.001 4.72314 40.6348 4.91357C40.2734 5.104 39.978 5.37012 39.7485 5.71191C39.5239 6.04883 39.3872 6.44434 39.3384 6.89844ZM54.0601 11H52.8589V6.91309C52.8589 6.21973 52.6611 5.66553 52.2656 5.25049C51.8701 4.83545 51.3452 4.62793 50.6909 4.62793C50.0122 4.62793 49.4604 4.85254 49.0356 5.30176C48.6157 5.74609 48.4058 6.33203 48.4058 7.05957V11H47.2046V3.67578H48.252L48.2959 4.8623C48.5645 4.43262 48.9185 4.10303 49.3579 3.87354C49.7974 3.64404 50.3149 3.5293 50.9106 3.5293C51.8823 3.5293 52.6489 3.82227 53.2104 4.4082C53.7769 4.99414 54.0601 5.79736 54.0601 6.81787V11Z" fill="#69707D"/>
</svg>
